<svg xmlns="http://www.w3.org/2000/svg" xmlns:xlink="http://www.w3.org/1999/xlink" width="503" height="532" viewBox="0 0 503 532"><title>adventure</title><defs><path id="a" d="M.606 294.63v28.192a8.56 8.56 0 0 0 3.81 7.122L220.533 474.05a14.38 14.38 0 0 0 15.96 0l162.118-107.91 1.036-4.356a21.94 21.94 0 0 1 11.326-14.442l57.485-167.499c4.063-11.381-.15-24.07-10.21-30.752L238.228 2.956A15.57 15.57 0 0 0 229.61.354h-8.014l-56.903 191.83z"/><path id="d" d="m.125 45.178 60.354-40.1A765 765 0 0 1 67.67.444h83.805L291.29 93.671v25.214a804 804 0 0 0-11.203 6.708l-.327.198-98.386 65.416L.125 70.35z"/><path id="f" d="m.125 45.178 60.354-40.1A765 765 0 0 1 67.67.444h83.805L291.29 93.671v25.214a804 804 0 0 0-11.203 6.708l-.327.198-98.386 65.416L.125 70.35z"/><path id="h" d="M.007.83h330.54v162.35c-8.585 4.542-19.024 10.473-31.746 18.225l-98.713 65.614L.007 113.607z"/><path id="k" d="M332.792 129.302s-31.751-6.796-64.667-25.872c-13.325-7.722-21.234-22.76-36-31.95-12.348-7.683-51.434-22.43-62.55-30.15C153.375 30.08 132.372.444 132.372.444c-6.688 2.503-28.614 24.937-55.309 43.674S.007 81.809.007 81.809L200.09 212.821z"/><path id="m" d="M332.792 129.302s-31.751-6.796-64.667-25.872c-13.325-7.722-21.234-22.76-36-31.95-12.348-7.683-51.434-22.43-62.55-30.15C153.375 30.08 132.372.444 132.372.444c-6.688 2.503-28.614 24.937-55.309 43.674S.007 81.809.007 81.809L200.09 212.821z"/><path id="o" d="M.228 5.973 2.702.518a.585.585 0 0 1 1.135 0l2.474 5.455a1.77 1.77 0 0 1-.536 1.748q-1.14 1.02-2.505 1.02-1.366 0-2.505-1.02a1.77 1.77 0 0 1-.537-1.748"/><path id="q" d="M332.792 129.302s-31.751-6.796-64.667-25.872c-13.325-7.722-21.234-22.76-36-31.95-12.348-7.683-51.434-22.43-62.55-30.15C153.375 30.08 132.372.444 132.372.444c-6.688 2.503-28.614 24.937-55.309 43.674S.007 81.809.007 81.809L200.09 212.821z"/><path id="s" d="M.228 5.973 2.702.518a.585.585 0 0 1 1.135 0l2.474 5.455a1.77 1.77 0 0 1-.536 1.748q-1.14 1.02-2.505 1.02-1.366 0-2.505-1.02a1.77 1.77 0 0 1-.537-1.748"/><path id="u" d="M332.792 129.302s-31.751-6.796-64.667-25.872c-13.325-7.722-21.234-22.76-36-31.95-12.348-7.683-51.434-22.43-62.55-30.15C153.375 30.08 132.372.444 132.372.444c-6.688 2.503-28.614 24.937-55.309 43.674S.007 81.809.007 81.809L200.09 212.821z"/><path id="w" d="M.228 5.973 2.702.518a.585.585 0 0 1 1.135 0l2.474 5.455a1.77 1.77 0 0 1-.536 1.748q-1.14 1.02-2.505 1.02-1.366 0-2.505-1.02a1.77 1.77 0 0 1-.537-1.748"/><path id="y" d="M332.792 129.302s-31.751-6.796-64.667-25.872c-13.325-7.722-21.234-22.76-36-31.95-12.348-7.683-51.434-22.43-62.55-30.15C153.375 30.08 132.372.444 132.372.444c-6.688 2.503-28.614 24.937-55.309 43.674S.007 81.809.007 81.809L200.09 212.821z"/><path id="A" d="M.228 5.973 2.702.518a.585.585 0 0 1 1.135 0l2.474 5.455a1.77 1.77 0 0 1-.536 1.748q-1.14 1.02-2.505 1.02-1.366 0-2.505-1.02a1.77 1.77 0 0 1-.537-1.748"/><path id="C" d="M332.792 129.302s-31.751-6.796-64.667-25.872c-13.325-7.722-21.234-22.76-36-31.95-12.348-7.683-51.434-22.43-62.55-30.15C153.375 30.08 132.372.444 132.372.444c-6.688 2.503-28.614 24.937-55.309 43.674S.007 81.809.007 81.809L200.09 212.821z"/><path id="E" d="M.007.83h330.54v162.35c-8.585 4.542-19.024 10.473-31.746 18.225l-98.713 65.614L.007 113.607z"/><path id="G" d="m.456 20.947 4.948-19.91a1.17 1.17 0 0 1 2.27 0l4.949 19.91a3.54 3.54 0 0 1-1.074 3.495q-2.28 2.04-5.01 2.039t-5.01-2.039a3.54 3.54 0 0 1-1.073-3.495"/><path id="I" d="M.007.83h330.54v162.35c-8.585 4.542-19.024 10.473-31.746 18.225l-98.713 65.614L.007 113.607z"/><path id="K" d="M.35 16.018 4.158.793a.9.9 0 0 1 1.746 0L9.71 16.018a2.7 2.7 0 0 1-.826 2.673q-1.755 1.56-3.854 1.559-2.1 0-3.854-1.559a2.7 2.7 0 0 1-.825-2.673z"/><path id="M" d="M.007.83h330.54v162.35c-8.585 4.542-19.024 10.473-31.746 18.225l-98.713 65.614L.007 113.607z"/><path id="O" d="M.35 16.018 4.158.793a.9.9 0 0 1 1.746 0L9.71 16.018a2.7 2.7 0 0 1-.826 2.673q-1.755 1.56-3.854 1.559-2.1 0-3.854-1.559a2.7 2.7 0 0 1-.825-2.673z"/><path id="Q" d="M.007.83h330.54v162.35c-8.585 4.542-19.024 10.473-31.746 18.225l-98.713 65.614L.007 113.607z"/><path id="S" d="M.35 16.018 4.158.793a.9.9 0 0 1 1.746 0L9.71 16.018a2.7 2.7 0 0 1-.826 2.673q-1.755 1.56-3.854 1.559-2.1 0-3.854-1.559a2.7 2.7 0 0 1-.825-2.673z"/><path id="U" d="M.007.83h330.54v162.35c-8.585 4.542-19.024 10.473-31.746 18.225l-98.713 65.614L.007 113.607z"/><path id="W" d="M.35 16.018 4.158.793a.9.9 0 0 1 1.746 0L9.71 16.018a2.7 2.7 0 0 1-.826 2.673q-1.755 1.56-3.854 1.559-2.1 0-3.854-1.559a2.7 2.7 0 0 1-.825-2.673z"/><path id="Y" d="M.007.83h330.54v162.35c-8.585 4.542-19.024 10.473-31.746 18.225l-98.713 65.614L.007 113.607z"/><path id="aa" d="M.35 11.518 4.158.793a.9.9 0 0 1 1.746 0L9.71 11.518a2.7 2.7 0 0 1-.826 2.673q-1.755 1.56-3.854 1.559-2.1 0-3.854-1.559a2.7 2.7 0 0 1-.825-2.673z"/><path id="ac" d="M.007.83h330.54v162.35c-8.585 4.542-19.024 10.473-31.746 18.225l-98.713 65.614L.007 113.607z"/><path id="ae" d="M.35 16.018 4.158.793a.9.9 0 0 1 1.746 0L9.71 16.018a2.7 2.7 0 0 1-.826 2.673q-1.755 1.56-3.854 1.559-2.1 0-3.854-1.559a2.7 2.7 0 0 1-.825-2.673z"/><path id="ag" d="M.007.83h330.54v162.35c-8.585 4.542-19.024 10.473-31.746 18.225l-98.713 65.614L.007 113.607z"/><path id="ai" d="M.35 16.018 4.158.793a.9.9 0 0 1 1.746 0L9.71 16.018a2.7 2.7 0 0 1-.826 2.673q-1.755 1.56-3.854 1.559-2.1 0-3.854-1.559a2.7 2.7 0 0 1-.825-2.673z"/><path id="ak" d="M.007.83h330.54v162.35c-8.585 4.542-19.024 10.473-31.746 18.225l-98.713 65.614L.007 113.607z"/><path id="am" d="M.35 13.318 4.158.793a.9.9 0 0 1 1.746 0L9.71 13.318a2.7 2.7 0 0 1-.826 2.673q-1.755 1.56-3.854 1.559-2.1 0-3.854-1.559a2.7 2.7 0 0 1-.825-2.673z"/><path id="ao" d="M.007.83h330.54v162.35c-8.585 4.542-19.024 10.473-31.746 18.225l-98.713 65.614L.007 113.607z"/><path id="aq" d="M.228 5.973 2.702.518a.585.585 0 0 1 1.135 0l2.474 5.455a1.77 1.77 0 0 1-.536 1.748q-1.14 1.02-2.505 1.02-1.366 0-2.505-1.02a1.77 1.77 0 0 1-.537-1.748"/><path id="as" d="M.007.83h330.54v162.35c-8.585 4.542-19.024 10.473-31.746 18.225l-98.713 65.614L.007 113.607z"/><path id="au" d="M.228 5.973 2.702.518a.585.585 0 0 1 1.135 0l2.474 5.455a1.77 1.77 0 0 1-.536 1.748q-1.14 1.02-2.505 1.02-1.366 0-2.505-1.02a1.77 1.77 0 0 1-.537-1.748"/><path id="aw" d="M.007.83h330.54v162.35c-8.585 4.542-19.024 10.473-31.746 18.225l-98.713 65.614L.007 113.607z"/><path id="ay" d="M.228 5.973 2.702.518a.585.585 0 0 1 1.135 0l2.474 5.455a1.77 1.77 0 0 1-.536 1.748q-1.14 1.02-2.505 1.02-1.366 0-2.505-1.02a1.77 1.77 0 0 1-.537-1.748"/><path id="aA" d="M.007.83h330.54v162.35c-8.585 4.542-19.024 10.473-31.746 18.225l-98.713 65.614L.007 113.607z"/><path id="aC" d="M.228 5.973 2.702.518a.585.585 0 0 1 1.135 0l2.474 5.455a1.77 1.77 0 0 1-.536 1.748q-1.14 1.02-2.505 1.02-1.366 0-2.505-1.02a1.77 1.77 0 0 1-.537-1.748"/><path id="aE" d="M.007.83h330.54v162.35c-8.585 4.542-19.024 10.473-31.746 18.225l-98.713 65.614L.007 113.607z"/><path id="aG" d="M.228 5.973 2.702.518a.585.585 0 0 1 1.135 0l2.474 5.455a1.77 1.77 0 0 1-.536 1.748q-1.14 1.02-2.505 1.02-1.366 0-2.505-1.02a1.77 1.77 0 0 1-.537-1.748"/><path id="aI" d="M.007.83h330.54v162.35c-8.585 4.542-19.024 10.473-31.746 18.225l-98.713 65.614L.007 113.607z"/><path id="aK" d="M.228 5.973 2.702.518a.585.585 0 0 1 1.135 0l2.474 5.455a1.77 1.77 0 0 1-.536 1.748q-1.14 1.02-2.505 1.02-1.366 0-2.505-1.02a1.77 1.77 0 0 1-.537-1.748"/><path id="aM" d="M.007.83h330.54v162.35c-8.585 4.542-19.024 10.473-31.746 18.225l-98.713 65.614L.007 113.607z"/><path id="aO" d="M.228 6.873 2.702.518a.585.585 0 0 1 1.135 0l2.474 6.355a1.77 1.77 0 0 1-.536 1.748q-1.14 1.02-2.505 1.02-1.366 0-2.505-1.02a1.77 1.77 0 0 1-.537-1.748"/><path id="aQ" d="M.007.83h330.54v162.35c-8.585 4.542-19.024 10.473-31.746 18.225l-98.713 65.614L.007 113.607z"/><path id="aS" d="M.228 6.873 2.702.518a.585.585 0 0 1 1.135 0l2.474 6.355a1.77 1.77 0 0 1-.536 1.748q-1.14 1.02-2.505 1.02-1.366 0-2.505-1.02a1.77 1.77 0 0 1-.537-1.748"/><path id="aU" d="M.007.83h330.54v162.35c-8.585 4.542-19.024 10.473-31.746 18.225l-98.713 65.614L.007 113.607z"/><path id="aW" d="M.228 6.873 2.702.518a.585.585 0 0 1 1.135 0l2.474 6.355a1.77 1.77 0 0 1-.536 1.748q-1.14 1.02-2.505 1.02-1.366 0-2.505-1.02a1.77 1.77 0 0 1-.537-1.748"/><path id="aY" d="M.007.83h330.54v162.35c-8.585 4.542-19.024 10.473-31.746 18.225l-98.713 65.614L.007 113.607z"/><path id="ba" d="M.228 6.873 2.702.518a.585.585 0 0 1 1.135 0l2.474 6.355a1.77 1.77 0 0 1-.536 1.748q-1.14 1.02-2.505 1.02-1.366 0-2.505-1.02a1.77 1.77 0 0 1-.537-1.748"/><path id="bc" d="M.007.83h330.54v162.35c-8.585 4.542-19.024 10.473-31.746 18.225l-98.713 65.614L.007 113.607z"/><path id="be" d="M.007.83h330.54v162.35c-8.585 4.542-19.024 10.473-31.746 18.225l-98.713 65.614L.007 113.607z"/><path id="bg" d="M.375 28.28q4.05-10.35 5.4-11.7c1.35-1.35 5.876 5.086 6.75 4.05q1.64-1.942 8.418-18.612a2.7 2.7 0 0 1 4.761-.46l4.82 7.372 4.157 5.74q4.683-6.475 6.194-4.39c1.51 2.087 6.466 8.114 9.9 12.15 3.434 4.037 14.115 12.236 13.05 12.6-5.824 1.993-18.921 1.55-19.8 2.7-1.56 2.04-1.225 5.326-2.25 6.3-2.586 2.457-4.047-1.65-11.25.45q-7.204 2.102-8.55 4.5l-15.3-13.95z"/><path id="bi" d="M.375 28.28q4.05-10.35 5.4-11.7c1.35-1.35 5.876 5.086 6.75 4.05q1.64-1.942 8.418-18.612a2.7 2.7 0 0 1 4.761-.46l4.82 7.372 4.157 5.74q4.683-6.475 6.194-4.39c1.51 2.087 6.466 8.114 9.9 12.15 3.434 4.037 14.115 12.236 13.05 12.6-5.824 1.993-18.921 1.55-19.8 2.7-1.56 2.04-1.225 5.326-2.25 6.3-2.586 2.457-4.047-1.65-11.25.45q-7.204 2.102-8.55 4.5l-15.3-13.95z"/><path id="bk" d="M.007.83h330.54v162.35c-8.585 4.542-19.024 10.473-31.746 18.225l-98.713 65.614L.007 113.607z"/><path id="bm" d="M.375 31.88q3.466-14.316 5.4-18.45.9 2.7 2.758 1l5.964-12.757a2.7 2.7 0 0 1 4.71-.328q3.675 5.651 5.918 8.485c2.994 3.788 6.041 4.884 7.2 7.2 1.35 2.7 1.862 5.706 3.6 8.55q1.893 3.1 7.2 9.45-3.84.66-5.4 2.7c-1.56 2.04-1.225 5.326-2.25 6.3-2.586 2.457-4.047-1.65-11.25.45q-7.204 2.102-8.55 4.5L.375 35.03z"/><path id="bo" d="M.375 31.88q3.466-14.316 5.4-18.45.9 2.7 2.758 1l5.964-12.757a2.7 2.7 0 0 1 4.71-.328q3.675 5.651 5.918 8.485c2.994 3.788 6.041 4.884 7.2 7.2 1.35 2.7 1.862 5.706 3.6 8.55q1.893 3.1 7.2 9.45-3.84.66-5.4 2.7c-1.56 2.04-1.225 5.326-2.25 6.3-2.586 2.457-4.047-1.65-11.25.45q-7.204 2.102-8.55 4.5L.375 35.03z"/><path id="bq" d="M.007.83h330.54v162.35c-8.585 4.542-19.024 10.473-31.746 18.225l-98.713 65.614L.007 113.607z"/><path id="bs" d="M.375 31.88q3.466-14.316 5.4-18.45.9 2.7 2.758 1l5.964-12.757a2.7 2.7 0 0 1 4.71-.328q3.675 5.651 5.918 8.485c2.994 3.788 6.041 4.884 7.2 7.2 1.35 2.7 1.862 5.706 3.6 8.55q1.893 3.1 7.2 9.45-3.84.66-5.4 2.7c-1.56 2.04-1.225 5.326-2.25 6.3-2.586 2.457-4.047-1.65-11.25.45q-7.204 2.102-8.55 4.5L.375 35.03z"/><path id="bu" d="M.375 31.88q3.466-14.316 5.4-18.45.9 2.7 2.758 1l5.964-12.757a2.7 2.7 0 0 1 4.71-.328q3.675 5.651 5.918 8.485c2.994 3.788 6.041 4.884 7.2 7.2 1.35 2.7 1.862 5.706 3.6 8.55q1.893 3.1 7.2 9.45-3.84.66-5.4 2.7c-1.56 2.04-1.225 5.326-2.25 6.3-2.586 2.457-4.047-1.65-11.25.45q-7.204 2.102-8.55 4.5L.375 35.03z"/><path id="bw" d="M.007.83h330.54v162.35c-8.585 4.542-19.024 10.473-31.746 18.225l-98.713 65.614L.007 113.607z"/><path id="by" d="M.375 31.88 14.522 1.622a2.7 2.7 0 0 1 4.705-.334l4.998 7.642 18.9 26.1q-3.84.66-5.4 2.7c-1.56 2.04-1.225 5.326-2.25 6.3-2.586 2.457-4.047-1.65-11.25.45q-7.204 2.102-8.55 4.5L.375 35.03z"/><path id="bA" d="M.375 31.88 14.522 1.622a2.7 2.7 0 0 1 4.705-.334l4.998 7.642 18.9 26.1q-3.84.66-5.4 2.7c-1.56 2.04-1.225 5.326-2.25 6.3-2.586 2.457-4.047-1.65-11.25.45q-7.204 2.102-8.55 4.5L.375 35.03z"/><path id="bC" d="M.007.83h330.54v162.35c-8.585 4.542-19.024 10.473-31.746 18.225l-98.713 65.614L.007 113.607z"/><path id="bE" d="M.35 16.018 4.158.793a.9.9 0 0 1 1.746 0L9.71 16.018a2.7 2.7 0 0 1-.826 2.673q-1.755 1.56-3.854 1.559-2.1 0-3.854-1.559a2.7 2.7 0 0 1-.825-2.673z"/><path id="bG" d="M.007.83h330.54v162.35c-8.585 4.542-19.024 10.473-31.746 18.225l-98.713 65.614L.007 113.607z"/><path id="bI" d="M.35 13.318 4.158.793a.9.9 0 0 1 1.746 0L9.71 13.318a2.7 2.7 0 0 1-.826 2.673q-1.755 1.56-3.854 1.559-2.1 0-3.854-1.559a2.7 2.7 0 0 1-.825-2.673z"/><path id="bK" d="M.007.83h330.54v162.35c-8.585 4.542-19.024 10.473-31.746 18.225l-98.713 65.614L.007 113.607z"/><path id="bM" d="m.456 17.347 4.948-16.31a1.17 1.17 0 0 1 2.27 0l4.949 16.31a3.54 3.54 0 0 1-1.074 3.495q-2.28 2.04-5.01 2.039t-5.01-2.039a3.54 3.54 0 0 1-1.073-3.495"/><path id="bO" d="M.007.83h330.54v162.35c-8.585 4.542-19.024 10.473-31.746 18.225l-98.713 65.614L.007 113.607z"/><path id="bQ" d="m.456 20.947 4.948-19.91a1.17 1.17 0 0 1 2.27 0l4.949 19.91a3.54 3.54 0 0 1-1.074 3.495q-2.28 2.04-5.01 2.039t-5.01-2.039a3.54 3.54 0 0 1-1.073-3.495"/><path id="bS" d="M.007.83h330.54v162.35c-8.585 4.542-19.024 10.473-31.746 18.225l-98.713 65.614L.007 113.607z"/><path id="bU" d="m.456 20.947 4.948-19.91a1.17 1.17 0 0 1 2.27 0l4.949 19.91a3.54 3.54 0 0 1-1.074 3.495q-2.28 2.04-5.01 2.039t-5.01-2.039a3.54 3.54 0 0 1-1.073-3.495"/><path id="bW" d="M.007.83h330.54v162.35c-8.585 4.542-19.024 10.473-31.746 18.225l-98.713 65.614L.007 113.607z"/><path id="bY" d="m.456 16.447 4.948-15.41a1.17 1.17 0 0 1 2.27 0l4.949 15.41a3.54 3.54 0 0 1-1.074 3.495q-2.28 2.04-5.01 2.039t-5.01-2.039a3.54 3.54 0 0 1-1.073-3.495"/><path id="ca" d="M.007.83h330.54v162.35c-8.585 4.542-19.024 10.473-31.746 18.225l-98.713 65.614L.007 113.607z"/><path id="cc" d="m.456 20.947 4.948-19.91a1.17 1.17 0 0 1 2.27 0l4.949 19.91a3.54 3.54 0 0 1-1.074 3.495q-2.28 2.04-5.01 2.039t-5.01-2.039a3.54 3.54 0 0 1-1.073-3.495"/><path id="ce" d="M.007.83h330.54v162.35c-8.585 4.542-19.024 10.473-31.746 18.225l-98.713 65.614L.007 113.607z"/><path id="cg" d="m.456 20.947 4.948-19.91a1.17 1.17 0 0 1 2.27 0l4.949 19.91a3.54 3.54 0 0 1-1.074 3.495q-2.28 2.04-5.01 2.039t-5.01-2.039a3.54 3.54 0 0 1-1.073-3.495"/><path id="ci" d="M.007.83h330.54v162.35c-8.585 4.542-19.024 10.473-31.746 18.225l-98.713 65.614L.007 113.607z"/><path id="ck" d="M10.95 76.5q1.206-7.681 2.411-18.193c1.206-10.511-.036-12.533 0-16.98.037-4.447 4.621-14.15 5.425-20.214-.201 3.639-.603 22.64 2.611 31.534q3.215 8.895 6.027 25.874 1.311 1.479 2.41 1.617t4.019-.808q.401-15.767-1.608-22.236c-2.009-6.468-2.812-11.32-2.812-13.34 0-2.022 1.607-15.768 2.41-20.62.777-4.686 1.812-13.303 0-19-.063-.2-1.137-.617-1.205-.809q-15.67-3.637-26.116.809-2.41 25.874-1.205 35.576c1.205 9.703 2.009 19.001 2.009 19.81v14.554q.387 1.92 1.205 2.426t4.42 0z"/><path id="cm" d="M3.792 56.994q11.25 4.851 28.125.404c6.314-6.065 4.688-35.67.401-48.918-1.168-3.611-2.556-6.32-4.42-6.546-8.698-1.052-11.65.702-14.864 5.263q-3.216.071-5.969 2.984-3.676 7.377-4.077 11.236c-.402 3.86 1.607 7.182 1.607 11.041q0 3.86-.803 24.536"/><path id="co" d="M6.59 2.315Q20.072.928 22.875 1.175c2.802.246 6.246 4.824 5.025 9.586q-1.27.7-.14 1.611c3.027 2.296 1.62 24.807-.064 28.826s-20.05 4.633-22.417 4.02c-2.367-.615-3.497-1.526-3.548-5.589-.05-4.063-1.24-22.835 2.642-25.74-3.723-3.574-1.701-8.266-.76-9.807q.94-1.54 2.976-1.767z"/><path id="cq" d="M6.59 2.315Q20.072.928 22.875 1.175c2.802.246 6.246 4.824 5.025 9.586q-1.27.7-.14 1.611c3.027 2.296 1.62 24.807-.064 28.826s-20.05 4.633-22.417 4.02c-2.367-.615-3.497-1.526-3.548-5.589-.05-4.063-1.24-22.835 2.642-25.74-3.723-3.574-1.701-8.266-.76-9.807q.94-1.54 2.976-1.767z"/><path id="cs" d="M6.59 2.315Q20.072.928 22.875 1.175c2.802.246 6.246 4.824 5.025 9.586q-1.27.7-.14 1.611c3.027 2.296 1.62 24.807-.064 28.826s-20.05 4.633-22.417 4.02c-2.367-.615-3.497-1.526-3.548-5.589-.05-4.063-1.24-22.835 2.642-25.74-3.723-3.574-1.701-8.266-.76-9.807q.94-1.54 2.976-1.767z"/><path id="cu" d="M6.59 2.315Q20.072.928 22.875 1.175c2.802.246 6.246 4.824 5.025 9.586q-1.27.7-.14 1.611c3.027 2.296 1.62 24.807-.064 28.826s-20.05 4.633-22.417 4.02c-2.367-.615-3.497-1.526-3.548-5.589-.05-4.063-1.24-22.835 2.642-25.74-3.723-3.574-1.701-8.266-.76-9.807q.94-1.54 2.976-1.767z"/><path id="cw" d="M6.59 2.315Q20.072.928 22.875 1.175c2.802.246 6.246 4.824 5.025 9.586q-1.27.7-.14 1.611c3.027 2.296 1.62 24.807-.064 28.826s-20.05 4.633-22.417 4.02c-2.367-.615-3.497-1.526-3.548-5.589-.05-4.063-1.24-22.835 2.642-25.74-3.723-3.574-1.701-8.266-.76-9.807q.94-1.54 2.976-1.767z"/><path id="cy" d="M22.875 1.175c2.802.246 6.246 4.824 5.025 9.586q-1.27.7-.14 1.611c3.027 2.296 1.62 24.807-.064 28.826s-20.05 4.633-22.417 4.02c-2.367-.615-3.497-1.526-3.548-5.589-.05-4.063-1.24-22.835 2.642-25.74-3.723-3.574-1.701-8.266-.76-9.807q.94-1.54 2.976-1.767Q20.073.928 22.875 1.175"/><path id="cA" d="M76.5 2Q62 12.5 55 18.5c-7 6-9.5 5-14 8S32.5 33 19.5 39-1 52 1 54s5 6.5 10 4.5S24.5 50 33 47s11-9 14.5-8 3.5 8.5 5.5 9.5 8.5-1 14.5-8c0-4-13-3.5-11-5.5.5-2 4-5.5 9.5-8.5s11.5-12 16.5-13 8-5.5 4-9.5c-1.86-1.86-4.165-3.25-7-3q-1.227.108-3 1"/><radialGradient id="j" cx="39.3%" cy="-5.8%" r="96.378%" fx="39.3%" fy="-5.8%" gradientTransform="matrix(.47089 .67498 -.43077 .73783 .183 -.28)"><stop offset="0%" stop-color="#c4de8a"/><stop offset="100%" stop-color="#91aa5a"/></radialGradient><linearGradient id="c" x1="39.606%" x2="53.281%" y1="76.518%" y2="54.668%"><stop offset="0%" stop-color="#faf8f0"/><stop offset="100%" stop-color="#fff"/></linearGradient></defs><g fill="none" fill-rule="evenodd"><path fill="#5e7710" d="m24.287 391.906 202.14 134.785a25.81 25.81 0 0 0 28.703-.045l164.293-110.715c7.393-4.963 7.376-15.853-.033-20.793L210.34 255.745a12.48 12.48 0 0 0-13.851 0L24.287 371.091c-7.422 4.95-7.422 15.866 0 20.815" opacity=".15"/><path fill="#d1b49a" d="M0 347.7v-5.001L173.936 227.92a7.22 7.22 0 0 1 8.01 0L246.454 2.38s8.205-3.317 12.943-.575l228.165 149.18c12.622 8.253 18.027 24.037 13.116 38.305L437.75 373.093c-2.136 6.625-6.801 12.754-11.967 17.415v.002l-9.026 6.018-157.554 104.867a30.94 30.94 0 0 1-34.335 0L2.9 353.128A6.53 6.53 0 0 1 0 347.7"/><path fill="#867054" d="M3.207 348.694c-4.276-2.851-4.276-9.141 0-11.993l170.097-113.23a7.19 7.19 0 0 1 7.98 0L239.853 9.646c1.94-7.085 10.213-10.224 16.358-6.206l227.296 148.61c12.574 8.222 17.958 23.947 13.065 38.16L435.55 367.49l-.252.783a39.4 39.4 0 0 1-11.104 17.165l-8.992 5.996-158.356 105.403a28.35 28.35 0 0 1-31.462 0z"/><path fill="#513b20" d="m496.571 190.211-61.022 177.28c-2.38 7.383-6.21 13.304-11.356 17.948l-8.992 5.996L278.55 482.4c-9.527 6.353-30.523 11.753-40.05 5.4q191.823-284.607 232.2-309.15c22.95-13.95 26.726 9.078 25.871 11.561" opacity=".5"/><path stroke="#be9365" stroke-dasharray="3.603599643611915,3.603599643611915" stroke-linecap="round" stroke-linejoin="round" stroke-width="1.08" d="M186.588 228.63 246.1 11.362c.607-2.216 2.554-3.207 4.214-3.207.837 0 1.63.24 2.355.715l227.295 148.61a26.31 26.31 0 0 1 10.483 30.618L429.384 365.5l-.252.783a33 33 0 0 1-8.943 14.035l-8.58 5.721-158.351 105.4a21.85 21.85 0 0 1-12.144 3.68 21.84 21.84 0 0 1-12.14-3.678L10.582 345.766c-2.183-1.457-2.182-4.667.002-6.122L176.89 228.87a.7.7 0 0 1 .403-.124q.219 0 .4.121l4.47 2.98"/><path stroke="#f7931e" stroke-linecap="round" stroke-linejoin="round" stroke-width=".72" d="m183.662 232.847 1.498.998.476-1.737"/><path fill="#fff" d="m393.26 354.18-144.166 95.94a14.38 14.38 0 0 1-15.96 0L16.537 305.697"/><path stroke="#000" stroke-linecap="round" stroke-linejoin="round" stroke-width=".72" d="m393.26 354.18-144.166 95.94a14.38 14.38 0 0 1-15.96 0L16.537 305.697"/><path fill="#f4f1ec" d="M13.206 306.695v28.192a8.56 8.56 0 0 0 3.81 7.122l216.117 144.106a14.38 14.38 0 0 0 15.96 0l162.118-107.91 1.036-4.356a21.94 21.94 0 0 1 11.326-14.442l57.485-167.499c4.063-11.381-.15-24.07-10.21-30.752L250.828 15.021a15.57 15.57 0 0 0-8.618-2.602h-8.014l-56.903 191.83z"/><path stroke="#dcd3c4" stroke-width="1.8" d="M14.106 307.195v27.692a7.66 7.66 0 0 0 3.409 6.374l216.118 144.104a13.48 13.48 0 0 0 14.962 0l161.822-107.714.955-4.011a22.84 22.84 0 0 1 11.466-14.865l57.372-167.17c3.925-10.993-.144-23.247-9.86-29.7L250.33 15.77a14.67 14.67 0 0 0-8.12-2.452h-7.342L178.06 204.832z"/><g transform="translate(12.6 12.065)"><mask id="b" fill="#fff"><use xlink:href="#a"/></mask><path fill="#dfdcd3" d="M228.15 445.585v39.16l214.2-99.46 54-224.55-44.1 3.15-221.4 272.25z" mask="url(#b)" opacity=".6"/></g><path fill="url(#c)" d="M177.294 203.885s-7.409-41.98 12.719-86.574c14.62-32.392 28.13-76.39 34.428-98.043 1.887-6.489 9.522-9.275 15.141-5.529L461.93 161.997c8.935 5.958 12.623 17.27 8.915 27.355-8.936 24.306-29.048 58.66-40.69 91.914-16.7 47.704-18.943 78.59-18.943 78.59l-233.918-155.97z" transform="translate(0 .365)"/><path stroke="#dcd3c4" stroke-width="1.8" d="m178.12 203.718 232.332 154.916q.175-1.748.478-4.1c.591-4.569 1.444-9.884 2.607-15.89 3.318-17.147 8.447-36.397 15.768-57.31a278 278 0 0 1 3.683-9.888c3.871-9.845 8.387-19.963 14.56-32.934 1.508-3.167 10.278-21.331 12.596-26.256 4.45-9.455 7.557-16.598 9.855-22.85 3.565-9.694.02-20.568-8.57-26.295L239.083 14.853c-5.114-3.41-12.06-.873-13.778 5.032-10.489 36.06-22.485 71.603-34.472 98.161-7.107 15.747-11.274 32.217-13.03 48.809-1.264 11.954-1.18 22.828-.28 32.021.145 1.475.3 2.772.455 3.881q.076.551.141.96z"/><path stroke="#979797" stroke-width=".9" d="M391.95 324.9q7.2-52.2 50.85-139.05M377.55 315.9q7.2-52.2 50.85-139.05m-64.8 128.7q7.2-52.2 50.85-139.05" opacity=".2"/><path fill="#fff" d="M177.294 204.25s-10.099-3.234-67.374 34.117l-93.383 62.078c-4.44 2.962-4.44 9.495 0 12.456l216.596 144.424a14.38 14.38 0 0 0 15.96 0l100.463-66.8c51.69-31.494 61.655-30.303 61.655-30.303z"/><path stroke="#dcd3c4" stroke-width="1.8" d="M176.948 205.1c-.593-.073-1.672.006-3.341.372-2.592.568-6.032 1.72-10.432 3.59-12.067 5.134-29.35 14.79-52.757 30.054l-93.382 62.078c-3.906 2.606-3.906 8.353 0 10.958l216.597 144.424a13.48 13.48 0 0 0 14.962 0l100.493-66.819c21.964-13.383 38.12-21.941 49.364-26.626 4.052-1.688 7.212-2.763 9.592-3.342q.351-.086.666-.153z"/><path fill="#eae8e2" d="m40.953 306.673 79.264-52.664c30.968-20.19 46.493-27.347 53.18-29.85l198.176 132.14c-8.586 4.542-19.024 10.473-31.747 18.226l-.326.198-98.386 65.415z"/><path fill="#eae8e2" d="M331.2 382.05q8.1 10.35 15.75 13.5t-7.65 4.95q-6.682-4.731-9-6.75c-5.117-4.457-7.2-7.48-7.2-8.1q0-1.35 8.1-3.6"/><text fill="#e1ddd2" fill-rule="nonzero" font-family="Merriweather-Italic, Merriweather" font-size="19.8" font-style="italic" transform="rotate(-65 236.137 138.687)">
                        <tspan x="231.637" y="145.687">1</tspan>
                    </text><path fill="#e1ddd2" fill-rule="nonzero" d="M259.549 186.22q-.134.674-.405 1.433-.27.76-.717 1.28a3.5 3.5 0 0 1-1.012.82c-.38.2-.792.329-1.218.381q-.654.083-1.344.014a8.1 8.1 0 0 1-2.731-.826q-1.32-.663-2.225-1.37a10.5 10.5 0 0 1-1.625-1.572 9.8 9.8 0 0 1-1.2-1.806 8.5 8.5 0 0 1-.708-1.91q-.46-1.99.16-3.727.586-1.65 1.495-2.9l.212-.285 2.93 2.15-.364 1.021-2.292-.914q-.416.234-.66.738-.246.504-.466 1.124-.222.619-.138 1.433a4.8 4.8 0 0 0 .438 1.568q.356.754.917 1.438 1.542 1.865 3.838 3.018 1.973.991 3.545.958 1.778-.044 2.3-1.51.413-1.16.2-2.173a1.4 1.4 0 0 0-.258-.603l-1.471-1.439.384-1.051 2.703 1.769q-.013.261-.023.698-.01.438-.07 1.004-.06.565-.195 1.24zm4.335-11.763q-.404 1.135-1.5.512-.72-.412-1.533-1.012-.813-.599-1.158-.848a60 60 0 0 1-.752-.558 25 25 0 0 0-.845-.61q-.98-.698-1.57-.994-.588-.296-.881-.35-.292-.055-.48.016-.27.111-.418.526c-.1.286-.14.588-.12.89q.026.477.176 1.016.322 1.159 1.023 2.273l6.094 4.09-.603 1.692-12.056-8.04-.734.845-.656-.505.468-2.501.392-.338 5.785 3.883q-1.1-1.911-1.07-3.583.015-.579.188-1.063.173-.485.434-.78t.659-.395q.825-.223 2.2.467a11 11 0 0 1 1.656 1.059l1.225.913 1.277.91q1.368.964 1.673 1.04.306.075.349-.046.108-.306-.146-1.174l.54-.048q.234.334.367.894.262 1.13.016 1.82zm1.985-9.98q.927 1.803.384 3.33-.504 1.415-1.816 1.65-1.225.218-2.9-.623-1.374-.69-2.595-2.096-2.044-2.344-2.098-4.963a4.8 4.8 0 0 1 .28-1.774q.303-.855.929-1.621l.08-1.185 7.919 5.326q.334.218.52.194.185-.025.251-.213.067-.188-.148-.882l.549-.044q.21.282.34.799.253 1.042.025 1.68-.394 1.108-1.428.589l-.12-.06-.172-.108zm-7.093-4.736q-.427.27-.67.95a3.1 3.1 0 0 0-.185 1.31q.057.631.315 1.235.26.603.68 1.159t.925 1.035q.985.937 1.869 1.381.883.444 1.417.6.534.154.941.142.851-.015 1.087-.678.398-1.117-.234-2.566a6 6 0 0 0-.367-.72zm11.482-4.14q.02.904-.229 1.603-.238.676-.618 1.284l4.186 2.833-.59 1.658-12.188-8.21-.774.732-.62-.496.371-2.51.351-.306.995.684q-.876-1.695-.354-3.161.522-1.467 1.849-1.715 1.24-.231 2.905.605 2.187 1.098 3.663 3.568 1.018 1.695 1.053 3.43zm-1.989 2.107q.47-.3.722-1.01.255-.712.187-1.331a3.9 3.9 0 0 0-.342-1.216 5.8 5.8 0 0 0-.708-1.149 8.7 8.7 0 0 0-.948-1.026 9.5 9.5 0 0 0-2.22-1.557q-1.19-.599-2-.542-.811.055-1.054.736-.357 1.004.243 2.457.16.4.347.72zm4.987-9.563q-.57 1.596-2.098.829l-.094-.047q-.264-.133-1.004-.628l-5.9-3.9-.373 1.047-.681-.547-.019-1.275q-.404-.79-1.858-2.302l.295-.83 2.123 1.417.815-2.286 1.124.77-.805 2.26 5.088 3.41q.981.667 1.344.85t.527.229q.165.046.278.01.213-.057.323-.367t.121-.582a4 4 0 0 0-.015-.564 6 6 0 0 0-.176-1.034l.722.177q.498.95.42 2.526-.027.47-.157.837m1.647-8.556q.57-1.597-.19-3.593l.852-.046q.46.745.632 1.902.225 1.4-.142 2.434-.369 1.034-.93 1.534-1.097.992-2.707.677-.695-.143-1.061-.327a32 32 0 0 1-.794-.414q-.428-.23-1.137-.808-.702-.57-1.288-1.259a9.3 9.3 0 0 1-1.004-1.435c-.276-.485-.495-1-.651-1.536q-.476-1.66.02-3.056.648-1.815 2.117-1.673.45.04 1.004.319.555.279.985.865.43.587.678 1.307.246.72.331 1.515.086.793.06 1.542-.036 1.515-.355 2.466.173.108.327.185t.37.175.57.183q.352.085.705.097c.224.01.447-.02.66-.09q.688-.23.948-.964m-4.504-.102q.394-1.304.127-2.899-.181-1.13-.765-1.866-.296-.385-.851-.664-.555-.28-.967-.125-.412.153-.578.62t-.1.943q.068.476.293.944.226.468.568.923.339.45.732.856c.469.474.985.9 1.541 1.268m-.214-10.478-.824.615-.704-.538.309-2.336.354-.316 1.873 1.157a5.35 5.35 0 0 1-1.181-2.96q-.053-.642.084-1.027.237-.663.388-.72l1.64 1.275q-.207.184-.38.67a3.2 3.2 0 0 0-.196.888q-.023.405.083.87.255 1.065 1.158 2.063l5.838 3.848-.606 1.702z"/><g transform="translate(59.739 248.932)"><mask id="e" fill="#fff"><use xlink:href="#d"/></mask><path fill="#f9e6d7" d="M291.292 118.887 113.658.444c-6.687 2.503-22.212 9.66-53.18 29.85L.126 70.35l181.25 120.857z" mask="url(#e)"/></g><g transform="translate(59.739 248.932)"><mask id="g" fill="#fff"><use xlink:href="#f"/></mask><path stroke="#42210b" stroke-linecap="round" stroke-linejoin="round" stroke-width=".72" d="M291.292 118.887 113.658.444c-6.687 2.503-22.212 9.66-53.18 29.85L.126 70.35l181.25 120.857z" mask="url(#g)"/></g><g transform="translate(41.025 193.12)"><mask id="i" fill="#fff"><use xlink:href="#h"/></mask><g mask="url(#i)"><path fill="#b3cc7b" d="M332.792 167.102s-31.751-6.796-64.667-25.872c-13.325-7.722-21.234-22.76-36-31.95-12.348-7.683-51.434-22.43-62.55-30.15-16.2-11.25-37.203-40.886-37.203-40.886-6.688 2.503-28.614 24.937-55.309 43.674S.007 119.609.007 119.609L200.09 250.621z"/><path fill="url(#j)" d="M332.792 129.302s-31.751-6.796-64.667-25.872c-13.325-7.722-21.234-22.76-36-31.95-12.348-7.683-51.434-22.43-62.55-30.15C153.375 30.08 132.372.444 132.372.444c-6.688 2.503-28.614 24.937-55.309 43.674S.007 81.809.007 81.809L200.09 212.821z" transform="translate(0 37.8)"/><g transform="translate(0 37.8)"><mask id="l" fill="#fff"><use xlink:href="#k"/></mask><path stroke="#fff" stroke-width="1.8" d="M49.975 59.08q8.832 4.335 14.85 4.5c9.837.273 15.75-1.8 18 2.7 2.487 4.976-16.705 5.796-12.15 10.35 3.6 3.6 10.315.982 13.95 3.6 2.753 1.984 4.707 5.402 8.55 7.2 2.684 1.257 6.75-2.25 12.15 0 11.063 4.61-17.1 17.55-14.85 30.15s17.55 13.05 39.6 18 32.85 15.75 45 18 29.25-1.35 22.95-18-17.55-22.5-11.25-26.55 14.85 1.8 18.9 6.3 11.7 10.35 13.95 4.5-8.55-6.594-6.75-12.972 8.55-.077 16.2 8.473 7.65 13.5 15.3 10.8 5.4-17.1 13.05-17.1 14.4 12.6 5.85 20.7-16.2 1.35-26.1 8.1-22.5 22.95-9.9 23.4 7.65-5.4 17.1-7.65-7.2 12.6 0 14.4 13.95-12.15 21.15-12.15q7.2 0 12.15 2.25" mask="url(#l)"/></g><g transform="translate(0 37.8)"><mask id="n" fill="#fff"><use xlink:href="#m"/></mask><g mask="url(#n)"><path fill="#8fa955" d="m175.747 186.646 8.566 1.939a.585.585 0 0 0 .451-1.06l-5.799-3.821z" opacity=".6"/><path fill="#768a38" d="m173.928 184.173 2.474-5.455a.585.585 0 0 1 1.135 0l2.474 5.455a1.77 1.77 0 0 1-.536 1.748q-1.14 1.02-2.505 1.02-1.366 0-2.505-1.02a1.77 1.77 0 0 1-.537-1.748"/><g transform="translate(173.7 178.2)"><mask id="p" fill="#fff"><use xlink:href="#o"/></mask><path fill="#63752b" d="M3.217-4.794Q7.312 11.094 0 7.563q-7.312-3.53-2.047 6.18l16.38-2.355L7.896-2.44z" mask="url(#p)"/></g></g></g><g transform="translate(0 37.8)"><mask id="r" fill="#fff"><use xlink:href="#q"/></mask><g mask="url(#r)"><path fill="#8fa955" d="m200.947 175.846 8.566 1.939a.585.585 0 0 0 .451-1.06l-5.799-3.821z" opacity=".6"/><path fill="#768a38" d="m199.128 173.373 2.474-5.455a.585.585 0 0 1 1.135 0l2.474 5.455a1.77 1.77 0 0 1-.536 1.748q-1.14 1.02-2.505 1.02-1.366 0-2.505-1.02a1.77 1.77 0 0 1-.537-1.748"/><g transform="translate(198.9 167.4)"><mask id="t" fill="#fff"><use xlink:href="#s"/></mask><path fill="#63752b" d="M3.217-4.794Q7.312 11.094 0 7.563q-7.312-3.53-2.047 6.18l16.38-2.355L7.896-2.44z" mask="url(#t)"/></g></g></g><g transform="translate(0 37.8)"><mask id="v" fill="#fff"><use xlink:href="#u"/></mask><g mask="url(#v)"><path fill="#8fa955" d="m230.647 183.046 8.566 1.939a.585.585 0 0 0 .451-1.06l-5.799-3.821z" opacity=".6"/><path fill="#768a38" d="m228.828 180.573 2.474-5.455a.585.585 0 0 1 1.135 0l2.474 5.455a1.77 1.77 0 0 1-.536 1.748q-1.14 1.02-2.505 1.02-1.366 0-2.505-1.02a1.77 1.77 0 0 1-.537-1.748"/><g transform="translate(228.6 174.6)"><mask id="x" fill="#fff"><use xlink:href="#w"/></mask><path fill="#63752b" d="M3.217-4.794Q7.312 11.094 0 7.563q-7.312-3.53-2.047 6.18l16.38-2.355L7.896-2.44z" mask="url(#x)"/></g></g></g><g transform="translate(0 37.8)"><mask id="z" fill="#fff"><use xlink:href="#y"/></mask><g mask="url(#z)"><path fill="#8fa955" d="m158.647 175.846 8.566 1.939a.585.585 0 0 0 .451-1.06l-5.799-3.821z" opacity=".6"/><path fill="#768a38" d="m156.828 173.373 2.474-5.455a.585.585 0 0 1 1.135 0l2.474 5.455a1.77 1.77 0 0 1-.536 1.748q-1.14 1.02-2.505 1.02-1.366 0-2.505-1.02a1.77 1.77 0 0 1-.537-1.748"/><g transform="translate(156.6 167.4)"><mask id="B" fill="#fff"><use xlink:href="#A"/></mask><path fill="#63752b" d="M3.217-4.794Q7.312 11.094 0 7.563q-7.312-3.53-2.047 6.18l16.38-2.355L7.896-2.44z" mask="url(#B)"/></g></g></g><g transform="translate(0 37.8)"><mask id="D" fill="#fff"><use xlink:href="#C"/></mask><path fill="#141414" d="M49.425 110.18q2.25 9.45 8.1 9.45c1.411 0 4.958 3.03 9.9 2.7 3.982-.265 10.701-1.177 11.49-1.35 2.291-.499-7.81-8.55-6.54-8.55q2.25 0 16.2-2.25-5.85-8.1-7.65-8.55t-3.15-6.3l10.8-2.25-9.45-4.05-9-4.95q9-.45 9.45-2.7c-3.15-3.6-8.55-4.05-17.1-6.75-1.52 0-5.877-1.094-9.45-4.05-.682-.563 30.551-19.07 41.85-28.35 23.844-19.583 39.075-40.057 38.25-40.5q-4.017-2.151-93.15 59.85l-15.3 21.15z" mask="url(#D)" opacity=".15" style="mix-blend-mode:multiply"/></g></g></g><g transform="translate(41.025 193.12)"><mask id="F" fill="#fff"><use xlink:href="#E"/></mask><g mask="url(#F)"><path fill="#8fa955" d="m125.07 58.673 17.13 3.877a1.17 1.17 0 0 0 .903-2.118l-11.598-7.644z" opacity=".6"/><path fill="#768a38" d="m121.431 53.727 4.948-19.91a1.17 1.17 0 0 1 2.27 0l4.949 19.91a3.54 3.54 0 0 1-1.074 3.495q-2.28 2.04-5.01 2.039t-5.01-2.039a3.54 3.54 0 0 1-1.073-3.495"/><g transform="translate(120.975 32.78)"><mask id="H" fill="#fff"><use xlink:href="#G"/></mask><path fill="#63752b" d="M6.435-.588Q14.625 31.189 0 24.127t-4.095 12.358l32.76-4.708-12.87-27.658z" mask="url(#H)"/></g></g></g><g transform="translate(41.025 193.12)"><mask id="J" fill="#fff"><use xlink:href="#I"/></mask><g mask="url(#J)"><path fill="#8fa955" d="m121.425 68.78 13.156 2.96a.9.9 0 0 0 .691-1.63l-8.897-5.83z" opacity=".6"/><path fill="#8fa54a" d="m118.625 64.998 3.808-15.225a.9.9 0 0 1 1.746 0l3.806 15.225a2.7 2.7 0 0 1-.826 2.673q-1.755 1.56-3.854 1.559-2.1 0-3.854-1.559a2.7 2.7 0 0 1-.825-2.673z"/><g transform="translate(118.275 48.98)"><mask id="L" fill="#fff"><use xlink:href="#K"/></mask><path fill="#7a8f37" d="M4.95-.45q6.3 24.3-4.95 18.9t-3.15 9.45l25.2-3.6-9.9-21.15z" mask="url(#L)"/></g></g></g><g transform="translate(41.025 193.12)"><mask id="N" fill="#fff"><use xlink:href="#M"/></mask><g mask="url(#N)"><path fill="#8fa955" d="m193.425 226.28 13.156 2.96a.9.9 0 0 0 .691-1.63l-8.897-5.83z" opacity=".6"/><path fill="#8fa54a" d="m190.625 222.498 3.808-15.225a.9.9 0 0 1 1.746 0l3.806 15.225a2.7 2.7 0 0 1-.826 2.673q-1.754 1.56-3.854 1.559-2.1 0-3.854-1.559a2.7 2.7 0 0 1-.825-2.673z"/><g transform="translate(190.275 206.48)"><mask id="P" fill="#fff"><use xlink:href="#O"/></mask><path fill="#7a8f37" d="M4.95-.45q6.3 24.3-4.95 18.9t-3.15 9.45l25.2-3.6-9.9-21.15z" mask="url(#P)"/></g></g></g><g transform="translate(41.025 193.12)"><mask id="R" fill="#fff"><use xlink:href="#Q"/></mask><g mask="url(#R)"><path fill="#8fa955" d="m179.925 232.58 13.156 2.96a.9.9 0 0 0 .691-1.63l-8.897-5.83z" opacity=".6"/><path fill="#8fa54a" d="m177.125 228.798 3.808-15.225a.9.9 0 0 1 1.746 0l3.806 15.225a2.7 2.7 0 0 1-.826 2.673q-1.754 1.56-3.854 1.559-2.1 0-3.854-1.559a2.7 2.7 0 0 1-.825-2.673z"/><g transform="translate(176.775 212.78)"><mask id="T" fill="#fff"><use xlink:href="#S"/></mask><path fill="#7a8f37" d="M4.95-.45q6.3 24.3-4.95 18.9t-3.15 9.45l25.2-3.6-9.9-21.15z" mask="url(#T)"/></g></g></g><g transform="translate(41.025 193.12)"><mask id="V" fill="#fff"><use xlink:href="#U"/></mask><g mask="url(#V)"><path fill="#8fa955" d="m168.225 230.78 13.156 2.96a.9.9 0 0 0 .691-1.63l-8.897-5.83z" opacity=".6"/><path fill="#8fa54a" d="m165.425 226.998 3.808-15.225a.9.9 0 0 1 1.746 0l3.806 15.225a2.7 2.7 0 0 1-.826 2.673q-1.755 1.56-3.854 1.559-2.1 0-3.854-1.559a2.7 2.7 0 0 1-.825-2.673z"/><g transform="translate(165.075 210.98)"><mask id="X" fill="#fff"><use xlink:href="#W"/></mask><path fill="#7a8f37" d="M4.95-.45q6.3 24.3-4.95 18.9t-3.15 9.45l25.2-3.6-9.9-21.15z" mask="url(#X)"/></g></g></g><g transform="translate(41.025 193.12)"><mask id="Z" fill="#fff"><use xlink:href="#Y"/></mask><g mask="url(#Z)"><path fill="#8fa955" d="m189.825 232.58 13.156 2.96a.9.9 0 0 0 .691-1.63l-8.897-5.83z" opacity=".6"/><path fill="#8fa54a" d="m187.025 228.798 3.808-10.725a.9.9 0 0 1 1.746 0l3.806 10.725a2.7 2.7 0 0 1-.826 2.673q-1.755 1.56-3.854 1.559-2.1 0-3.854-1.559a2.7 2.7 0 0 1-.825-2.673z"/><g transform="translate(186.675 217.28)"><mask id="ab" fill="#fff"><use xlink:href="#aa"/></mask><path fill="#7a8f37" d="M4.95-4.95q6.3 24.3-4.95 18.9t-3.15 9.45l25.2-3.6-9.9-21.15z" mask="url(#ab)"/></g></g></g><g transform="translate(41.025 193.12)"><mask id="ad" fill="#fff"><use xlink:href="#ac"/></mask><g mask="url(#ad)"><path fill="#8fa955" d="m135.825 69.68 13.156 2.96a.9.9 0 0 0 .691-1.63l-8.897-5.83z" opacity=".6"/><path fill="#8fa54a" d="m133.025 65.898 3.808-15.225a.9.9 0 0 1 1.746 0l3.806 15.225a2.7 2.7 0 0 1-.826 2.673q-1.755 1.56-3.854 1.559-2.1 0-3.854-1.559a2.7 2.7 0 0 1-.825-2.673z"/><g transform="translate(132.675 49.88)"><mask id="af" fill="#fff"><use xlink:href="#ae"/></mask><path fill="#7a8f37" d="M4.95-.45q6.3 24.3-4.95 18.9t-3.15 9.45l25.2-3.6-9.9-21.15z" mask="url(#af)"/></g></g></g><g transform="translate(41.025 193.12)"><mask id="ah" fill="#fff"><use xlink:href="#ag"/></mask><g mask="url(#ah)"><path fill="#8fa955" d="m208.35 219.6 13.157 2.96a.9.9 0 0 0 .69-1.63l-8.897-5.83z" opacity=".6"/><path fill="#8fa54a" d="m205.55 215.818 3.808-15.225a.9.9 0 0 1 1.746 0l3.806 15.225a2.7 2.7 0 0 1-.826 2.673q-1.755 1.56-3.854 1.559-2.1 0-3.854-1.559a2.7 2.7 0 0 1-.825-2.673z"/><g transform="translate(205.2 199.8)"><mask id="aj" fill="#fff"><use xlink:href="#ai"/></mask><path fill="#7a8f37" d="M4.95-.45q6.3 24.3-4.95 18.9t-3.15 9.45l25.2-3.6-9.9-21.15z" mask="url(#aj)"/></g></g></g><g transform="translate(41.025 193.12)"><mask id="al" fill="#fff"><use xlink:href="#ak"/></mask><g mask="url(#al)"><path fill="#8fa955" d="m199.725 228.08 13.156 2.96a.9.9 0 0 0 .691-1.63l-8.897-5.83z" opacity=".6"/><path fill="#8fa54a" d="m196.925 224.298 3.808-12.525a.9.9 0 0 1 1.746 0l3.806 12.525a2.7 2.7 0 0 1-.826 2.673q-1.755 1.56-3.854 1.559-2.1 0-3.854-1.559a2.7 2.7 0 0 1-.825-2.673z"/><g transform="translate(196.575 210.98)"><mask id="an" fill="#fff"><use xlink:href="#am"/></mask><path fill="#7a8f37" d="M4.95-3.15q6.3 24.3-4.95 18.9t-3.15 9.45l25.2-3.6L12.15.45z" mask="url(#an)"/></g></g></g><g transform="translate(41.025 193.12)"><mask id="ap" fill="#fff"><use xlink:href="#ao"/></mask><g mask="url(#ap)"><path fill="#8fa955" d="m173.947 198.346 8.566 1.939a.585.585 0 0 0 .451-1.06l-5.799-3.821z" opacity=".6"/><path fill="#768a38" d="m172.128 195.873 2.474-5.455a.585.585 0 0 1 1.135 0l2.474 5.455a1.77 1.77 0 0 1-.536 1.748q-1.14 1.02-2.505 1.02-1.366 0-2.505-1.02a1.77 1.77 0 0 1-.537-1.748"/><g transform="translate(171.9 189.9)"><mask id="ar" fill="#fff"><use xlink:href="#aq"/></mask><path fill="#63752b" d="M3.217-4.794Q7.312 11.094 0 7.563q-7.312-3.53-2.047 6.18l16.38-2.355L7.896-2.44z" mask="url(#ar)"/></g></g></g><g transform="translate(41.025 193.12)"><mask id="at" fill="#fff"><use xlink:href="#as"/></mask><g mask="url(#at)"><path fill="#8fa955" d="m197.347 113.746 8.566 1.939a.585.585 0 0 0 .451-1.06l-5.799-3.821z" opacity=".6"/><path fill="#768a38" d="m195.528 111.273 2.474-5.455a.585.585 0 0 1 1.135 0l2.474 5.455a1.77 1.77 0 0 1-.536 1.748q-1.14 1.02-2.505 1.02-1.366 0-2.505-1.02a1.77 1.77 0 0 1-.537-1.748"/><g transform="translate(195.3 105.3)"><mask id="av" fill="#fff"><use xlink:href="#au"/></mask><path fill="#63752b" d="M3.217-4.794Q7.312 11.094 0 7.563q-7.312-3.53-2.047 6.18l16.38-2.355L7.896-2.44z" mask="url(#av)"/></g></g></g><g transform="translate(41.025 193.12)"><mask id="ax" fill="#fff"><use xlink:href="#aw"/></mask><g mask="url(#ax)"><path fill="#8fa955" d="m195.547 199.246 8.566 1.939a.585.585 0 0 0 .451-1.06l-5.799-3.821z" opacity=".6"/><path fill="#768a38" d="m193.728 196.773 2.474-5.455a.585.585 0 0 1 1.135 0l2.474 5.455a1.77 1.77 0 0 1-.536 1.748q-1.14 1.02-2.505 1.02-1.366 0-2.505-1.02a1.77 1.77 0 0 1-.537-1.748"/><g transform="translate(193.5 190.8)"><mask id="az" fill="#fff"><use xlink:href="#ay"/></mask><path fill="#63752b" d="M3.217-4.794Q7.312 11.094 0 7.563q-7.312-3.53-2.047 6.18l16.38-2.355L7.896-2.44z" mask="url(#az)"/></g></g></g><g transform="translate(41.025 193.12)"><mask id="aB" fill="#fff"><use xlink:href="#aA"/></mask><g mask="url(#aB)"><path fill="#8fa955" d="m172.147 149.746 8.566 1.939a.585.585 0 0 0 .451-1.06l-5.799-3.821z" opacity=".6"/><path fill="#768a38" d="m170.328 147.273 2.474-5.455a.585.585 0 0 1 1.135 0l2.474 5.455a1.77 1.77 0 0 1-.536 1.748q-1.14 1.02-2.505 1.02-1.366 0-2.505-1.02a1.77 1.77 0 0 1-.537-1.748"/><g transform="translate(170.1 141.3)"><mask id="aD" fill="#fff"><use xlink:href="#aC"/></mask><path fill="#63752b" d="M3.217-4.794Q7.312 11.094 0 7.563q-7.312-3.53-2.047 6.18l16.38-2.355L7.896-2.44z" mask="url(#aD)"/></g></g></g><g transform="translate(41.025 193.12)"><mask id="aF" fill="#fff"><use xlink:href="#aE"/></mask><g mask="url(#aF)"><path fill="#8fa955" d="m92.947 121.846 8.566 1.939a.585.585 0 0 0 .451-1.06l-5.799-3.821z" opacity=".6"/><path fill="#768a38" d="m91.128 119.373 2.474-5.455a.585.585 0 0 1 1.135 0l2.474 5.455a1.77 1.77 0 0 1-.536 1.748q-1.14 1.02-2.505 1.02-1.366 0-2.505-1.02a1.77 1.77 0 0 1-.537-1.748"/><g transform="translate(90.9 113.4)"><mask id="aH" fill="#fff"><use xlink:href="#aG"/></mask><path fill="#63752b" d="M3.217-4.794Q7.312 11.094 0 7.563q-7.312-3.53-2.047 6.18l16.38-2.355L7.896-2.44z" mask="url(#aH)"/></g></g></g><g transform="translate(41.025 193.12)"><mask id="aJ" fill="#fff"><use xlink:href="#aI"/></mask><g mask="url(#aJ)"><path fill="#8fa955" d="m152.347 84.046 8.566 1.939a.585.585 0 0 0 .451-1.06l-5.799-3.821z" opacity=".6"/><path fill="#768a38" d="m150.528 81.573 2.474-5.455a.585.585 0 0 1 1.135 0l2.474 5.455a1.77 1.77 0 0 1-.536 1.748q-1.14 1.02-2.505 1.02-1.366 0-2.505-1.02a1.77 1.77 0 0 1-.537-1.748"/><g transform="translate(150.3 75.6)"><mask id="aL" fill="#fff"><use xlink:href="#aK"/></mask><path fill="#63752b" d="M3.217-4.794Q7.312 11.094 0 7.563q-7.312-3.53-2.047 6.18l16.38-2.355L7.896-2.44z" mask="url(#aL)"/></g></g></g><g transform="translate(41.025 193.12)"><mask id="aN" fill="#fff"><use xlink:href="#aM"/></mask><g mask="url(#aN)"><path fill="#8fa955" d="m201.847 192.046 8.566 1.939a.585.585 0 0 0 .451-1.06l-5.799-3.821z" opacity=".6"/><path fill="#8fa54a" d="m200.028 189.573 2.474-6.355a.585.585 0 0 1 1.135 0l2.474 6.355a1.77 1.77 0 0 1-.536 1.748q-1.14 1.02-2.505 1.02-1.366 0-2.505-1.02a1.77 1.77 0 0 1-.537-1.748"/><g transform="translate(199.8 182.7)"><mask id="aP" fill="#fff"><use xlink:href="#aO"/></mask><path fill="#7a8f37" d="M3.217-3.894Q7.312 11.994 0 8.463q-7.312-3.53-2.047 6.18l16.38-2.355L7.896-1.54z" mask="url(#aP)"/></g></g></g><g transform="translate(41.025 193.12)"><mask id="aR" fill="#fff"><use xlink:href="#aQ"/></mask><g mask="url(#aR)"><path fill="#8fa955" d="m119.947 84.046 8.566 1.939a.585.585 0 0 0 .451-1.06l-5.799-3.821z" opacity=".6"/><path fill="#8fa54a" d="m118.128 81.573 2.474-6.355a.585.585 0 0 1 1.135 0l2.474 6.355a1.77 1.77 0 0 1-.536 1.748q-1.14 1.02-2.505 1.02-1.366 0-2.505-1.02a1.77 1.77 0 0 1-.537-1.748"/><g transform="translate(117.9 74.7)"><mask id="aT" fill="#fff"><use xlink:href="#aS"/></mask><path fill="#7a8f37" d="M3.217-3.894Q7.312 11.994 0 8.463q-7.312-3.53-2.047 6.18l16.38-2.355L7.896-1.54z" mask="url(#aT)"/></g></g></g><g transform="translate(41.025 193.12)"><mask id="aV" fill="#fff"><use xlink:href="#aU"/></mask><g mask="url(#aV)"><path fill="#8fa955" d="m160.447 120.046 8.566 1.939a.585.585 0 0 0 .451-1.06l-5.799-3.821z" opacity=".6"/><path fill="#8fa54a" d="m158.628 117.573 2.474-6.355a.585.585 0 0 1 1.135 0l2.474 6.355a1.77 1.77 0 0 1-.536 1.748q-1.14 1.02-2.505 1.02-1.366 0-2.505-1.02a1.77 1.77 0 0 1-.537-1.748"/><g transform="translate(158.4 110.7)"><mask id="aX" fill="#fff"><use xlink:href="#aW"/></mask><path fill="#7a8f37" d="M3.217-3.894Q7.312 11.994 0 8.463q-7.312-3.53-2.047 6.18l16.38-2.355L7.896-1.54z" mask="url(#aX)"/></g></g></g><g transform="translate(41.025 193.12)"><mask id="aZ" fill="#fff"><use xlink:href="#aY"/></mask><g mask="url(#aZ)"><path fill="#8fa955" d="m88.447 131.746 8.566 1.939a.585.585 0 0 0 .451-1.06l-5.799-3.821z" opacity=".6"/><path fill="#8fa54a" d="m86.628 129.273 2.474-6.355a.585.585 0 0 1 1.135 0l2.474 6.355a1.77 1.77 0 0 1-.536 1.748q-1.14 1.02-2.505 1.02-1.366 0-2.505-1.02a1.77 1.77 0 0 1-.537-1.748"/><g transform="translate(86.4 122.4)"><mask id="bb" fill="#fff"><use xlink:href="#ba"/></mask><path fill="#7a8f37" d="M3.217-3.894Q7.312 11.994 0 8.463q-7.312-3.53-2.047 6.18l16.38-2.355L7.896-1.54z" mask="url(#bb)"/></g></g></g><g transform="translate(41.025 193.12)"><mask id="bd" fill="#fff"><use xlink:href="#bc"/></mask><g fill="#c3edff" mask="url(#bd)"><path d="M149.475 147.88c-9.846-5.583-14.1-10.7-28.05-11.6s-36 19.8-13.95 27.9 29.7 4.5 50.85 16.65 37.65 8.05 36.9-2.7c-1.25-14.75-35.905-24.666-45.75-30.25"/></g></g><g transform="translate(41.025 193.12)"><mask id="bf" fill="#fff"><use xlink:href="#be"/></mask><g mask="url(#bf)"><path fill="#797979" d="M.375 113.78q4.05-10.35 5.4-11.7c1.35-1.35 5.876 5.086 6.75 4.05q1.64-1.942 8.418-18.612a2.7 2.7 0 0 1 4.761-.46l4.82 7.372 4.157 5.74q4.683-6.475 6.194-4.39c1.51 2.087 6.466 8.114 9.9 12.15 3.434 4.037 14.115 12.236 13.05 12.6-5.824 1.993-18.921 1.55-19.8 2.7-1.56 2.04-1.225 5.326-2.25 6.3-2.586 2.457-4.047-1.65-11.25.45q-7.204 2.102-8.55 4.5l-15.3-13.95z"/><g transform="translate(0 85.5)"><mask id="bh" fill="#fff"><use xlink:href="#bg"/></mask><path fill="#ddd" d="m17.318 9.116 3.504-7.494a2.7 2.7 0 0 1 4.705-.334l4.998 7.642q.2 4.25-.45 4.5c-1.507.583-4.33-5.214-6.13-4.314-4.361 2.18-3.157 7.006-3.77 7.014q-1.25.018-2.857-7.014" mask="url(#bh)"/></g><g transform="translate(0 85.5)"><mask id="bj" fill="#fff"><use xlink:href="#bi"/></mask><path fill="#353535" fill-opacity=".2" d="M23.325.38q.9 7.65 1.35 9.45t.45 8.55l3.15 13.05.9 15.3h24.3l13.95-13.5-28.35-24.75-12.6-8.1-3.15-1.8z" mask="url(#bj)"/></g></g></g><g transform="translate(41.025 193.12)"><mask id="bl" fill="#fff"><use xlink:href="#bk"/></mask><g mask="url(#bl)"><path fill="#797979" d="M22.875 135.38q3.466-14.316 5.4-18.45.9 2.7 2.758 1l5.964-12.757a2.7 2.7 0 0 1 4.71-.328q3.675 5.651 5.918 8.485c2.994 3.788 6.041 4.884 7.2 7.2 1.35 2.7 1.862 5.706 3.6 8.55q1.893 3.1 7.2 9.45-3.84.66-5.4 2.7c-1.56 2.04-1.225 5.326-2.25 6.3-2.586 2.457-4.047-1.65-11.25.45q-7.204 2.102-8.55 4.5l-15.3-13.95z"/><g transform="translate(22.5 103.5)"><mask id="bn" fill="#fff"><use xlink:href="#bm"/></mask><path fill="#ddd" d="m11.018 9.116 3.666-7.842a2.7 2.7 0 0 1 4.594-.491l5.397 7.09q2.283 3.06 2.25 3.757c-.053 1.106-2.885 1.698-3.15 1.8-1.507.583-4.33-5.214-6.13-4.314-1.128.564-1.01 1.726-1.52 2.514-1.465 2.261-4.653 4.044-5.107 4.05q-1.25.018 0-6.564" mask="url(#bn)"/></g><g transform="translate(22.5 103.5)"><mask id="bp" fill="#fff"><use xlink:href="#bo"/></mask><path fill="#353535" fill-opacity=".2" d="M17.025.38q1.605 3.964 1.8 5.4c.28 2.063-.627 3.343-.45 4.05q.45 1.8.45 8.55 1.2 4.84 2.25 6.3c1.724 2.4 4.358 2.899 5.85 4.95q3.6 4.95 0 14.4l20.25 2.7 3.6-18.9-18-19.35-12.6-8.1-3.15-1.8z" mask="url(#bp)"/></g></g></g><g transform="translate(41.025 193.12)"><mask id="br" fill="#fff"><use xlink:href="#bq"/></mask><g mask="url(#br)"><path fill="#797979" d="M22.875 135.38q3.466-14.316 5.4-18.45.9 2.7 2.758 1l5.964-12.757a2.7 2.7 0 0 1 4.71-.328q3.675 5.651 5.918 8.485c2.994 3.788 6.041 4.884 7.2 7.2 1.35 2.7 1.862 5.706 3.6 8.55q1.893 3.1 7.2 9.45-3.84.66-5.4 2.7c-1.56 2.04-1.225 5.326-2.25 6.3-2.586 2.457-4.047-1.65-11.25.45q-7.204 2.102-8.55 4.5l-15.3-13.95z"/><g transform="translate(22.5 103.5)"><mask id="bt" fill="#fff"><use xlink:href="#bs"/></mask><path fill="#ddd" d="m11.018 9.116 3.666-7.842a2.7 2.7 0 0 1 4.594-.491l5.397 7.09q2.283 3.06 2.25 3.757c-.053 1.106-2.885 1.698-3.15 1.8-1.507.583-4.33-5.214-6.13-4.314-1.128.564-1.01 1.726-1.52 2.514-1.465 2.261-4.653 4.044-5.107 4.05q-1.25.018 0-6.564" mask="url(#bt)"/></g><g transform="translate(22.5 103.5)"><mask id="bv" fill="#fff"><use xlink:href="#bu"/></mask><path fill="#353535" fill-opacity=".2" d="M17.025.38q1.605 3.964 1.8 5.4c.28 2.063-.627 3.343-.45 4.05q.45 1.8.45 8.55 1.2 4.84 2.25 6.3c1.724 2.4 4.358 2.899 5.85 4.95q3.6 4.95 0 14.4l20.25 2.7 3.6-18.9-18-19.35-12.6-8.1-3.15-1.8z" mask="url(#bv)"/></g></g></g><g transform="translate(41.025 193.12)"><mask id="bx" fill="#fff"><use xlink:href="#bw"/></mask><g mask="url(#bx)"><path fill="#797979" d="m6.675 143.48 14.147-30.258a2.7 2.7 0 0 1 4.705-.334l4.998 7.642 18.9 26.1q-3.84.66-5.4 2.7c-1.56 2.04-1.225 5.326-2.25 6.3-2.586 2.457-4.047-1.65-11.25.45q-7.204 2.102-8.55 4.5l-15.3-13.95z"/><g transform="translate(6.3 111.6)"><mask id="bz" fill="#fff"><use xlink:href="#by"/></mask><path fill="#ddd" d="m11.018 9.116 3.504-7.494a2.7 2.7 0 0 1 4.705-.334l4.998 7.642q-1.15 3.998-1.8 4.25c-.733.282-1.824 1.36 0 4.3 1.927 3.108.925 4.488 0 4.95-4.361 2.18-6.3-3.15-6.75-7.65s-3.979-.526-4.657-2.7q-.318-1.015 0-2.964" mask="url(#bz)"/></g><g transform="translate(6.3 111.6)"><mask id="bB" fill="#fff"><use xlink:href="#bA"/></mask><path fill="#353535" fill-opacity=".2" d="M17.025.38q.9 7.65 1.35 9.45t.45 8.55l3.15 13.05.9 15.3h24.3l3.6-18.9-18-19.35-12.6-8.1-3.15-1.8z" mask="url(#bB)"/></g></g></g><g transform="translate(41.025 193.12)"><mask id="bD" fill="#fff"><use xlink:href="#bC"/></mask><g mask="url(#bD)"><path fill="#8fa955" d="m209.625 230.78 13.156 2.96a.9.9 0 0 0 .691-1.63l-8.897-5.83z" opacity=".6"/><path fill="#8fa54a" d="m206.825 226.998 3.808-15.225a.9.9 0 0 1 1.746 0l3.806 15.225a2.7 2.7 0 0 1-.826 2.673q-1.755 1.56-3.854 1.559-2.1 0-3.854-1.559a2.7 2.7 0 0 1-.825-2.673z"/><g transform="translate(206.475 210.98)"><mask id="bF" fill="#fff"><use xlink:href="#bE"/></mask><path fill="#7a8f37" d="M4.95-.45q6.3 24.3-4.95 18.9t-3.15 9.45l25.2-3.6-9.9-21.15z" mask="url(#bF)"/></g></g></g><g transform="translate(41.025 193.12)"><mask id="bH" fill="#fff"><use xlink:href="#bG"/></mask><g mask="url(#bH)"><path fill="#8fa955" d="m221.325 225.38 13.156 2.96a.9.9 0 0 0 .691-1.63l-8.897-5.83z" opacity=".6"/><path fill="#8fa54a" d="m217.625 221.598 3.808-12.525a.9.9 0 0 1 1.746 0l3.806 12.525a2.7 2.7 0 0 1-.826 2.673q-1.754 1.56-3.854 1.559-2.1 0-3.854-1.559a2.7 2.7 0 0 1-.825-2.673z"/><g transform="translate(217.275 208.28)"><mask id="bJ" fill="#fff"><use xlink:href="#bI"/></mask><path fill="#7a8f37" d="M7.65-3.15q6.3 24.3-4.95 18.9T-.45 25.2l25.2-3.6L14.85.45z" mask="url(#bJ)"/></g></g></g><g transform="translate(41.025 193.12)"><mask id="bL" fill="#fff"><use xlink:href="#bK"/></mask><g mask="url(#bL)"><path fill="#8fa955" d="m197.07 239.573 17.13 3.877a1.17 1.17 0 0 0 .903-2.118l-11.598-7.644z" opacity=".6"/><path fill="#768a38" d="m193.431 234.627 4.948-16.31a1.17 1.17 0 0 1 2.27 0l4.949 16.31a3.54 3.54 0 0 1-1.074 3.495q-2.28 2.04-5.01 2.039t-5.01-2.039a3.54 3.54 0 0 1-1.073-3.495"/><g transform="translate(192.975 217.28)"><mask id="bN" fill="#fff"><use xlink:href="#bM"/></mask><path fill="#63752b" d="M6.435-4.188Q14.625 27.589 0 20.527t-4.095 12.358l32.76-4.708L15.795.519z" mask="url(#bN)"/></g></g></g><g transform="translate(41.025 193.12)"><mask id="bP" fill="#fff"><use xlink:href="#bO"/></mask><g mask="url(#bP)"><path fill="#8fa955" d="m221.37 246.773 17.13 3.877a1.17 1.17 0 0 0 .903-2.118l-11.598-7.644z" opacity=".6"/><path fill="#60712b" d="m217.731 241.827 4.948-19.91a1.17 1.17 0 0 1 2.27 0l4.949 19.91a3.54 3.54 0 0 1-1.074 3.495q-2.28 2.04-5.01 2.039t-5.01-2.039a3.54 3.54 0 0 1-1.073-3.495"/><g transform="translate(217.275 220.88)"><mask id="bR" fill="#fff"><use xlink:href="#bQ"/></mask><path fill="#455418" d="M6.435-.588Q14.625 31.189 0 24.127t-4.095 12.358l32.76-4.708-12.87-27.658z" mask="url(#bR)"/></g></g></g><g transform="translate(41.025 193.12)"><mask id="bT" fill="#fff"><use xlink:href="#bS"/></mask><g mask="url(#bT)"><path fill="#8fa955" d="m210.195 237.392 17.131 3.878a1.17 1.17 0 0 0 .902-2.118l-11.598-7.644z" opacity=".6"/><path fill="#768a38" d="m206.556 232.447 4.948-19.91a1.17 1.17 0 0 1 2.27 0l4.949 19.91a3.54 3.54 0 0 1-1.074 3.495q-2.28 2.04-5.01 2.039t-5.01-2.039a3.54 3.54 0 0 1-1.073-3.495"/><g transform="translate(206.1 211.5)"><mask id="bV" fill="#fff"><use xlink:href="#bU"/></mask><path fill="#63752b" d="M6.435-.588Q14.625 31.189 0 24.127t-4.095 12.358l32.76-4.708-12.87-27.658z" mask="url(#bV)"/></g></g></g><g transform="translate(41.025 193.12)"><mask id="bX" fill="#fff"><use xlink:href="#bW"/></mask><g mask="url(#bX)"><path fill="#8fa955" d="M180.87 244.073 198 247.95a1.17 1.17 0 0 0 .903-2.118l-11.598-7.644z" opacity=".6"/><path fill="#768a38" d="m177.231 239.127 4.948-15.41a1.17 1.17 0 0 1 2.27 0l4.949 15.41a3.54 3.54 0 0 1-1.074 3.495q-2.28 2.04-5.01 2.039t-5.01-2.039a3.54 3.54 0 0 1-1.073-3.495"/><g transform="translate(176.775 222.68)"><mask id="bZ" fill="#fff"><use xlink:href="#bY"/></mask><path fill="#63752b" d="M6.435-5.088Q14.625 26.689 0 19.627t-4.095 12.358l32.76-4.708L15.795-.381z" mask="url(#bZ)"/></g></g></g><g transform="translate(41.025 193.12)"><mask id="cb" fill="#fff"><use xlink:href="#ca"/></mask><g mask="url(#cb)"><path fill="#8fa955" d="M189.87 247.673 207 251.55a1.17 1.17 0 0 0 .903-2.118l-11.598-7.644z" opacity=".6"/><path fill="#60712b" d="m186.231 242.727 4.948-19.91a1.17 1.17 0 0 1 2.27 0l4.949 19.91a3.54 3.54 0 0 1-1.074 3.495q-2.28 2.04-5.01 2.039t-5.01-2.039a3.54 3.54 0 0 1-1.073-3.495"/><g transform="translate(185.775 221.78)"><mask id="cd" fill="#fff"><use xlink:href="#cc"/></mask><path fill="#455418" d="M6.435-.588Q14.625 31.189 0 24.127t-4.095 12.358l32.76-4.708-12.87-27.658z" mask="url(#cd)"/></g></g></g><g transform="translate(41.025 193.12)"><mask id="cf" fill="#fff"><use xlink:href="#ce"/></mask><g mask="url(#cf)"><path fill="#8fa955" d="m202.47 249.473 17.13 3.877a1.17 1.17 0 0 0 .903-2.118l-11.598-7.644z" opacity=".6"/><path fill="#60712b" d="m198.831 244.527 4.948-19.91a1.17 1.17 0 0 1 2.27 0l4.949 19.91a3.54 3.54 0 0 1-1.074 3.495q-2.28 2.04-5.01 2.039t-5.01-2.039a3.54 3.54 0 0 1-1.073-3.495"/><g transform="translate(198.375 223.58)"><mask id="ch" fill="#fff"><use xlink:href="#cg"/></mask><path fill="#455418" d="M6.435-.588Q14.625 31.189 0 24.127t-4.095 12.358l32.76-4.708-12.87-27.658z" mask="url(#ch)"/></g></g></g><g transform="translate(41.025 193.12)"><mask id="cj" fill="#fff"><use xlink:href="#ci"/></mask><path fill="#141414" d="M112.346 86.33c-3.452 14.4-1.935 26.4 11.667 36 20.232 14.4 59.513 15.75 84.532 20.7 4.568.907 11.623-1.374 16.43 0 2.974.85 17.538 2.294 20.5 3.35 9.758 3.482 5.374 11.046 13.153 17.257 6.87 5.485 12.416 12.18 15.665 20.343 9.625 24.75 18.697 24.75 21.07 28.8 2.364 4.05 3 8.1-1.882 11.7q-4.87 3.6-11.812 1.35l-8.633 5.85q14.93.45 16.149-7.2c.801-5.03-5.462-6.697-14.945-20.25-4.981-7.059-6.767-21.92-17.78-32.4-10.306-9.655-23.95-15.547-38.738-19.541a190 190 0 0 0-9.08-2.203c-29.824-6.501-62.357-7.117-80.88-16.056-20.058-9.6-28.331-24.45-24.702-44.55l4.523 4.5z" mask="url(#cj)" opacity=".15" style="mix-blend-mode:multiply"/></g><path fill="#9cb562" d="m179.148 278.95 4.597 1.061 2.121-1.768-1.06-2.475-4.95-1.06z"/><path fill="#f8d763" d="m176.32 276.83 2.828 2.12v-3.535l-1.425-3.536-1.425 1.392z"/><path fill="#b69e4c" d="m181.977 276.83-2.829 2.12v-3.535l-1.414-3.536 2.475-1.06 1.79 2.452z"/><path fill="#9cb562" d="m179.148 287.05 4.597 1.061 2.121-1.768-1.06-2.475-4.95-1.06z"/><path fill="#f8d763" d="m176.32 284.93 2.828 2.12v-3.535l-1.425-3.536-1.425 1.392z"/><path fill="#b69e4c" d="m181.977 284.93-2.829 2.12v-3.535l-1.414-3.536 2.475-1.06 1.79 2.452z"/><path fill="#f5bc2c" d="M147.15 267.75q-3.15 21.6 18.9 36c22.05 14.4 61.2 13.5 87.3 18.45s59.85 16.65 73.8 41.4 20.7 25.2 23.85 29.25 2.406 8.765-.45 13.05c-.419.628-4.05 4.95-9.9 6.3-3.93.907-8.26.749-9.9.45-.801-.146.79-.608 0-.45-1.25.177 10.439-1.326 14.4-3.6.838-.481.9-2.307.9-2.7 0-5.03-6.823-6.698-18.9-20.25-6.291-7.06-10.454-21.92-23.4-32.4-37.8-30.6-104.4-23.4-136.35-37.8q-31.95-14.4-29.25-44.55l3.6 3.6z"/><path fill="#dbb323" d="M344.7 408.028q-2.055.248-6.3-.778l-7.65 4.95q13.05.9 14.943-4.172c.144-.388.676-2.261.357-2.128-.45 1.8-.9 1.8-1.35 2.128"/><path stroke="#f5bc2c" stroke-linecap="round" stroke-linejoin="round" stroke-width="3.24" d="M411.21 378.204s1.037-12.551 12.363-18.798"/><path fill="#fff" fill-rule="nonzero" d="M206.868 320.942q5.392 2.003 9.41 2.408c3.178-.627 2.009-1.211 2.008-3.233-.401.028-2.627-.04-4.42-1.535-.915-1.557-6.422-.922-7.969-.004q-1.546.919.971 2.364m24.677 4.426q8.439 2.43 10.045.813c.604-2.111-.002-4.07-.403-4.043-.4.029-4.636 1.09-6.43-.407-1.607-1.213-4.479-.517-6.026.402q-1.204 2.021 2.814 3.235"/><path fill="#6b6b6b" d="M218.45 320.934q.668-7.746 1.136-18.317c.47-10.57-.91-12.5-1.184-16.938-.274-4.439 3.622-14.438 4.001-20.543.054 3.644.978 22.626 4.805 31.275q3.827 8.649 7.817 25.39 1.41 1.384 2.517 1.445 1.106.06 3.953-1.086-.7-15.756-3.156-22.07c-2.455-6.312-3.594-11.096-3.735-13.111-.141-2.017.503-15.842.965-20.738.449-4.729.88-13.397-1.325-18.954-.077-.195-1.177-.536-1.258-.723q-15.886-2.535-25.996 2.629-.6 25.979 1.28 35.573c1.878 9.596 3.329 18.815 3.385 19.622l1.015 14.518q.521 1.889 1.372 2.336.851.448 4.409-.308z"/><g transform="translate(205 244)"><mask id="cl" fill="#fff"><use xlink:href="#ck"/></mask><path fill="#4f4d4d" d="M10.7 80.1q1.5-23.5 0-32.5c-1.5-9 3-20.5 5-24s5-4.5 6.5-9.5q.865-2.885.732-5.601c-.035-.724-5.208 1.209-13.732.601q-1.917-.136-5.5-3l29-5.5 14.5 91-14.5-10.5q-1-21-5.5-30.5c-4.5-9.5-6.5-20-6-23.5q.5-3.5-3.5-5.5l-2 24.5 3.5 32z" mask="url(#cl)" opacity=".5"/></g><path fill="#e9bf94" d="M209.045 184.277q-1.255 3.16-.402 4.447c.803 1.213 0 2.83.402 3.639.401.808 1.007.666 1.205 1.212q1.606 4.447 5.625 3.235l1.205-9.299z"/><path fill="#6b6b6b" d="M211.857 200.448q2.01-6.065-3.214-16.575c-3.214-6.873 12.053-9.299 17.277-3.234 5.223 6.064 3.214 11.32 1.205 14.554q-2.01 3.234-15.268 5.255"/><path fill="#e08e58" d="M206.673 250.027q11.561 4.055 28.084-1.56c5.876-6.49 2.189-35.91-3.012-48.826-1.417-3.52-2.99-6.126-4.866-6.222-8.75-.442-11.572 1.513-14.46 6.287q-3.204.297-5.747 3.393-3.151 7.615-3.283 11.494c-.132 3.878 2.104 7.052 2.373 10.902q.27 3.85.91 24.532"/><g transform="translate(201 192)"><mask id="cn" fill="#fff"><use xlink:href="#cm"/></mask><path fill="#ac6630" d="M11.2 61.1q-3-9.5 1-11t3.5-31.5q-2.23-6.5-2.865-8C12.2 9.1 21.7 3.1 29.7 5.1q8 2 17.5 8l-7 51z" mask="url(#cn)"/></g><path fill="#c87a47" d="M204.7 206.6c-1.044 5.4 0 6 1.914 16.689q.88 6.828 2.086 10.311l-4.5-5q-2 0-2.777 1t.777 7q7.826 9.55 9.857 9.813c2.033.263 5.414-3.215 4.872-5.204s-2.29-26.992-2.944-30.594c-.655-3.601-2.785-6.515-3.314-7.063s-4.927-2.352-5.971 3.048"/><path fill="#6b6b6b" d="M214.197 207.762Q211.2 200.1 206.7 203.1q.5-2 3.36-2.663 3.952-1.087 6.835 5.6.655 3.602-2.698 1.725"/><path fill="#f8d763" d="M217.81 201.012q13.351-2.325 16.165-2.274c2.812.05 6.567 4.377 5.682 9.212q-1.22.787-.028 1.617c3.18 2.08 3.347 24.634 1.947 28.76-1.4 4.128-19.678 6.02-22.082 5.575-2.404-.449-3.595-1.279-3.929-5.328s-2.83-22.693.84-25.862c-3.963-3.306-2.273-8.127-1.442-9.73q.83-1.602 2.845-1.97z"/><g transform="translate(212.66 198.022)"><mask id="cp" fill="#fff"><use xlink:href="#co"/></mask><path fill="#dcb11c" d="M3.54 15.078q6.5 1.5 10 1.5c3.5 0 8.5-1.5 9.5 1.5s1.5 20 .5 21.5-8.5 3-13 3q-4.5 0-9.5-1l6 19 28-18-3-28.5-5.5-3q-9 2.499-14.5 3t-8.5.5z" mask="url(#cp)"/></g><g transform="translate(212.66 198.022)"><mask id="cr" fill="#fff"><use xlink:href="#cq"/></mask><path fill="#a1a1a1" d="M2.812 14.15q.402 2.425 24.51-3.234 24.105-5.66 0-10.916L8.436-1.617-.803 2.02v6.873l3.615 5.256z" mask="url(#cr)"/></g><g transform="translate(212.66 198.022)"><mask id="ct" fill="#fff"><use xlink:href="#cs"/></mask><path fill="#7c7c7c" d="M2.812 14.15q.402 2.425 24.51-3.234 24.106-5.661.803-2.022-11.087 4.374-19.286 2.426Q.642 9.372-.804 2.02v6.873l3.616 5.256z" mask="url(#ct)"/></g><g transform="translate(212.66 198.022)"><mask id="cv" fill="#fff"><use xlink:href="#cu"/></mask><path fill="#6b6b6b" fill-rule="nonzero" d="M6.027 2.83q6.027-1.213 6.027 36.385 2.009 0 1.607-.809 0-34.767-5.224-35.98zm8.839-1.617Q20.893 0 20.893 37.598q2.01 0 1.607-.809 0-34.767-5.223-35.98l-2.41.404z" mask="url(#cv)"/></g><g transform="translate(212.66 198.022)"><mask id="cx" fill="#fff"><use xlink:href="#cw"/></mask><path fill="#dcb11c" d="M1.607 21.427q6.83.404 8.036 4.043 1.205 3.638 2.41 22.235L-3.213 50.13V33.15q0-.404 4.821-11.723z" mask="url(#cx)"/></g><g transform="translate(212.66 198.022)"><mask id="cz" fill="#fff"><use xlink:href="#cy"/></mask><path fill="#b79416" d="M32.143 18.597q-6.027.404-6.027 5.66 0 5.255-1.607 28.703l11.652-3.234-4.018-31.13z" mask="url(#cz)"/></g><path fill="#d6bda6" d="M102.5 142q-.5-3-2.5-4.5c-2-1.5-.5-2.5 1.5-2.5s6.5-.5 9 2q2.5 2.5-1 3z"/><path fill="#897157" d="M142.5 114Q128 124.5 121 130.5c-7 6-9.5 5-14 8S98.5 145 85.5 151 65 164 67 166s5 6.5 10 4.5S90.5 162 99 159s11-9 14.5-8 3.5 8.5 5.5 9.5 8.5-1 14.5-8c0-4-13-3.5-11-5.5.5-2 4-5.5 9.5-8.5s11.5-12 16.5-13 8-5.5 4-9.5c-1.86-1.86-4.165-3.25-7-3q-1.227.108-3 1"/><g transform="translate(66 112)"><mask id="cB" fill="#fff"><use xlink:href="#cA"/></mask><path fill="#d6bda6" fill-rule="nonzero" d="M2.5 48.5q0 4 4 6c4 2 6 2 9.5 1q3.5-1 5.5 4l-24 1.5-2-8.5zM75 2q7 2 8.5 3.5t3.5 10q7-6.5 7.5-6.75T86.5-1H76zM46 39.5q3.5-1 4 0c.5 1 2 4.5 2.5 4.5s2 1.5 5-1 6.5-3.5 5.5-4.5-9-.5-8-3q1-2.5 4.5-3 12.5 3 13 3c.5 0-5 17-5 17.5q0 .5-35.5 2z" mask="url(#cB)"/></g></g></svg>