<svg height="355" viewBox="0 0 739 355" width="739" xmlns="http://www.w3.org/2000/svg"><g fill="none" fill-rule="evenodd" transform="translate(0 .75)"><g transform="translate(441.8656 47.5575)"><g fill-rule="nonzero"><path d="m241.414372 69.6724821 48.33 1.86c5.08.2 7.85 4.16 6.19 8.86l-24.56 72.3599999c-1.66 4.7-7.19 8.03-12.34 7.45l-49.54-4.66c-5.16-.58-7.46-5.55-5.74-9.98l26.98-69.6299999c1.72-4.43 5.6-6.45 10.68-6.26z" fill="#13181e"/><path d="m236.104372 78.4424821-25.47 65.4299999 51.92 3.67c.892828.061503 1.717836-.477611 2.02-1.32l23.93-65.7999999c.112721-.3010358.073857-.637906-.10445-.9053665-.178307-.2674606-.474316-.4329005-.79555-.4446335l-49.55-1.9c-.851126-.0329625-1.629744.476751-1.94 1.27z" fill="#fff"/><ellipse cx="234.604372" cy="151.082482" fill="#a1bbc5" rx="3" ry="3.79" transform="matrix(.8571673 .51503807 -.51503807 .8571673 111.32242 -99.250677)"/><path d="m111.494372 113.282482 67.08-42.9299999 11.75-1.57c.409952-.0531697.810364.1513885 1.007538.5147204.197174.3633318.150463.8105362-.117538 1.1252796l-7.07 8.35-66.53 42.3099999c-2.45.3-4.23-.44-5.35-2.23-1.102222-1.638451-1.386378-3.693968-.77-5.57z" fill="#fff"/><path d="m117.734372 109.282482 3.07-1.97c.35 2.01.9 3.63 1.68 4.86.942431 1.400269 2.135859 2.614039 3.52 3.58l-2.93 1.86c-1.45-1-2.61-2.16-3.5-3.51-.9-1.35-1.5-2.95-1.84-4.82zm57.8-36.9999999 3.04-1.93c.606225 3.469421 2.651307 6.5206981 5.63 8.4l-3.01 1.91c-1.51-.92-2.76-2.1-3.75-3.56-1-1.45-1.63-3.06-1.9-4.82z" fill="#627f89"/><path d="m162.904372 210.732482 27.86-34.67c.29-13.49.97-21.3 2.05-23.45 1.6-3.22 9.34-16.32 12-18.74s11.77-7.23 13.68-7.7c1.9-.46 10.43-.09 11.2.71.46.5.64 3.36-.8 5.54-1.12168 1.469751-2.800846 2.410663-4.64 2.6-2.85.22-4.52.3-5 .24-4.72 4.1-7.03 6.78-6.94 8.03.15 1.87.15 11.63.5 12.25.23.42 14.17 1.8 41.82 4.16-5.97 14.96-17.76 28.58-35.39 40.87l-39.94 57.1-26.63-26.2 1.87-13.67z" fill="#a5614a"/><path d="m171.404372 200.412482c2.76 16.28 2.23 31.24-1.6 44.9l-16.46-15.07 12.32-23.41z" fill="#5e2918"/><path d="m103.354372 49.0024821c4.2-5.7 5.24-11.15 3.15-16.31-3.15-7.75-4.51-35.24999998-52.2999995-32.49999997-28.52 2.12999999-43.08 26.34999997-41.77 48.79999997.76 13.12 8.28 25.22 12.64 32.04 3.53 5.52 3.53 14.94 2.85 23.2799999-.82 9.96 20.1 19.8 62.75 29.55l2.41-22.48 14.2899995-17.2099999c3.2-3.01 2.92-5.9-.88-8.64-3.8-2.76-3.8-5.98 0-9.68 4.39-.9 6.79-2.53 7.18-4.89.28-1.65.56-6.3-2.9-12.8-1-1.86-3.48-4.92-7.43-9.17z" fill="#a5614a"/><path d="m98.0443725 40.0224821c-3.68-3.85-7.7-5.58-12.08-5.2-4.36.4-8.4 4.1-12.08 11.13 5-2.75 8.85-4.45 11.55-5.1s6.91-.83 12.61-.6m-17.9 10.24c.2.67 2.47.74 6.8.22 6.85-2.26 9.79-3.84 8.8-4.76-.66-.62-6.42.65-9.78 1.59-4.1 1.14-5.86 2.14-5.82 2.94z" fill="#341516"/><path d="m87.3443725 49.9224821c-.43 2.24-.54 7.55 2.06 7.28 2.6-.26 3.55-6.5 1.58-8.22-1.97-1.73-3.2-1.3-3.64.94z" fill="#341516"/><path d="m70.4443725 79.1924821c2.3249635-3.660332 6.4055322-5.825997 10.74-5.7-3.46-2.48-6.25-3.12-8.37-1.9-2.13 1.2-2.92 3.74-2.37 7.6zm26.71-8.85c-.2058613 2.0605454.7847634 4.057334 2.55 5.14l-2.82 1.76c-1.1-.64-1.64-1.97-1.64-4 0-1.45.35-2.55 1.05-3.29.1467134-.1540251.374817-.1983619.5685446-.1105087.1937276.0878533.3106613.2886604.2914554.5005087zm-39.95 37.1499999c10.75 9.81 22.2 15.58 34.32 17.3l1.06-8.4z" fill="#5e2918"/><path d="m156.924372 84.2124821c-.34 3.76-2.7 6.46-7.1 8.11-3.8 7.9999999-6.02 12.1799999-6.66 12.5399999-.65.36-1.14-1.15-1.47-4.53l4.91-9.3699999z" fill="#a1bbc5"/><path d="m29.1043725 101.352482c-.21.22-.32.7-.32 1.43 0 .46 9.78 4.73 29.02 13.5l8.12 3.73c7.62 3.51 19.36 9 35.2399995 16.44-1.04 1.6-1.5699995 5.13-1.5699995 10.6 0 8.23 8.2799995 17.11 16.7099995 29.55 5.62 8.3 9.61 16.32 11.98 24.09l4.91 5.5 3.48 3.86c6.860659 7.679662 13.895827 15.201623 21.1 22.56l.62.62c1.02 1 1.96 1.93 2.83 2.75 6.808774 6.530561 12.857204 13.810146 18.03 21.7-5.297337 9.789265-11.384178 19.130224-18.2 27.93l-.93 1.2 3.21 7.95c-6.18 1.32-11.83 1.7-16.94 1.15-1.05 1.29-2.38 4.88-4 10.78h-65.0199995l-1.56-2.28c-57.91-84.88-82.63000004-134.82-74.21000004-149.8l1.06-1.87c8.66000004-15.21 16.79000004-27.14 24.38000004-35.79l-.06-.69-.05-.7c-.25-3.81-.23-9.6.11-11.74.26-1.62.94-2.44 2.04-2.47z" fill="#fff"/><path d="m66.0043725 161.392482c14.26 14 22.34 29.1 24.24 45.32l.08.68c.24 2.33-4.2-15.01-16-31.35l-.48-.64c1.7202125 11.248763 4.3045266 22.348275 7.73 33.2 5.33 16.7 18.26 30.43 18.26 38.9l1.6699995-.25c6.01-.84 9.27-.98 9.76-.42.54.61-3.08 4.26-10.84 10.95-5.4138661 6.210241-9.6406956 13.362295-12.4699995 21.1-2.82 7.72-4.42 16.99-4.82 27.8h-4.95c.25-14.41 1.6-25.46 4.04-33.13s6.94-14.97 13.5-21.89l-.53-1.52-.53-1.48c-.8912521-2.554306-1.9057755-5.063917-3.04-7.52l-1.4-2.85-1.67-3.38c-5.24-10.53-9.33-18.26-11.44-24.15l-.24-.68c-2.45-7.3-4.1-19.66-4.95-37.1h.08c-9.79-12.32-24.1-23.26-40.2-24.67-12.06-1.05-21.56.06-28.50000004 3.34 1.34-2.34 2.67-4.6 4-6.79l-.27.09c21.11000004-6.92 40.77000004-1.44 58.97000004 16.43zm31.52 116.02c25.8599995 10.17 47.1899995 14.53 63.9699995 13.07l.17.14 1.67 4.14c-3.99.86-7.76 1.32-11.3 1.39l-5.64-.24c-20.02-2.55-35.57-7.58-46.6499995-15.09l-.45-.33-.64-.49c-1.24-.96-1.86-1.57-1.86-1.81 0-.3.24-.57.73-.78zm3.7999995-123.32c2.86 6.37 8.88 13.51 14.98 22.51 5.62 8.3 9.61 16.32 11.98 24.09l4.62 5.17c12.51 13.95 21.77 23.82 27.79 29.62l.53.5c6.808774 6.530561 12.857204 13.810146 18.03 21.7-5.297337 9.789265-11.384178 19.130224-18.2 27.93l-.86 1.1-7.28-15.4-2.08-3.06-3.14-4.55c-6.925138-9.953792-13.898553-19.873909-20.92-29.76l-.49-2.48c-7.7-38.43-16.94-59.75-21.21-68.27l-.52-1.01c-1.293234-2.495026-2.347917-5.106624-3.15-7.8zm-44.4999995 91.23 1.8.82 1.77.8c9.28 4.19 15.86 6.67 19.74 7.45l-26-3zm-29.8-128.65 3.23 2.45 2.76 2.09 1.74 1.3c3.68 2.76 6.74 5 9.18 6.72l1.78 1.24c6.54 4.55 16.06 10.93 28.54 19.15-.84-7.94 2.86-14.8 11.13-20.56l8.28 3.88c-11.72.57-17.71 6.8-17.99 18.7-3.89 1.12-21.2-9.13-51.93-30.74 1.11-1.39 2.22-2.7 3.31-3.95z" fill="#a1bbc5"/><circle cx="108.004372" cy="140.352482" fill="#627f89" r="3"/><path d="m100.424372 257.782482c9.92 5.9 17.81 9.63 23.68 11.18 5.86 1.55 15.23 2.38 28.1 2.5 7.53-23.95 13.53-53.57 18-88.85 3.500564-7.295704 6.093247-14.993152 7.72-22.92 1.56-7.7 3.74-20.34 6.56-37.91.25-3.12.08-5.23-.5-6.33-.6-1.13-1.9-2.09-3.02-2.77-2.535185-1.548005-5.174876-2.917971-7.9-4.1-3.91-1.7-8.46-3.13-8.82-3.13h-1.52c-.06-3.66-2.22-5.7999999-6.46-6.4099999s-7.2 1.8999999-8.84 7.5399999l-3.1 7.7c-.77-6-1.24-10.43-1.4-13.3 2.33-5.0699999 3.68-8.4599999 4.08-10.1799999 6.34-2.25 9.65-4.72 9.94-7.42s-.89-4.19-3.55-4.48c-1.78-.34-6.22 1.15-13.3 4.48-.857246.6149644-1.615929 1.3567876-2.25 2.2-2.78 4.35-6.21 11.4-6.72 13.95-.33 1.6999999-.43 5.8999999-.3 12.6399999l-12 8.16c-.37 9.63 0 17.66 1.11 24.08.6 3.48 2.78 7.11 5.43 11.36 2.24 3.58 6.7 7.98 8.36 11.78.75 1.72-.7 19.5-10.67 45.3-3.38 8.78-10.93 23.75-22.63 44.93z" fill="#a5614a"/><path d="m90.8243725 91.0324821c7.76 2.26 13.9799995 2.26 18.6699995 0-.21 1.08-1.05 2.34-2.52 3.77-1.48 1.44-6.46 1.39-14.9699995-.15zm-41.67-7.54c-7.8-3.34-12.28-9.11-13.44-17.32-1.75-12.32 11.49-12.1 15.2-7.58l.8-1.6c-.2991405-.8402919-.8210844-1.5834571-1.51-2.15-4.26-3-9.57-3.25-13.87-.8-7.75 4.38-3.7 17.72 0 22.62 2.46 3.26 6.13 5.68 11 7.26 1 .23 1.61.32 1.82.27s.2-.28 0-.7z" fill="#5e2918"/><path d="m38.5243725 62.9124821c.53.58 3.64-2.32 4.9-.73-2.77 3.47-2.74 6.82.06 10.07 4.21 4.87 9.7 3.6 9.7 3.4 0-.12-.68-1.16-2.04-3.11-2.34-1.4-2.92-3.4-1.76-6.02 1.76-3.9-1.53-7.38-6.2-7.19-4.66.2-5.12 3.06-4.66 3.58z" fill="#5e2918"/><path d="m140.004372 51.0524821c7.03-6.46 10.03-11.6 9.02-15.43-1.52-5.73-7.52-5.73-9.32-4.72-1.19.67-2.36 1.8-3.5 3.4-3.01-2.27-5.77-2.5-8.27-.68-3.75 2.72-3.21 7.44-.95 10.16 1.5 1.82 5.85 4.24 13.02 7.27z" fill="#f25153"/><path d="m0 15.71c2.2 4.89 3.17 10.77 2.91 17.66l.87-.35c2.03-8.03 2.72-15.15 2.07-21.35zm18.3-9.91c-1.27 7.02-1.78 10.73-1.53 11.13.24.4 1.1-.65 2.57-3.15zm17.06-5.8c-.57 4.42-1.76 9.91-3.55 16.48.02.72.16 1.05.42.98.39-.1 5.72-11.05 5.72-12.4.0141211-2.01063952-.9571037-3.90079235-2.6-5.06zm11.98 7.8c-2.34 9.08-3.23 13.94-2.69 14.58.82.95 6.16-11.96 5.99-13.08-1.0016187-.69301841-2.1192643-1.20103914-3.3-1.5zm40.49 47.24c-.94 4.85-2.7 10.73-5.29 17.63 5.66-5.2 9.09-9.55 10.27-13.04.4-1.2 36.6.86 36.84-.43z" fill="#5e2918" transform="translate(124.9844 100.5025)"/><path d="m75.1743725 78.5524821c2.79 3.75 5.75 5.4 8.89 4.94 4.7-.69 16.0199995-12.82 22.4399995-7.63 1.314721 1.1020145 2.074148 2.7295042 2.074148 4.445s-.759427 3.3429856-2.074148 4.445c-3.84 3.28-12.0699995 4.43-16.9299995 4.74 1.2 3.28 11.3499995 4.8 17.4199995 5.25-.18 2.87.3 7.1199999 1.45 12.7599999 1.71 8.45-8.25 9.06-15.9699995 9.06-7.73 0-19.95-.18-35.28-9.06-1.1421477-4.923368-2.0233759-9.9036432-2.64-14.9199999-1.2-9.88-4.72-36.5-3.64-36.74 1.08-.25 4.76 14.26 8.34 19.25 6.89 9.62 15.78 13.83 18.7 11.5-2.67-2.2-3.6-4.88-2.78-8.04z" fill="#341516"/></g><path d="m241.274372 90.7624821h.14l23.24 1.31c.63411.032868 1.17883.4614343 1.36 1.07l.02.1c.9 3.93 2.25 6.06 3.87 6.58.389643.1227968.712343.3992089.893534.7653649s.205195.790376.066466 1.174635l-9.45 26c-.207583.587655-.756922.985727-1.38 1h-.14l-21.62-1.6-.21-.04c-4.9-1.08-7.68-3.45-7.89-7.1v-.28c0-.11 0-.22.03-.33l.05-.17 9.66-27.4799999c.17-.5.59-.85 1.08-.97l.14-.02zm23.22 7.4-8.45 23.1999999c-.2.56-.74.95-1.34.98h-.14l-20.98-1c.69 1.24 2.23 2.17 4.8 2.78l.22.05 20.38 1.5 8.6-23.66-.16-.1c-1.297187-.962678-2.309647-2.2584886-2.93-3.7499999zm-22.13-4.34-8.61 24.5199999 19.85.95 8.87-24.3399999z" fill="#3d5204"/></g><path d="m49 199.5c7.67 23.17 21 39.08 40 47.75.42.35.67.6.75.75 6.97 12.4 17.3 30.99 31 55.75l.5-63c-4.67-4.33-8.83-10.67-12.5-19-5.5-12.5-7.25-23.25-14-30.25-4.5-4.67-19.75-2-45.75 8z" fill="#fdba86" fill-rule="nonzero"/><path d="m116.14 234.93c1.387616 1.915465 2.9366 3.708673 4.63 5.36l.48.46-.5 63-12.8-23.1c5.55-13.1 8.28-27.89 8.2-44.39zm-34.64-36.18c-.7 5.49-.45 9.9.75 13.25 1.14 3.19 3.84 7.34 8.09 12.46.0815649.104061.0853875.249251.0094114.357459s-.2138357.15392-.3394114.112541c-7.68-2.73-13.51-11.3-17.51-25.68 1.83-3.5 4.83-3.67 9-.5z" fill="#c1621c" fill-rule="nonzero"/><path d="m131.23 240.74c-3.63 2.48-7 5-10.02 7.44-9.82 7.97-15.75 15.1-14.08 17.54" stroke="#fff" stroke-linecap="round" stroke-linejoin="bevel" stroke-width="3.8"/><g fill-rule="nonzero"><path d="m180 68.25c-3.661109 4.3184687-6.233046 9.4520552-7.5 14.97-2.68 12.66-1.04 22.05-1.25 24.53-.24 1.96-1.74 3.67-4 5.75-3.82 3.52-8.96 6.75-8.5 9.5.5 3 3.33 5.25 8.5 6.75.67.33.58 1.33-.25 3-1.25 2.5-2.25 4.25-2 6.25.17 1.33.92 2.17 2.25 2.5-1.67 1.67-2.42 2.92-2.25 3.75.25 1.25 3 4 2.5 6.75s-1.5 9.5 5 12.25c4.33 1.83 11.5 2.5 21.5 2 1.33 20.67-3.33 38.33-14 53h69l-3.75-42c0-15.17 1.58-26.75 4.75-34.75 2.31-5.84 4.78-37.5-20.75-62.25-16.25-15.75-45.6-16.33-49.25-12z" fill="#fdba86"/><path d="m180.43 105.37c.14.25.83.54 2.07.88-.5 3.67-.17 6.33 1 8 1.6 2.28 4.02-4.36 4.44-5.75.02-.1 1.2.47 3.54 1.68.87.31 1.38.25 1.52-.18.36-1.12-2.38-2.87-5.24-4.63-1.479621-.867374-3.085645-1.498312-4.76-1.87-2.25-.5-2.87 1.2-2.57 1.87z" fill="#5f2a19"/><path d="m141.25 181.75c-13.5 3.33-21.17 7.67-23 13-2.75 8 2.25 41.25 1.75 52.25s-3 57.25 2.5 107.25h46.75c-2.508333-16.109185-5.175129-32.193297-8-48.25-2.26-12.3-4.7-21.97-5.75-27.75-3.5-19.25-2.84-32.8-2.5-36 1-9.5 5.25-8.25 12.25-20.25s8.25-17.25 7.75-27.75 2.75-17.5 2.75-17.5 0-2.25-3.75-2.25-7.25 6.75-8 14c-.5 0-.92-.25-1.25-.75-.5-.75-.5-11.25 1.25-16.5 1.17-3.5 3.25-6.5 6.25-9l-2.5-7.5c-5.33 3.33-8.83 6.25-10.5 8.75s-3.25 6.42-4.75 11.75c-2.5-.83-4.75-.58-6.75.75s-3.5 3.25-4.5 5.75z" fill="#fdba86"/><path d="m172 174.5c1.12 0 1.9.2 2.45.48-3.542704 1.337046-5.962368 4.639083-6.17 8.42l-.07.85c-.66 7.19-4.73 21.49-5.71 21-.47-.23.23-3.66.5-7.5.27-3.88-.14-8.16-.06-9.76.3.34.65.51 1.06.51.75-7.25 4.25-14 8-14z" fill="#c1621c"/><path d="m177.25 97.5c-.75 1 .75 3.25 2.75 3.25.9 0 4.65-.03 8.18-.78 4.26-.92 8.32-2.65 8.32-3.47 0-.72-4.46-.28-9 0-4.87.3-9.86.48-10.25 1z" fill="#5f2a19"/><path d="m18.9455987.08861609c1.3162204 1.27616524 2.7720749 2.39992391 4.34 3.35 1.6603117.96078915 3.4845458 1.60503538 5.38 1.9.1169868.01892917.2118668.10495259.2421328.21953096.030266.11457838-.0097549.23623598-.1021328.31046904-2.35 1.96-4.77 2.32-7.27 1.07-2.52-1.26-3.55-3.49-3.1-6.67999999.0157301-.11291755.094105-.20716027.2022624-.24321275.1081574-.03605247.227403-.0076832.3077376.07321274zm-18.83 8.1c2.98.6 5.16.98 6.54 1.16 4.33.56 8.15.68000001 11.34.83000001.32.02.34.04.54.26-.42 2.2-5.87 2.9-16.37 2.06-1.78-.56-2.46-2-2.05-4.31000001zm28.92 29.00000001c2.67 0 6.42-.33 11.25-1-1.1 3.05-2.1 5.3-3 6.75-2.6481293 4.0473648-5.4845772 7.9683369-8.5 11.75.3-3.98.47-6.98.5-9s-.05-4.85-.25-8.5z" fill="#c1621c" transform="translate(164.9644 129.0614)"/><path d="m179.96 68.08c10.73-12.58 25.4-18.88 44.02-18.88 26 .75 48.52 23.8 50.52 47.55 1.33 15.83-2.5 31-11.5 45.5-11.67 4.83-30.92 7-57.75 6.5 4.17-22 4.83-39.17 2-51.5-15.67-8.17-24.76-17.89-27.3-29.17z" fill="#a5614a"/><path d="m226.18 112.15.1 1.12c.43 4.96.6 9.23.67 12.47l.08 4.6c.02 1.35.04 2.67.04 3.94v.94c-.01 5.72-.26 10.45-.65 13.3-1.77.08-3.58.15-5.45.2.53-3.56 1-7.27 1.4-11.14l.26-2.61c.53-5.57 1.18-13.67 1.93-24.3.92-.66 1.46-.16 1.62 1.48zm13.76-.47c1.34 4.71 1.73 11.1 1.83 15.84.12 5.02-.3 11.66-1.26 19.9-1.48.17-3.01.33-4.59.47.87-4.08 1.5-8.24 1.9-12.49l.1-1.04c.44-5.05.84-12.61 1.19-22.68.44-.37.72-.37.83 0zm12.14 3.88c.6 0 1.02.77 1.07 1.05.78 4.05 1.41 8.55 1.64 11.7l.03.44c.21 3.53.04 9.12-.54 16.78l.04-.5c-1.28.3-2.61.6-4 .88.35-3.33.67-6.96.96-10.89l.08-1.08c.32-4.44.46-10.34.4-17.71 0-.45.11-.67.32-.67zm-44.83-18.31c3.917683 2.3934634 8.272061 3.98429 12.81 4.68 4.36.64 9.88.95 16.56.95.11.46-.14.82-.75 1.09-3.425994 1.325257-7.077296 1.970603-10.75 1.9l-.88-.05c-2.18-.15-5.1-.4-7.44-.88-2.973959-.585189-5.872323-1.504346-8.64-2.74-.22-1.53-.48-3-.79-4.4zm-15.19-39.7.29.6c4.75 9.74 12.47 17.7 23.16 23.87 9.27 5.35 19.01 7.69 29.23 7l.67-.05c.253022-.010947.474271.1690174.515079.4189667.040808.2499494-.111714.4909375-.355079.5610333-10.93 2.9-21.27 2.03-31.03-2.64-11.26-5.4-20.19-14.3-26.8-26.72 1.385962-1.0849317 2.827948-2.0963246 4.32-3.03z" fill="#5e2919"/><path d="m180.75 217.5c22.5-4.33 44-17.75 64.5-40.25.33 10.33 5.67 21.92 16 34.75s-5.08 60.25-46.25 142.25h-46.5c-5.83-15.5-9.5-37.25-11-65.25-2.83-14-4.33-24.42-4.5-31.25 11.17-15 20.42-28.42 27.75-40.25z" fill="#a1bbc5"/><path d="m255.5 214.25.26.31c2.2 2.7 1.61 2.76-1.76.19-19-13.25-46.5-5-53.5 22.25-4.67 18.17-2.67 36.17 6 54-10.67-9-15.75-21.75-15.25-38.25-3.33 7-7 12.67-11 17l-.8.85c-12.94 13.7-18.63 15.13-15.2 38.9 2.120589 15.125553 5.975986 29.956584 11.49 44.2l.21.55h-7.45c-5.83-15.5-9.5-37.25-11-65.25l-.19-.94.11-.75c.9-5.87 2.05-8.8 7.58-14.06 5.25-5.25 7.7-4.6 13-10.25 6.56-7.5 10.9-15.95 14.94-24.1l2-4.05c5.82-11.74 11.62-22.4 23.31-28.1 14-6.83 26.42-4.33 37.25 7.5zm-68.25 56c1 0 .25 18 19 43.5l.25 10.5c-12.67-13-19.58-29.83-20.75-50.5.25-2.25.5-3.5 1.5-3.5zm58-93c.07 2.1.34 4.26.83 6.47-3.49 5.94-14.27 14.28-32.33 25.03-12.95 7.7-24.98 12.25-36.08 13.63 1.038818-1.618966 2.065513-3.245678 3.08-4.88 22.5-4.33 44-17.75 64.5-40.25z" fill="#627e89"/><path d="m152.5 245s-9.25 15.25-33.5 25.75v-5.25c5.4-2.3 9.48-4.3 12.25-6 7.333621-4.455926 14.42683-9.295998 21.25-14.5z" fill="#c1621c"/></g><path d="m107.13 265.72c2.18 3.2 16.51-2.82 32-13.43 4.871996-3.308899 9.537348-6.912274 13.97-10.79" stroke="#fff" stroke-linecap="round" stroke-linejoin="bevel" stroke-width="3.8"/><path d="m0 122c21.83 5.5 41.08 5.5 57.75 0l40.75 69.25c-12.17 8.17-29.25 11.67-51.25 10.5z" fill="#fff" fill-rule="nonzero"/><path d="m65.25 182.5c.25 1.75 1.5 5.25 11.5 8.5 2.33 4.17 3.92 6.75 4.75 7.75 9.04-.83 12.79-2.16 11.25-4-1.83-2.19-6.37-8.9-8.25-10-4.25-2.5-13.75-5.5-16.25-5.5s-3.25 1.5-3 3.25z" fill="#fdba86" fill-rule="nonzero"/><path d="m19.63 140.35-2.52-3.37 2.93.1c9.78.28 17.18.25 22.22-.1 5.52-.38 10.49-1.19 14.9-2.42l1.67 2.76c-5.0677903 1.439557-10.2671114 2.367528-15.52 2.77l-.8.06c-5.32.36-12.95.43-22.88.2zm5.2 8.5-2.52-3.37 2.26.05c10.08.22 17.7.15 22.84-.2 5.041062-.309271 10.0443428-1.068966 14.95-2.27l1.67 2.76c-5.098271 1.333137-10.3057716 2.206632-15.56 2.61l-.8.06c-5.33.37-12.94.5-22.84.36zm4.93 8.5-2.51-3.38 3 .06c9.29.17 16.43.09 21.43-.26 5.1897785-.329496 10.3381855-1.136236 15.38-2.41l1.67 2.76c-5.2382961 1.402745-10.5939551 2.323249-16 2.75l-.86.07c-5.3.37-12.67.5-22.1.4zm5.2 8.5-2.51-3.38 3 .06c9.29.17 16.43.09 21.43-.26 5.1178223-.311999 10.1836353-1.204388 15.1-2.66l1.95 3.01c-5.2382961 1.402745-10.5939551 2.323249-16 2.75l-.86.07c-5.3.37-12.67.5-22.1.4zm5 8.6-2.51-3.38 3 .06c9.29.17 16.43.09 21.43-.26 5.1178223-.311999 10.1836353-1.204388 15.1-2.66l1.95 3.01c-5.2382961 1.402745-10.5939551 2.323249-16 2.75l-.86.07c-5.3.37-12.67.5-22.1.4z" fill="#bdcdd4" fill-rule="nonzero"/><path d="m39.96 174.45-2.51-3.38 2.92.06 4.58.07 2.45 3.27h-4.22l-3.22-.03zm32.02-14.84 1.95 3.01c-3 .8-6 1.44-9 1.92l-1.84-2.94c3.0081895-.444076 5.9795678-1.10921 8.89-1.99zm-20.77-5.81 1.96 3.04-.43.03c-3.66.29-8.4.45-14.21.5l-2.12-3.26h2.14c5.12.01 9.34-.1 12.66-.31zm-.2-8.79 1.94 2.96c-2.9036815.37601-5.8236832.612947-8.75.71l-1.98-3.11c2.938863-.08622 5.8739142-.272996 8.8-.56zm-31.38-4.66-2.52-3.37 2.83.1c2.5728507.074517 5.1462712.127852 7.72.16l2.05 3.25-1.7-.01c-2.58-.02-5.38-.06-8.38-.13z" fill="#f25153" fill-rule="nonzero"/><g transform="translate(180.99)"><path d="m130.26 74c-1-1.83-3-2.5-6-2-4.5.75-4.75 8.5-4.25 16.25s2.75 12.25 6.75 16c2.67 2.5 5.33 3.67 8 3.5z" fill="#febb87" fill-rule="nonzero"/><path d="m119.88 81c-.05 1.02-.06 2.1-.05 3.2 2.18-2.95 4.93-2.45 5.68-1.45-5 3.75-2.5 15.25 6 16 3.75-.25-1.5-2.25-1.75-7.75-.18-.84 1-4 .25-7-.4-1.43-2.54-4.62-4.75-5.25-2.62-.74-5.38 2.15-5.38 2.25z" fill="#c1621c" fill-rule="nonzero"/><path d="m238.33 74c1-1.83 3-2.5 6-2 4.5.75 4.75 8.5 4.25 16.25s-2.75 12.25-6.75 16c-2.67 2.5-5.67 3.67-9 3.5z" fill="#febb87" fill-rule="nonzero"/><path d="m248.71 81c.05 1.02.06 2.1.04 3.2-2.17-2.95-4.92-2.45-5.67-1.45 5 3.75 2.5 15.25-6 16-3.75-.25 1.5-2.25 1.75-7.75.18-.84-1-4-.25-7 .4-1.43 2.54-4.62 4.75-5.25 2.61-.74 5.37 2.15 5.38 2.25z" fill="#c1621c" fill-rule="nonzero"/><path d="m146.76 139.75c1.07 7.99 1.65 13.57 1.75 16.75.3 9.75-1.38 16.12-5.75 19.25-9.75 7-20 8.25-23.5 10-2.33 1.17 19.25 22.75 64.75 64.75l64.75-64.75c-9.67-2.83-17.58-6.17-23.75-10-3.84-2.39-4.98-8.76-5-17.5 0-3.52.4-9.69 1.25-18.5z" fill="#febb87" fill-rule="nonzero"/><path d="m21.51 295.5 27.79 58.75h-49.3l8.76-27c-1.48-14.15 2.64-24.64 12.36-31.48zm324.75-1c8.67 6.67 13 17.5 13 32.5l8.8 27.25h-46.55z" fill="#3d5204"/><path d="m134.01 179.25c-23.67 8.17-43.08 15.83-58.25 23-22.75 10.75-31.5 29.25-44.75 63-4.62 11.76-6 17-9.5 30.25.76 19.44 12.97 37.6 19 45.25-12.67-9.5-21.58-22-26.75-37.5-4.67 6.17-6.33 14.17-5 24 5.5 11.67 11.92 20.67 19.25 27h311.5c20.83-17.33 25.67-34.33 14.5-51-3.5 13.83-12.17 26.08-26 36.75 13.55-19.82 19.72-35.16 18.5-46-2-17.75-22-60.5-29.25-71.5-11.8-17.9-33.68-23.95-44.75-28.75-6.65-2.88-19.57-7.72-38.75-14.5-9.33 21-25.92 31.5-49.75 31.5s-40.5-10.5-50-31.5z" fill="#99ca13"/><path d="m233.76 179.25 7.73 2.75c-2.02 5-4.74 9.68-8.06 13.9l.43.1.97.4c31.88 12.91 49.31 20.11 52.28 21.6 4.5 2.25 10.25 6.75 14.25 11.75 2.35 2.93 4.24 6.83 5.68 11.7 3.651653-5.587978 7.684566-10.917303 12.07-15.95l3.5 6.5-.65.86c-13.10798 17.551473-22.034892 37.864474-26.1 59.39h-7.75l.14-1.02c2.112631-15.241883 7.144486-29.933407 14.82-43.27l.02.14-.05-.42c-1.23-8.87-4.9-15.9-11.04-21.1l-.39-.33c-4.2-3.45-14.84-8.22-31-14.75-5.74-2.32-15.86-6.29-30.34-11.9-11.18 12.05-27.54 19.65-45.76 19.65-18.32 0-34.75-7.68-45.93-19.83l.43-.17c-10.441662 4.019281-20.858525 8.102692-31.25 12.25-16.16 6.53-26.8 11.3-31 14.75-6.37 5.22-10.18 12.37-11.43 21.43l-.05.42.02-.14c1.0023269 1.756845 1.9626001 3.537352 2.88 5.34l.11.21c.5069431.99994 1.0003216 2.006699 1.48 3.02l.25.54c.4105471.881871.8105755 1.7686 1.2 2.66l.16.36c2.631963 6.074787 4.7591527 12.356017 6.36 18.78l.09.34.01.05c.23.93.44 1.87.65 2.8l.07.33c.3974771 1.847993.7509105 3.705186 1.06 5.57l.07.4c.1548056.954913.2981492 1.911648.43 2.87l.02.1.06.46.06.46h-7.75c-4.0651077-21.525526-12.9920199-41.838527-26.1-59.39l-.65-.86 3.5-6.5.13.15.03.04.1.11.15.17.11.13.13.15.16.2.12.13 1.64 1.95.11.15.12.14c.7611042.927721 1.5111572 1.864454 2.25 2.81l.24.3c2.3869466 3.080983 4.6487812 6.256892 6.78 9.52l.1-.37c.5770068-1.916463 1.2853502-3.7909 2.12-5.61l.07-.15c.5896946-1.254064 1.2576798-2.469797 2-3.64.258642-.40101.5287535-.794506.81-1.18l.3-.39.28-.36c4-5 9.75-9.5 14.25-11.75 1.66-.83 7.82-3.44 18.48-7.83 8.44-3.47 19.7-8.07 33.8-13.78l.97-.39.98-.23c-3.378122-4.318172-6.116269-9.100666-8.13-14.2l6.65-2.32c9.5 21 26.17 31.5 50 31.5s40.42-10.5 49.75-31.5z" fill="#3d5204"/><g fill-rule="nonzero"><path d="m131.01 83c3.33 26.33 6.83 43 10.5 50 5.5 10.5 28 29.5 42.5 29.5s37.5-19.25 42.75-29.5c3.5-6.83 7-23.5 10.5-50 2.83-44.17-14.92-66.25-53.25-66.25s-56 22.08-53 66.25z" fill="#febb87"/><path d="m146.76 140.25c14.83 14.83 27.25 22.25 37.25 22.25s22.5-7.42 37.5-22.25c-2.17 5.43-4 9.35-5.5 11.75-9.53 15.27-20.94 23.25-32 23.25-11.18 0-22.24-7.63-31.75-23.25-1.41-2.32-3.24-6.23-5.5-11.75z" fill="#c1621c"/><path d="m237.26 83c2.17-18.33 2.42-33.08.75-44.25-2.5-16.75-18.25-26-24.75-28-4.064733-1.28006162-8.255608-2.11823659-12.5-2.5-3.83-5.5-9.42-8.25-16.75-8.25s-12.83 2.75-16.5 8.25c-10.83.33-20.17 4.42-28 12.25-6.25 6.25-8.2 10.65-9.75 19.5-1.26 7.14-.84 21.48 1.25 43 .17 1.5.58 2 1.25 1.5 1-.75 8.25-20.5 11-25s-.75-13.25-2.5-19.5c12.17 3.5 26.58 5.25 43.25 5.25 25 0 43.25-5.25 43.25-5.25-2.25 7-4.5 15-3 19.5s4.5 6.25 11 23.5c.83 1.67 1.5 1.67 2 0z" fill="#13181e"/><path d="m15.1959457 47.7v.07c-.0442584 1.2229065-.3839341 2.4169181-.99 3.48l.03-.05c-3.45-2.24-8.16999997-3.46-14.16999997-3.67-.07-2.46-.08-4.71-.05-6.74 5.17.97 10.22999997 3.28 15.17999997 6.91zm29.21-11.2.13.26-3.63-.2.3.44c-7.74-11.6-10.8-23.71-9.2-36.32 2.09-.39 4.24-.61 6.45-.68l-.4.01c-1.89 12.24.23 24.4 6.35 36.5zm-15.12-1.17.09.06c-1.96-.26-3.88-.56-5.75-.9-6.36-4.87-10.58-12.46-12.64-22.76 1.7261885-1.6808324 3.5855928-3.21918853 5.56-4.6.67 12.68 4.92 22.08 12.74 28.2zm80.5900003 5.83v-.24c-5.17 1.09-10.2400003 3.51-15.2000003 7.27.0162193 1.2516785.253186 2.4906756.7 3.66 3.43-2.59 8.3000003-4.02 14.6200003-4.3 0-2.22-.03-4.35-.12-6.4zm-43.7500003-4.65-.08.15 3.68-.26c7.37-11.31 10.32-23.1 8.85-35.36-2.07-.44-4.1-.77-6.09-.96 1.88 12.2-.24 24.35-6.36 36.43zm15.47-1.46c2.1-.3 4.04-.62 5.8-.93 5.97-4.8 9.98-12.06 12.04-21.8-1.6923872-1.7076811-3.5255263-3.26986351-5.48-4.67-.75 12.23-4.87 21.37-12.36 27.4z" fill="#576c77" transform="translate(129.0541 8.25)"/><g transform="translate(207.15 211.5337)"><path d="m32.36 33.2163133c-15.5 0-23.75 1.5-30.5 4.75-2.25 5.75-2.5 26.5-.5 42.75h62.5c-2-15.17-4.92-27.75-8.75-37.75-5.75-15-9.75-17-12-28-2.25-10.99999995-1.75-13.24999995-2.25-14.24999995s-7.75-1.75-9.75 3.5c-3.75 9.99999995-2.25 21.74999995 1.25 28.99999995z" fill="#febb87"/><path d="m32.36 7.5c3 0 6.42.25 10.25.75-4-4.83-8.25-7.58-12.75-8.25.5288439 2.59139891 1.3682357 5.10957456 2.5 7.5zm-32.36 22c4.6-.76 8.64-1.25 12.11-1.5 6.52-.46 14.9-.54 25-1 1.5-.17 2.25-.5 2.25-1 0-.75-3.25-3-13.25-3.25s-20.42.75-25.92 1.5c-.1 1.83-.15 3.58-.19 5.24zm.48 16.27c8.92-1.51 19.21-2.02 30.88-1.52 17.5.75 3.5-4.25-2.75-4.75s-16.4-1.15-28.4 1.35c.06703725 1.6411796.15704607 3.2813403.27 4.92z" fill="#c1621c" transform="translate(0 25.7163)"/></g><g transform="translate(145.51 66.75)"><path d="m42.75 16.5v16c4.33 4.33 3.75 8.83-1.75 13.5-1 1-.75 1.5.75 1.5 2.25 0 7.25-4.25 8.25-7.75s0-6.5-2.75-10.5-2.5-16-1.5-17.75c.67-1.17 1.17-1.67 1.5-1.5.57.99 1.15 1.65 1.75 2s1.6.6 3 .75l10.25-5.25 10 4.5c.7572691.0063601 1.512597-.0775652 2.25-.25 1.66-.56 2.25-1.38 2.25-1.75 0-.5-1.92-3-5.75-7.5l-8.25-2.5-7 1-5 3-3.5 3.5-3.5 5.25-4.75-1.75-3.5.5-3 1.25-1.75-2.75-9.5-9.5-9-.5-10.25 5.5-2 3.75c.67 2 2.17 2.92 4.5 2.75 1.33 0 5.17-1.5 11.5-4.5l8.75 5c2.17.17 3.67-.5 4.5-2 .17-.33.67.42 1.5 2.25l2.25 1.25 1.75-1.25 4-.75 4 2z" fill="#c1621c"/><g fill="#13181e" transform="translate(4.9727 5.75)"><ellipse cx="56.977331" cy="7.75" rx="5.45" ry="5"/><ellipse cx="10.377331" cy="7.75" rx="5.45" ry="5"/><path d="m.06733108 5.57c2.22-3.55 5.62-5.32 10.21000002-5.32 5.06 0 8.46 2.32 10.2 6.97.0812797.21310165.0080491.45419906-.1780203.58609635s-.4378142.12116226-.6119797-.02609635c-2.6081204-2.27331062-5.9501988-3.52703397-9.41-3.53-3.44000002 0-6.63000002.68-9.58000002 2.03-.19802898.08505609-.42827585.03364801-.57132032-.12756085-.14304447-.16120885-.16669288-.39593669-.05867968-.58243915zm46.60000002 1.84c1.46-4.94 4.92-7.41 10.36-7.41 4.78 0 8.22 1.94 10.32 5.82.1030388.19299595.0686385.43056843-.0849118.5864105-.1535502.15584207-.390587.19375798-.5850882.0935895-2.9664713-1.60321633-6.2782426-2.4611882-9.65-2.5-3.25 0-6.44 1.31-9.57 3.94-.1696965.14310468-.4134262.15719304-.5984811.03459412-.185055-.12259891-.267123-.35252823-.2015189-.56459412z"/></g></g><path d="m207.81 64.25c10.297096.001469 18.855957 7.9327962 19.64 18.2h2.56c.994113-.0414214 1.833579.7308875 1.875 1.725s-.730887 1.8335786-1.725 1.875h-2.76c-1.157037 10.8192582-10.865742 18.652037-21.685 17.495s-18.652037-10.8657418-17.495-21.685c-1.26-1.58-2.63-2.31-4.21-2.31-1.54 0-2.89.7-4.12 2.2.768121 6.9970468-2.254985 13.8723724-7.930545 18.0361083-5.67556 4.1637357-13.14132 4.9833107-19.585001 2.1499997-6.44368-2.8333108-10.886333-8.8890612-11.654454-15.886108h-2.21c-.994113.0414214-1.833579-.7308875-1.875-1.725s.730887-1.8335786 1.725-1.875h2.31c.711218-9.339486 7.900129-16.8868472 17.19399-18.0513091 9.293862-1.1644619 18.122593 4.3759904 21.11601 13.2513091 1.441731-1.1088287 3.211198-1.7068592 5.03-1.7 1.89 0 3.6.6 5.1 1.76 2.686293-8.0440859 10.219231-13.4661897 18.7-13.46zm0 4c-5.60907 0-10.792064 2.9924029-13.596599 7.8499999-2.804535 4.8575969-2.804535 10.8424033 0 15.7000002 2.804535 4.857597 7.987529 7.8499999 13.596599 7.8499999 8.67087 0 15.7-7.0291296 15.7-15.7s-7.02913-15.7-15.7-15.7zm-47.5 0c-5.60907 0-10.792064 2.9924029-13.596599 7.8499999-2.804535 4.8575969-2.804535 10.8424033 0 15.7000002 2.804535 4.857597 7.987529 7.8499999 13.596599 7.8499999 8.67087 0 15.7-7.0291296 15.7-15.7s-7.02913-15.7-15.7-15.7z" fill="#13181e"/><path d="m202.18 123.32c-5.78641 1.404631-11.715707 2.136145-17.67 2.18-5.65 0-11.9-.74-18.73-2.22-.207077-.046423-.4209.042932-.533375.222891-.112474.179959-.099095.411315.033375.577109 3.55 4.45 9.96 6.67 19.23 6.67 8.6-.15 14.66-2.36 18.17-6.63.13247-.165794.145849-.39715.033375-.577109-.112475-.179959-.326298-.269314-.533375-.222891z" fill="#c1621c"/><g transform="translate(60.01 292.25)"><path d="m4 0h240c2.209139 0 4 1.790861 4 4v58h-248v-58c0-2.209139 1.790861-4 4-4z" fill="#79939d"/><rect fill="#a1bbc6" height="5" rx="2.5" width="242" x="3" y="4"/><path d="m124 37.999999c13.75352-.0036585 25.311831 10.3316419 26.84 24h-53.68c1.5281685-13.6683581 13.08648-24.0036585 26.84-24z" fill="#fff"/></g></g></g></g></svg>