<svg height="130" viewBox="0 0 130 130" width="130" xmlns="http://www.w3.org/2000/svg"><g fill="none" fill-rule="evenodd"><g transform="matrix(.70710678 -.70710678 .70710678 .70710678 6.993097 59.033747)"><path d="m49.2776975-4.38726243c1.9882251 0 3.6 1.6117749 3.6 3.6v82.80000003c0 1.9882251-1.6117749 3.6-3.6 3.6h-16.8c-1.9882251 0-3.6-1.6117749-3.6-3.6v-82.80000003c0-1.9882251 1.6117749-3.6 3.6-3.6zm-8.2776975 77.38726243c-2.209139 0-4 1.790861-4 4s1.790861 4 4 4 4-1.790861 4-4-1.790861-4-4-4z" fill="#e3e6e6"/><g fill="#989b9b"><path d="m28.8776975 5.61273757h16.5c.8284271 0 1.5.67157288 1.5 1.5 0 .82842713-.6715729 1.5-1.5 1.5h-16.5z"/><path d="m28.8776975 11.6127376h8.5c.8284271 0 1.5.6715728 1.5 1.5 0 .8284271-.6715729 1.5-1.5 1.5h-8.5z"/><path d="m28.8776975 17.6127376h8.5c.8284271 0 1.5.6715728 1.5 1.5 0 .8284271-.6715729 1.5-1.5 1.5h-8.5z"/><path d="m28.8776975 23.6127376h8.5c.8284271 0 1.5.6715728 1.5 1.5 0 .8284271-.6715729 1.5-1.5 1.5h-8.5z"/><path d="m28.8776975 29.6127376h8.5c.8284271 0 1.5.6715728 1.5 1.5 0 .8284271-.6715729 1.5-1.5 1.5h-8.5z"/><path d="m28.8776975 35.6127376h8.5c.8284271 0 1.5.6715728 1.5 1.5 0 .8284271-.6715729 1.5-1.5 1.5h-8.5z"/><path d="m28.8776975 41.6127376h8.5c.8284271 0 1.5.6715728 1.5 1.5 0 .8284271-.6715729 1.5-1.5 1.5h-8.5z"/><path d="m28.8776975 47.6127376h8.5c.8284271 0 1.5.6715728 1.5 1.5 0 .8284271-.6715729 1.5-1.5 1.5h-8.5z"/><path d="m28.8776975 53.6127376h8.5c.8284271 0 1.5.6715728 1.5 1.5 0 .8284271-.6715729 1.5-1.5 1.5h-8.5z"/></g><path d="m28.8776975 50.6127376h24v7h-24z" fill="#bdc1c1"/><path d="m28.8776975 59.6127376h8.5c.8284271 0 1.5.6715728 1.5 1.5 0 .8284271-.6715729 1.5-1.5 1.5h-8.5z" fill="#989b9b"/><path d="m28.8776975 65.6127376h8.5c.8284271 0 1.5.6715728 1.5 1.5 0 .8284271-.6715729 1.5-1.5 1.5h-8.5z" fill="#989b9b"/></g><path d="m85.57 22.504c1.4038002-1.4031625 3.6784431-1.4053991 5.085-.005l11.523 11.523c1.400123 1.4068324 1.397439 3.6814757-.006 5.085l-51.581 51.582c-1.406 1.405-4.118 2.866-6.072 3.266l-17.399 3.558 3.594-17.363c.403-1.943 1.874-4.664 3.274-6.064z" fill="#feda84"/><path d="m85.572 22.502c1.403666-1.4023791 3.6776796-1.4037213 5.083-.003l11.523 11.523c1.402261 1.4042942 1.400918 3.6793623-.003 5.082l-5.29 5.29-16.601-16.604 5.29-5.29z" fill="#edac01"/><path d="m6.77389322 20.2208932c.77319865 0 1.4.6268014 1.4 1.4v53.367c0 .7731987-.62680135 1.4-1.4 1.4s-1.4-.6268013-1.4-1.4v-53.367c0-.7731986.62680135-1.4 1.4-1.4zm5.41899998 0c.7731987 0 1.4.6268014 1.4 1.4v53.367c0 .7731987-.6268013 1.4-1.4 1.4-.7731986 0-1.4-.6268013-1.4-1.4v-53.367c0-.7731986.6268014-1.4 1.4-1.4zm5.418 0c.7731987 0 1.4.6268014 1.4 1.4v53.367c0 .7731987-.6268013 1.4-1.4 1.4-.7731986 0-1.4-.6268013-1.4-1.4v-53.367c0-.7731986.6268014-1.4 1.4-1.4z" fill="#edac01" transform="matrix(.70710678 .70710678 -.70710678 .70710678 88.0867 19.049918)"/><path d="m28.7 97.175 6.743-1.556-6.386-6.385-1.555 6.742c-.0778079.3360175.0230355.6884132.2668209.9324019s.5960969.3451258.9321791.2675981z" fill="#63300e" fill-rule="nonzero"/></g></svg>