<svg height="130" viewBox="0 0 130 130" width="130" xmlns="http://www.w3.org/2000/svg"><g fill="none" fill-rule="evenodd"><g transform="translate(4 27)"><path d="m11.9999999 6.676c0-1.77101323.7032862-3.46953737 1.9557692-4.72164528s2.9512178-1.9551507 4.7222309-1.9543554h84.644c1.771013-.0007953 3.469748.70224749 4.722231 1.9543554s1.955769 2.95063205 1.955769 4.72164528v59.3239993h-98.0000001z" fill="#fff" fill-rule="nonzero"/><path d="m13.6199999 64.38h94.7600001v-57.704c0-1.34136256-.532608-2.62783342-1.481282-3.57613243-.948674-.948299-2.235356-1.48066366-3.576718-1.47986846h-84.644c-1.3413623-.0007952-2.6280439.53156946-3.576718 1.47986846-.9486741.94829901-1.4812821 2.23476987-1.4812821 3.57613243z" stroke="#63300e" stroke-width="3.24"/></g><path d="m11 101h108c3.865993 0 7-3.1340068 7-7v-1h-122v1c0 3.8659932 3.13400675 7 7 7z" fill="#edac01"/><g fill-rule="nonzero"><path d="m25.999999 39.81c0-1.117.903001-2.023 2.026001-2.023h73.948c1.116996 0 2.0225.9055041 2.0225 2.0225s-.905504 2.0225089-2.0225 2.0225089h-73.948c-.5371229.0015868-1.0527646-.2108041-1.4329446-.5902336-.38018-.3794294-.5930564-.8946503-.5930564-1.4317753zm-.0000012 8.09c0-1.117.9030022-2.022 2.0260022-2.022h73.948c1.116996 0 2.0225.9055041 2.0225 2.0225s-.905504 2.0225089-2.0225 2.0225089h-73.948c-.5372964.0015876-1.0530902-.2109404-1.4332992-.5905864s-.5935011-.8951243-.592703-1.4324225zm.0000012 8.09c0-1.117.903001-2.022 2.026001-2.022h73.948c1.116996 0 2.0225.9055041 2.0225 2.0225s-.905504 2.0225089-2.0225 2.0225089h-73.948c-.5371229.0015868-1.0527646-.2108041-1.4329446-.5902336-.38018-.3794294-.5930564-.8946503-.5930564-1.4317753zm0 8.09c0-1.116.903001-2.022 2.026001-2.022h73.948c.72257 0 1.390252.3854863 1.751536 1.01125.361285.6257637.361285 1.3967363 0 2.0225-.361284.6257637-1.028966 1.0112589-1.751536 1.0112589h-73.948c-.5371229.0015868-1.0527646-.2108041-1.4329446-.5902336-.38018-.3794294-.5930564-.8946503-.5930564-1.4317753zm-.000003 8.091c0-1.117.903004-2.022 2.026004-2.022h73.948c1.116996 0 2.0225.9055041 2.0225 2.0225s-.905504 2.0225089-2.0225 2.0225089h-73.948c-.53747.0015886-1.0534162-.2110765-1.4336541-.5909391-.380238-.3798626-.5934126-.8955985-.5923499-1.4330698zm.000003 8.09c0-1.116.903001-2.022 2.026001-2.022h73.948c1.116996 0 2.0225.9055041 2.0225 2.0225s-.905504 2.0225089-2.0225 2.0225089h-73.948c-.5371229.0015868-1.0527646-.2108041-1.4329446-.5902336-.38018-.3794294-.5930564-.8946503-.5930564-1.4317753z" fill="#ececec"/><path d="m32.413 37.787h21.391v4.045h-21.391zm26.74 8.09h6.684v4.046h-6.685v-4.045zm-1.339 24.273h6.686v4.045h-6.685v-4.045zm-18.716-24.272h2.674v4.045h-2.674zm53.478 24.27h2.674v4.046h-2.674v-4.045zm-18.716 8.092h2.674v4.045h-2.674zm5.348-40.452h2.673v4.045h-2.673zm0 24.271h2.673v4.045h-2.673zm-38.772 0h29.413v4.045h-29.414v-4.045zm-2.676 16.181h16.043v4.045h-16.042v-4.045z" fill="#f25153"/></g></g></svg>