<svg height="130" viewBox="0 0 130 130" width="130" xmlns="http://www.w3.org/2000/svg"><g fill="none" fill-rule="evenodd" transform="translate(24 22)"><path d="m1.864 21.715h78.273v8.376h-78.273z" fill="#63300e" fill-rule="nonzero"/><rect fill="#eae8e2" fill-rule="nonzero" height="36.296" rx="4.65" width="57.773" x="12.114"/><path d="m16.7715 5.584h48.457c.513901 0 .9305.41659904.9305.9305s-.416599.9305-.9305.9305h-48.457c-.513901 0-.9305-.41659904-.9305-.9305s.416599-.9305.9305-.9305zm0 4.653h48.457c.513901 0 .9305.416599.9305.9305s-.416599.9305-.9305.9305h-48.457c-.513901 0-.9305-.416599-.9305-.9305s.416599-.9305.9305-.9305zm0 4.964h48.457c.513901 0 .9305.416599.9305.9305s-.416599.9305-.9305.9305h-48.457c-.513901 0-.9305-.416599-.9305-.9305s.416599-.9305.9305-.9305zm0 4.653h13.048c.513901 0 .9305.416599.9305.9305s-.416599.9305-.9305.9305h-13.048c-.513901 0-.9305-.416599-.9305-.9305s.416599-.9305.9305-.9305z" fill="#63300e"/><rect fill="#451f0c" fill-rule="nonzero" height="11.168" rx="1.3975" width="2.795" y="19.854"/><rect fill="#451f0c" fill-rule="nonzero" height="11.168" rx="1.3975" width="2.795" x="79.205" y="19.854"/><path d="m16.773 27.299h48.455v25.128h-48.455z" fill="#63300e" fill-rule="nonzero"/><path d="m19.648 25.438h-6.62c-5.13624817 0-9.3 4.1637518-9.3 9.3v27.926h74.545v-27.926c0-5.1362482-4.1637518-9.3-9.3-9.3h-6.621c.053.613.08 1.234.08 1.861 0 11.822-9.596 21.405-21.432 21.405s-21.432-9.583-21.432-21.405c0-.627.027-1.248.08-1.861z" fill="#facc58"/><path d="m3.727 62.664h74.546l-5.733 16.148c-1.3172651 3.7096217-4.8274431 6.188-8.764 6.188h-45.552c-3.9365569 0-7.4467349-2.4783783-8.764-6.188z" fill="#edac01"/><path d="m12.114 66.387h56.84l-1.977 7.86c-1.0403945 4.1334867-4.7575908 7.030592-9.02 7.0300001h-34.337c-4.0625197.0003217-7.6551178-2.6363287-8.873-6.5120001l-2.632-8.378z" fill="#c88307"/><g fill-rule="nonzero"><rect fill="#fff" height="4.653" rx="2.3265" width="33.545" x="24.227" y="53.358"/><path d="m20.964 70.11h.935c.7709895 0 1.3959999.6250105 1.3959999 1.396s-.6250104 1.396-1.3959999 1.396h-.935c-.4987428 0-.9596002-.266076-1.2089716-.698-.2493714-.4319239-.2493714-.9640761 0-1.396.2493714-.431924.7102288-.698 1.2089716-.698zm6.523 0h.935c.7709895 0 1.3959999.6250105 1.3959999 1.396s-.6250104 1.396-1.3959999 1.396h-.935c-.4987428 0-.9596002-.266076-1.2089716-.698-.2493714-.4319239-.2493714-.9640761 0-1.396.2493714-.431924.7102288-.698 1.2089716-.698zm6.523 0h.935c.7709895 0 1.3959999.6250105 1.3959999 1.396s-.6250104 1.396-1.3959999 1.396h-.935c-.4987428 0-.9596002-.266076-1.2089716-.698-.2493714-.4319239-.2493714-.9640761 0-1.396.2493714-.431924.7102288-.698 1.2089716-.698zm6.522 0h.936c.7709895 0 1.3959999.6250105 1.3959999 1.396s-.6250104 1.396-1.3959999 1.396h-.936c-.4987428 0-.9596002-.266076-1.2089716-.698-.2493714-.4319239-.2493714-.9640761 0-1.396.2493714-.431924.7102288-.698 1.2089716-.698zm6.523 0h.935c.7709895 0 1.3959999.6250105 1.3959999 1.396s-.6250104 1.396-1.3959999 1.396h-.935c-.4987428 0-.9596002-.266076-1.2089716-.698-.2493714-.4319239-.2493714-.9640761 0-1.396.2493714-.431924.7102288-.698 1.2089716-.698zm6.523 0h.935c.7709895 0 1.3959999.6250105 1.3959999 1.396s-.6250104 1.396-1.3959999 1.396h-.935c-.4987428 0-.9596002-.266076-1.2089716-.698-.2493714-.4319239-.2493714-.9640761 0-1.396.2493714-.431924.7102288-.698 1.2089716-.698zm6.523 0h.935c.7709895 0 1.3959999.6250105 1.3959999 1.396s-.6250104 1.396-1.3959999 1.396h-.936c-.4987428 0-.9596002-.266076-1.2089716-.698-.2493714-.4319239-.2493714-.9640761 0-1.396.2493714-.431924.7102288-.698 1.2089716-.698zm-36.341 4.652h.935c.7709895 0 1.396.6250105 1.396 1.396s-.6250105 1.396-1.396 1.396h-.935c-.7709895 0-1.396-.6250105-1.396-1.396s.6250105-1.396 1.396-1.396zm6.522 0h.936c.7709895 0 1.396.6250105 1.396 1.396s-.6250105 1.396-1.396 1.396h-.936c-.7709895 0-1.396-.6250105-1.396-1.396s.6250105-1.396 1.396-1.396zm6.523 0h.935c.7709895 0 1.396.6250105 1.396 1.396s-.6250105 1.396-1.396 1.396h-.935c-.7709895 0-1.396-.6250105-1.396-1.396s.6250105-1.396 1.396-1.396zm6.523 0h.935c.7709895 0 1.396.6250105 1.396 1.396s-.6250105 1.396-1.396 1.396h-.935c-.7709895 0-1.396-.6250105-1.396-1.396s.6250105-1.396 1.396-1.396zm6.523 0h.935c.7709895 0 1.396.6250105 1.396 1.396s-.6250105 1.396-1.396 1.396h-.935c-.7709895 0-1.396-.6250105-1.396-1.396s.6250105-1.396 1.396-1.396zm6.522 0h.936c.7709895 0 1.396.6250105 1.396 1.396s-.6250105 1.396-1.396 1.396h-.936c-.7709895 0-1.396-.6250105-1.396-1.396s.6250105-1.396 1.396-1.396z" fill="#fff"/><ellipse cx="18.636" cy="26.369" fill="#fff" rx="5.591" ry="5.584" stroke="#451f0c" stroke-width="1.8"/><ellipse cx="63.364" cy="26.369" fill="#fff" rx="5.591" ry="5.584" stroke="#451f0c" stroke-width="1.8"/><ellipse cx="63.364" cy="26.369" fill="#897157" rx="1.864" ry="1.861"/><ellipse cx="18.636" cy="26.369" fill="#897157" rx="1.864" ry="1.861"/></g><ellipse cx="41" cy="27.299" rx="5.591" ry="5.584" stroke="#fff" stroke-width="2.79"/><path d="m41 46.843v-11.633m-3.976 11.225 2.419-11.379m-6.136 10.212 4.546-10.708m-8.041 8.77 6.673-9.529m-9.63 6.996 8.367-8.08m-10.819 4.926 9.866-6.165m-11.624 2.578 10.932-3.979m25.778 3.98-10.932-3.98m9.174 7.566-9.866-6.165m7.415 9.32-8.368-8.082m5.41 10.615-6.673-9.53m3.178 11.467-4.546-10.708m.83 11.875-2.42-11.379" stroke="#fff" stroke-width=".93"/></g></svg>