<svg height="130" viewBox="0 0 130 130" width="130" xmlns="http://www.w3.org/2000/svg"><g fill="none" fill-rule="evenodd" transform="translate(29 28)"><g fill-rule="nonzero"><rect fill="#63300e" height="58.882" rx=".9" width="1.8" x="4.5"/><rect fill="#63300e" height="1.812" rx=".906" width="72" y="51.333"/><path d="m9 43.767c0-.824.666-1.492 1.5-1.492h4.5c.829 0 1.5.669 1.5 1.492v3.054c0 .824-.666 1.493-1.5 1.493h-4.5c-.829 0-1.5-.67-1.5-1.493zm10.5-3.016c0-.826.666-1.496 1.5-1.496h4.5c.829 0 1.5.68 1.5 1.496v6.067c0 .826-.666 1.496-1.5 1.496h-4.5c-.829 0-1.5-.681-1.5-1.496v-6.068zm10.5-6.032c0-.83.666-1.503 1.5-1.503h4.5c.829 0 1.5.668 1.5 1.503v12.091c0 .83-.666 1.503-1.5 1.503h-4.5c-.829 0-1.5-.668-1.5-1.503zm10.5-7.549c0-.83.666-1.503 1.5-1.503h4.5c.829 0 1.5.677 1.5 1.503v19.64c0 .83-.666 1.504-1.5 1.504h-4.5c-.829 0-1.5-.678-1.5-1.504zm10.5-10.58c0-.824.666-1.492 1.5-1.492h4.5c.829 0 1.5.664 1.5 1.492v30.232c0 .824-.666 1.492-1.5 1.492h-4.5c-.829 0-1.5-.664-1.5-1.492zm10.4999836-12.063c-.0018458-.39903619.155367-.78236784.4368737-1.06518819.2815066-.28282036.6641022-.44181181 1.0631427-.44181181h4.5c.829 0 1.5000164.675 1.5000164 1.507v42.28c.0018458.3990362-.155367.7823678-.4368737 1.0651882-.2815066.2828203-.6641022.4418118-1.0631427.4418118h-4.5c-.829 0-1.5000164-.676-1.5000164-1.507z" fill="#d0d3d3"/></g><path d="m19.027 65.407c-.0368715.0845215-.0963987.1572001-.172.21-.0704389.0416099-.1512247.0624131-.233.06-.1087366-.0064574-.2135835-.0427905-.303-.105-.113-.07-.246-.147-.399-.233-.1713465-.0932534-.3507364-.1708998-.536-.232-.234647-.0743907-.4798911-.1098598-.726-.105-.252 0-.471.03-.658.091-.187.06-.344.145-.473.253-.1251922.1044105-.2233085.2375193-.286.388-.063.151-.095.316-.095.496 0 .23.064.421.192.574.129.153.299.284.51.392.212.108.452.204.722.29.27.085.546.177.827.273.282.097.557.21.827.338s.51.29.722.486.382.435.51.719c.128.283.192.627.192 1.032 0 .441-.075.854-.226 1.239-.15.385-.371.72-.661 1.006s-.645.51-1.063.675c-.419.164-.898.246-1.438.246-.31 0-.617-.03-.918-.091-.2964986-.0593479-.5867718-.1463964-.867-.26-.271481-.1095697-.5316985-.2452043-.777-.405-.2331667-.1513778-.4491124-.3277558-.644-.526l.526-.871c.0496681-.0632874.1102968-.117142.179-.159.0701079-.0428082.1508618-.0649895.233-.064.112 0 .234.046.364.139.13.092.285.194.463.307.178.112.387.215.627.307.241.092.53.138.868.138.517 0 .918-.122 1.201-.368.284-.245.426-.597.426-1.056 0-.257-.064-.466-.193-.628-.1391572-.1706136-.313001-.3096887-.51-.408-.2305181-.1176444-.4724373-.2114635-.722-.28-.27-.077-.544-.16-.823-.25-.281139-.0907543-.5563405-.1989646-.824-.324-.27-.126-.51-.29-.722-.493-.2204511-.2155692-.3940683-.4742928-.51-.76-.128-.303-.192-.678-.192-1.123 0-.356.071-.702.213-1.04.142-.337.348-.636.62-.897.273-.261.607-.47 1.003-.628.4332504-.1640974.8937865-.2441906 1.357-.236.576 0 1.107.09 1.593.27s.9.432 1.242.756zm12.491 7.985h-1.404c-.2711555.0119234-.5179683-.1556002-.607-.412l-.73-1.99h-4.043l-.729 1.99c-.0946044.2489462-.3336863.4131158-.6.412h-1.411l3.834-9.76h1.856zm-6.318-3.685h3.112l-1.188-3.247c-.1421582-.3761033-.2659707-.7588873-.371-1.147-.063.229-.125.443-.186.64-.06.199-.12.372-.179.52zm11.04 2.187h3.908v1.498h-5.724v-9.76h1.816zm13.22-8.262v1.444h-4.327v2.707h3.408v1.397h-3.408v2.76h4.326v1.452h-6.156v-9.76h6.156zm8.703 1.775c-.0368715.0845215-.0963987.1572001-.172.21-.0704389.0416099-.1512247.0624131-.233.06-.1087366-.0064574-.2135835-.0427905-.303-.105-.113-.07-.246-.147-.399-.233-.1713465-.0932534-.3507364-.1708998-.536-.232-.234647-.0743907-.4798911-.1098598-.726-.105-.252 0-.471.03-.658.091-.187.06-.344.145-.473.253-.1251922.1044105-.2233085.2375193-.286.388-.063.151-.095.316-.095.496 0 .23.064.421.193.574.128.153.298.284.51.392.21.108.451.204.721.29.27.085.546.177.827.273.282.097.557.21.827.338s.51.29.722.486.382.435.51.719c.128.283.192.627.192 1.032 0 .441-.075.854-.226 1.239-.15.385-.371.72-.661 1.006s-.645.51-1.063.675c-.419.164-.898.246-1.438.246-.31 0-.617-.03-.918-.091-.2964986-.0593479-.5867718-.1463964-.867-.26-.271481-.1095697-.5316985-.2452043-.777-.405-.2331667-.1513778-.4491124-.3277558-.644-.526l.526-.871c.0496681-.0632874.1102968-.117142.179-.159.0701079-.0428082.1508618-.0649895.233-.064.112 0 .234.046.364.139.13.092.285.194.463.307.178.112.387.215.628.307.24.092.53.138.867.138.517 0 .918-.122 1.201-.368.284-.245.426-.597.426-1.056 0-.257-.064-.466-.193-.628-.1391572-.1706136-.313001-.3096887-.51-.408-.2305181-.1176444-.4724373-.2114635-.722-.28-.27-.077-.544-.16-.823-.25-.281139-.0907543-.5563405-.1989646-.824-.324-.27-.126-.51-.29-.722-.493-.2204511-.2155692-.3940683-.4742928-.51-.76-.128-.303-.192-.678-.192-1.123 0-.356.071-.702.213-1.04.142-.337.348-.636.62-.897.273-.261.607-.47 1.003-.628.4332504-.1640974.8937865-.2441906 1.357-.236.576 0 1.107.09 1.593.27s.9.432 1.242.756z" fill="#989b9b"/><path d="m12.75 43.03s14.25-.53 28.75-12.03 24.5-27.98 24.5-27.98" stroke="#edac01" stroke-linecap="round" stroke-linejoin="round" stroke-width="2"/></g></svg>