<svg xmlns="http://www.w3.org/2000/svg" xmlns:xlink="http://www.w3.org/1999/xlink" width="503" height="532" viewBox="0 0 503 532"><title>mystery</title><defs><path id="a" d="M.606 294.63v28.192a8.56 8.56 0 0 0 3.81 7.122L220.533 474.05a14.38 14.38 0 0 0 15.96 0l162.118-107.91 1.036-4.356a21.94 21.94 0 0 1 11.326-14.442l57.485-167.499c4.063-11.381-.15-24.07-10.21-30.752L238.228 2.956A15.57 15.57 0 0 0 229.61.354h-8.014l-56.903 191.83z"/><path id="d" d="M41.033 193.585h330.54v162.35c-8.586 4.54-19.024 10.472-31.747 18.224l-98.712 65.614L41.033 306.36z"/><path id="f" d="M332.792 129.302s-31.751-6.796-64.667-25.872c-13.325-7.722-21.234-22.76-36-31.95-12.348-7.683-51.434-22.43-62.55-30.15C153.375 30.08 132.372.444 132.372.444c-6.688 2.503-28.614 24.937-55.309 43.674S.007 81.809.007 81.809L200.09 212.821z"/><path id="h" d="M332.792 129.302s-31.751-6.796-64.667-25.872c-13.325-7.722-21.234-22.76-36-31.95-12.348-7.683-51.434-22.43-62.55-30.15C153.375 30.08 132.372.444 132.372.444c-6.688 2.503-28.614 24.937-55.309 43.674S.007 81.809.007 81.809L200.09 212.821z"/><path id="j" d="M41.033 193.585h330.54v162.35c-8.586 4.54-19.024 10.472-31.747 18.224l-98.712 65.614L41.033 306.36z"/><path id="l" d="M40.953 16c-4.5 1-6.5 3-10 5s-8.5 6-9.5 7.5-11 14-12.5 18-7 8-8.5 9.5 1 3 3.5 5.5 0 5 9.5 4 6.5 0 9.5 0c1.646 0 1.93 7.43 5.047 8.635 2.563.99 9.422.695 11.453 2.5 4.5 4 7-1.135 9.5 3.865s2 9 6 10 3.5 1 7 1 7.5-1 9.5 2.5S84.5 89.5 87 92s5.5-1 12-1 8.453 1.5 11.453 0-1-4.5 7.5-3 11 3 13.5 4 14.047-2.5 15.047-4 3.953-2 3.953-6S151 69.135 149 65.635s-6.047-2.135-8.547-6.135-3.5-14.5-3.5-17 1-7-1.5-10.5-.5-5-8-8-22-4-26.5-8 3-1-10-8.5-10-7.5-17-7.5-10 0-14 1-11.5 4-12.5 6.5-2.5 7-4.5 8.5 2.5-1-2 0"/><path id="n" d="M40.953 16c-4.5 1-6.5 3-10 5s-8.5 6-9.5 7.5-11 14-12.5 18-7 8-8.5 9.5 1 3 3.5 5.5 0 5 9.5 4 6.5 0 9.5 0c1.646 0 1.93 7.43 5.047 8.635 2.563.99 9.422.695 11.453 2.5 4.5 4 7-1.135 9.5 3.865s2 9 6 10 3.5 1 7 1 7.5-1 9.5 2.5S84.5 89.5 87 92s5.5-1 12-1 8.453 1.5 11.453 0-1-4.5 7.5-3 11 3 13.5 4 14.047-2.5 15.047-4 3.953-2 3.953-6S151 69.135 149 65.635s-6.047-2.135-8.547-6.135-3.5-14.5-3.5-17 1-7-1.5-10.5-.5-5-8-8-22-4-26.5-8 3-1-10-8.5-10-7.5-17-7.5-10 0-14 1-11.5 4-12.5 6.5-2.5 7-4.5 8.5 2.5-1-2 0"/><path id="p" d="M41.033 193.585h330.54v162.35c-8.586 4.54-19.024 10.472-31.747 18.224l-98.712 65.614L41.033 306.36z"/><path id="r" d="M7 7.135c0-1 4.5-5 7-6s2.5 0 5.5 0 1-1.5 7 0S38.5 1.968 40 3.8c1.5 1.834 1.5 4.834 6 5.834q4.5.999 10.5 4.5l8 1v3q1 3.5-2 2.5c-3-1-5-2.5-9-2.5s-1.5-.5-7.5 1-9 1.5-11.5 1.5-5-1-8-2.5-5.5-6-10-3-5.5 3-7.5 3-5-2-6-3-2.5-3.445-2-4.473c.5-1.027 6-2.527 6-3.527z"/><path id="t" d="M41.033 193.585h330.54v162.35c-8.586 4.54-19.024 10.472-31.747 18.224l-98.712 65.614L41.033 306.36z"/><path id="v" d="M1 6.5q0-1 4-4.5Q6.5-1 8.5.5c2 1.5 3 .25 4 1.5s-1 .5 2.5 2.5 5 2 4.5 3.5 1 1-3 2.5-3.406 1.5-6.203 1.5S9 13.5 5 12q-4-1.5-5-4 1-.5 1-1.5"/><path id="x" d="M41.033 193.585h330.54v162.35c-8.586 4.54-19.024 10.472-31.747 18.224l-98.712 65.614L41.033 306.36z"/><path id="z" d="M41.033 193.585h330.54v162.35c-8.586 4.54-19.024 10.472-31.747 18.224l-98.712 65.614L41.033 306.36z"/><path id="B" d="M41.033 193.585h330.54v162.35c-8.586 4.54-19.024 10.472-31.747 18.224l-98.712 65.614L41.033 306.36z"/><path id="D" d="M41.033 193.585h330.54v162.35c-8.586 4.54-19.024 10.472-31.747 18.224l-98.712 65.614L41.033 306.36z"/><path id="F" d="M41.033 193.585h330.54v162.35c-8.586 4.54-19.024 10.472-31.747 18.224l-98.712 65.614L41.033 306.36z"/><path id="H" d="M41.033 193.585h330.54v162.35c-8.586 4.54-19.024 10.472-31.747 18.224l-98.712 65.614L41.033 306.36z"/><path id="J" d="M41.033 193.585h330.54v162.35c-8.586 4.54-19.024 10.472-31.747 18.224l-98.712 65.614L41.033 306.36z"/><path id="L" d="M41.033 193.585h330.54v162.35c-8.586 4.54-19.024 10.472-31.747 18.224l-98.712 65.614L41.033 306.36z"/><path id="N" d="M41.033 193.585h330.54v162.35c-8.586 4.54-19.024 10.472-31.747 18.224l-98.712 65.614L41.033 306.36z"/><path id="P" d="M41.033 193.585h330.54v162.35c-8.586 4.54-19.024 10.472-31.747 18.224l-98.712 65.614L41.033 306.36z"/><path id="R" d="M41.033 193.585h330.54v162.35c-8.586 4.54-19.024 10.472-31.747 18.224l-98.712 65.614L41.033 306.36z"/><path id="T" d="M0 74.5 6 0q6.5 4.5 13.5 0L25 74.5q-3 5-12.5 5T0 74.5"/><path id="W" d="M15.5 8q-3-6-5.5-7.5C7.5-1 3.5 3.5 3 4s-4 8-2.5 9.5S2 15.5 3 17s0 1.5 1.5 3 1.5-1.5 3-1 3 1 3 2.5 2.5 1.5 4 0q1.5-1.5 1-5.5z"/><path id="Y" d="M16.5.5q.999 4.74.5 9.5c-.503 4.801-5.616 20.697-6 23.5-.795 5.809.01 10.742-1 15.5-.989 4.662-2.782 8.8-4.5 13-3 .5-4.5-.5-4.5-1 0-.286.732-2.95.5-12.5-.083-3.434-.79-9.966-1-14.5-.229-4.935 1.394-11.576.5-17.5Q14 2 16.5.5"/><path id="aa" d="M1.5 0q2.5 8 7 10c2-1 10 0 16.5 3.5q6.5 3.5 14 11Q52.5 33 55.5 51c-3 4.5-12 15-26.5 20 .5-10 3-26.25 1.5-30.5q-1 .5-2.25-1.5-5.75 1.5-16.75-6c-2.068-1.41-2.648-3.067-4-4Q4.056 26.625 3 27q2-3 2-4c-2 0-3.5 1-5 4 .459-2.751 2.357-6.806 2.5-13.5q.065-3.038-1-13.5"/><path id="ac" d="M11 1c-4 .5-5 3-5 5s1 16 1 18q-1 0-.5 1.5-1.5 0-2 1.5H0l1 10q12-2 14.5-4c2-3.5 3.5-19 3-23S15 .5 11 1"/><path id="ae" d="M5 20Q-2.5 7.5 1.5 3.5c1.5-1.5 2 0 3-1s0-1.5 1-2 7 1 11 2.5c.5 2-4 9-5 10.5Q10.5 15 5 20"/><radialGradient id="V" cx="99.951%" cy="31.287%" r="89.384%" fx="99.951%" fy="31.287%" gradientTransform="matrix(-.98312 .17097 -.18295 -.91873 2.04 .43)"><stop offset="0%" stop-color="#fff"/><stop offset="11.836%" stop-color="#e8e9f9"/><stop offset="100%" stop-color="#a4a6ca" stop-opacity="0"/></radialGradient><linearGradient id="c" x1="39.606%" x2="53.281%" y1="76.518%" y2="54.668%"><stop offset="0%" stop-color="#faf8f0"/><stop offset="100%" stop-color="#fff"/></linearGradient></defs><g fill="none" fill-rule="evenodd"><path fill="#5e7710" d="m24.287 391.906 202.14 134.784a25.81 25.81 0 0 0 28.703-.044L419.423 415.93c7.393-4.962 7.376-15.853-.033-20.792L210.34 255.745a12.48 12.48 0 0 0-13.851 0L24.287 371.091c-7.422 4.949-7.422 15.866 0 20.815" opacity=".15"/><path fill="#d1b49a" d="M0 347.699v-5L173.936 227.92a7.22 7.22 0 0 1 8.01 0L246.454 2.38s8.205-3.316 12.943-.574l228.165 149.18c12.622 8.252 18.027 24.037 13.116 38.305L437.75 373.093c-2.136 6.625-6.801 12.753-11.967 17.415v.001l-9.026 6.019-157.554 104.867a30.94 30.94 0 0 1-34.335 0L2.9 353.128a6.53 6.53 0 0 1-2.9-5.429"/><path fill="#867054" d="M3.207 348.694c-4.276-2.852-4.276-9.142 0-11.993L173.304 223.47a7.19 7.19 0 0 1 7.98 0L239.853 9.647c1.94-7.086 10.213-10.224 16.358-6.207l227.296 148.611c12.574 8.222 17.958 23.946 13.065 38.16l-61.022 177.28-.252.783a39.4 39.4 0 0 1-11.104 17.165l-8.992 5.996-158.356 105.402a28.35 28.35 0 0 1-31.462 0L3.207 348.693"/><path fill="#513b20" d="m496.571 190.211-61.022 177.28c-2.38 7.383-6.21 13.304-11.356 17.948l-8.992 5.996L278.55 482.4c-9.527 6.353-30.523 11.753-40.05 5.4q191.823-284.608 232.2-309.15c22.95-13.95 26.726 9.077 25.871 11.561" opacity=".5"/><path stroke="#be9365" stroke-dasharray="3.603599643611915,3.603599643611915" stroke-linecap="round" stroke-linejoin="round" stroke-width="1.08" d="M186.588 228.63 246.1 11.361c.607-2.215 2.554-3.206 4.214-3.206.837 0 1.63.24 2.355.714l227.296 148.612a26.31 26.31 0 0 1 10.483 30.618l-61.063 177.4-.252.784a33 33 0 0 1-8.943 14.034l-8.58 5.722-158.351 105.399a21.85 21.85 0 0 1-12.144 3.68 21.84 21.84 0 0 1-12.14-3.677L10.582 345.765c-2.183-1.457-2.182-4.667.002-6.122L176.89 228.87a.7.7 0 0 1 .403-.124q.219 0 .4.121l4.47 2.98"/><path stroke="#f7931e" stroke-linecap="round" stroke-linejoin="round" stroke-width=".72" d="m183.662 232.847 1.498.998.476-1.737"/><path fill="#fff" d="m393.26 354.18-144.166 95.94a14.38 14.38 0 0 1-15.96 0L16.537 305.697"/><path stroke="#000" stroke-linecap="round" stroke-linejoin="round" stroke-width=".72" d="m393.26 354.18-144.166 95.94a14.38 14.38 0 0 1-15.96 0L16.537 305.697"/><path fill="#f4f1ec" d="M13.206 306.695v28.192a8.56 8.56 0 0 0 3.81 7.122l216.117 144.106a14.38 14.38 0 0 0 15.96 0l162.118-107.91 1.036-4.356a21.94 21.94 0 0 1 11.326-14.442l57.485-167.499c4.063-11.381-.15-24.07-10.21-30.752L250.828 15.021a15.57 15.57 0 0 0-8.618-2.602h-8.014l-56.903 191.83z"/><path stroke="#dcd3c4" stroke-width="1.8" d="M14.106 307.195v27.692a7.66 7.66 0 0 0 3.409 6.374l216.118 144.104a13.48 13.48 0 0 0 14.962 0l161.822-107.714.955-4.011a22.84 22.84 0 0 1 11.466-14.865l57.372-167.17c3.925-10.993-.144-23.247-9.86-29.7L250.33 15.77a14.67 14.67 0 0 0-8.12-2.452h-7.342L178.06 204.832z"/><g transform="translate(12.6 12.065)"><mask id="b" fill="#fff"><use xlink:href="#a"/></mask><path fill="#dfdcd3" d="M228.15 445.585v39.16l214.2-99.46 54-224.55-44.1 3.15-221.4 272.25z" mask="url(#b)" opacity=".6"/></g><path fill="url(#c)" d="M177.294 203.885s-7.409-41.98 12.719-86.574c14.62-32.392 28.13-76.39 34.428-98.043 1.887-6.489 9.522-9.275 15.141-5.529L461.93 161.997c8.935 5.958 12.623 17.27 8.915 27.355-8.936 24.306-29.048 58.66-40.69 91.914-16.7 47.704-18.943 78.59-18.943 78.59l-233.918-155.97z" transform="translate(0 .365)"/><path stroke="#dcd3c4" stroke-width="1.8" d="m178.12 203.718 232.332 154.916q.175-1.748.478-4.1c.591-4.569 1.444-9.884 2.607-15.89 3.318-17.147 8.447-36.397 15.768-57.31a278 278 0 0 1 3.683-9.888c3.871-9.845 8.387-19.963 14.56-32.934 1.508-3.167 10.278-21.331 12.596-26.256 4.45-9.455 7.557-16.598 9.855-22.85 3.565-9.694.02-20.568-8.57-26.295L239.083 14.853c-5.114-3.41-12.06-.873-13.778 5.032-10.489 36.06-22.485 71.603-34.472 98.161-7.107 15.747-11.274 32.217-13.03 48.809-1.264 11.954-1.18 22.828-.28 32.021.145 1.475.3 2.772.455 3.881q.076.551.141.96z"/><path stroke="#979797" stroke-width=".9" d="M391.95 324.9q7.2-52.2 50.85-139.05M377.55 315.9q7.2-52.2 50.85-139.05m-64.8 128.7q7.2-52.2 50.85-139.05" opacity=".2"/><path fill="#fff" d="M177.294 204.25s-10.099-3.234-67.374 34.117l-93.383 62.078c-4.44 2.962-4.44 9.495 0 12.456l216.596 144.424a14.38 14.38 0 0 0 15.96 0l100.463-66.8c51.69-31.494 61.655-30.303 61.655-30.303z"/><path stroke="#dcd3c4" stroke-width="1.8" d="M176.948 205.1c-.593-.073-1.672.006-3.341.372-2.592.568-6.032 1.72-10.432 3.59-12.067 5.134-29.35 14.79-52.757 30.054l-93.382 62.078c-3.906 2.606-3.906 8.353 0 10.958l216.597 144.424a13.48 13.48 0 0 0 14.962 0l100.493-66.819c21.964-13.383 38.12-21.941 49.364-26.626 4.052-1.688 7.212-2.763 9.592-3.342q.351-.086.666-.153z"/><path fill="#e7e4dc" d="M331.2 382.05q8.1 10.35 15.75 13.5t-7.65 4.95q-6.682-4.732-9-6.75c-5.117-4.457-7.2-7.48-7.2-8.1q0-1.35 8.1-3.6"/><path fill="#eae8e2" d="m40.953 306.673 79.264-52.664c30.968-20.19 46.493-27.348 53.18-29.85l198.176 132.14c-8.586 4.542-19.024 10.473-31.747 18.226l-.326.198-98.386 65.415z"/><g transform="translate(0 .365)"><mask id="e" fill="#fff"><use xlink:href="#d"/></mask><g mask="url(#e)"><path fill="#3d3f59" d="M373.817 359.856s-31.751-6.796-64.667-25.872c-13.325-7.722-21.234-22.76-36-31.95-12.348-7.683-51.434-22.43-62.55-30.15-16.2-11.25-37.203-40.886-37.203-40.886-6.688 2.503-28.614 24.937-55.309 43.674s-77.056 37.691-77.056 37.691l200.083 131.012z"/><path stroke="#23243b" stroke-width="2" d="M371.262 360.283q-1.437-.355-3.18-.82a236 236 0 0 1-14.576-4.442c-15.124-5.125-30.395-11.79-44.858-20.171-5.161-2.992-9.33-6.717-15.758-13.546-.629-.668-3.14-3.356-3.771-4.027-6.551-6.96-10.973-10.956-16.498-14.393-4.924-3.065-11.283-6.02-30.754-14.617l-.955-.422c-17.956-7.933-26.122-11.833-30.883-15.14-2.923-2.03-6.102-4.715-9.5-7.982-3.182-3.059-6.515-6.585-9.951-10.49-4.362-4.957-8.67-10.265-12.734-15.572a309 309 0 0 1-4.79-6.424c-2.394 1.18-6.45 4.4-14.816 11.552-16.094 13.757-19.02 16.212-27.398 22.698-4.14 3.206-8.184 6.2-12.178 9.003q-.46.322-.931.648c-7.784 5.357-17.843 11.015-29.64 16.84-10.219 5.046-21.163 9.936-32.107 14.483a597 597 0 0 1-12.769 5.136l197.91 129.59 130.137-81.904Z"/><g transform="translate(41.025 230.554)"><mask id="g" fill="#fff"><use xlink:href="#f"/></mask><path fill="#23243b" d="M67.975 78.08q5.499 12.5 9 14c3.5 1.5 1 2 7.5 7s12.5 2.5 19.5 5c1.894.677 3.313 1.17 4.463 1.63 1.668.665-13.136 5.892-15.963 10.87-1.254 2.208 7.395 5.88 8 6.5.343.353 6.675 2.996 11-.5s13.71-8.82 14-8.5c4.5 5-11-5.5 9.5 4.5s33 6 41 5.5 11-3.5 15.5.5 14 3.5 17.5 6 27.5 12 29 10.5c.594-.594-.787.67 0-1 .17-.359 6.5-1.5 15 3.5 9.785 5.756 18.644 24.248 22.5 26 14.347 6.521 13.112-2.183 12.5-3-.437-.582-13.88-20.393-28-29.222-7.582-4.74-20.052-9.036-20.272-9.342-.777-1.079-1.795-2.278-3.728-3.935-3.5-3-6.5 1.5-9-5.5s-10.5-8.92-2.5-8.92 9 1.92 19.5 1.92 5.5-14.5 4.5-17-6.5-3-4.5-6q2-3 11.5-3l-17.5-21.5q-26-8-29-8.5t-24.5-5.5l-55 5.5-61.5 22.5z" mask="url(#g)" opacity=".5"/></g><g transform="translate(41.025 230.554)"><mask id="i" fill="#fff"><use xlink:href="#h"/></mask><path fill="#23243b" fill-rule="nonzero" d="M138.475-1.42q32.313 33.324 31 36c-2.755 5.613-40.423-17.207-43-14.5-19.994 21.003-43.443 33.704-59 42q-30 16-63.5 46.5l-20.5-55q61.5-20 65-21.5t90-48.5zm22.5 145q.5 7 6 7.5c5.5.5 6.5 0 10.5 0s4.5 0 8.5 2 5 1.5 9 3 6.5-1 15 0 7-.5 12.5 1 11 3 11.5 1.5.5-3.5-2-5.5-2.5-4-4.5-4.5a16.4 16.4 0 0 0-4-.5q-24.5-1.5-32-2t-30.5-2.5m-61-14q3.5 9.501 6.5 12c.625.522 4.556 5.603 12.5 9 8.587 3.674 30.204 8.124 30 7-.066-.363-4.077-3.04-9-6-3.563-2.14-10.696-10.332-28-18.5q-.722-.34-12-3.5" mask="url(#i)" opacity=".5"/></g></g></g><g transform="translate(0 .365)"><mask id="k" fill="#fff"><use xlink:href="#j"/></mask><g mask="url(#k)"><path fill="#686c89" d="M148.953 266c-4.5 1-6.5 3-10 5s-8.5 6-9.5 7.5-11 14-12.5 18-7 8-8.5 9.5 1 3 3.5 5.5 0 5 9.5 4 6.5 0 9.5 0c1.646 0 1.93 7.43 5.047 8.635 2.563.99 9.422.695 11.453 2.5 4.5 4 7-1.135 9.5 3.865s2 9 6 10 3.5 1 7 1 7.5-1 9.5 2.5 13.047-4.5 15.547-2 5.5-1 12-1 8.453 1.5 11.453 0-1-4.5 7.5-3 11 3 13.5 4 14.047-2.5 15.047-4 3.953-2 3.953-6S259 319.135 257 315.635s-6.047-2.135-8.547-6.135-3.5-14.5-3.5-17 1-7-1.5-10.5-.5-5-8-8-22-4-26.5-8 3-1-10-8.5-10-7.5-17-7.5-10 0-14 1-11.5 4-12.5 6.5-2.5 7-4.5 8.5 2.5-1-2 0"/><g transform="translate(108 250)"><mask id="m" fill="#fff"><use xlink:href="#l"/></mask><path fill="#474864" fill-rule="nonzero" d="M-.5 58.135c3.5-1 7.5-2 10.5-3.5s-1-6.5 6.5-4.5 10 6 10.5 7-.5 7 .5 9.5 3 4 6.5 5 13 0 15 1 4 0 7 5.5 1.5 7 7 9 8.5-1.5 11.5-2 6-4 7.5-5.5 2-5 5-9 .5-10 5.5-4 6.5 10 8 11.5-1.5 4.5 4.5 1.5 4-3 7.5-5 4.5-1.5 9 1 1.5 3 8 4 11.5 5 11.5 0 6-.427 6-5 0-5.927 1.5-5.927h8v22.427l-48.5 11-88.5-5Q8 74.635 6 72.635c-2-2-10-13.5-6.5-14.5m44.5-29q1 3.5 2.5 4.5c.726.484 5.21 4.153 6 5 .842.902 13 6 15.5 9q2.5 3 12 3l22 9 24.5-5-3.502-6.005q21.735-.32 23.002-1.495 1.265-1.176-8.5-10.5l-26.5-4-19.5-11q-19 5-20.5 5t-27 2.5" mask="url(#m)"/></g><g transform="translate(108 250)"><mask id="o" fill="#fff"><use xlink:href="#n"/></mask><path fill="#474864" fill-rule="nonzero" d="M63.5 57.635q.5 3.5-1 3.5t-2.5 2h3.5c2 0 3.5-2 3-2.75s-1-1.75-1.5-2.25q-.5-.5-1.5-.5m5 19.5c1-1.5 2.5-3 2-4.5q-.5-1.5 2-3.5.5-1 1 2.5c.5 3.5-.55 5.5-1.5 6s-4.5 1-3.5-.5M42 68.9c1.5 0 3-1 4-1.5s1-2 .5-2.5q-.5-.5 1.5-3.5-3-1-3 .5c0 1.5-1 2.1-1 3.05s-2 2.45-2.5 2.95-1 1 .5 1m21.5 9.503c1 1 1.5 1 1.5 2.5q0 1.5-2 3.5-3 0-1.5-1.5c1.5-1.5 1-1.5 1-3s0-2.5 1-1.5m62.5-5.268q2.5 2 4.5 2.5t3 .5q1.665.066 2-.5c.99-1.675.498-3 0-3-1 0-2 1-3.5.5s-1.5-.5-3-.5q-1.5 0-3 .5m18.5-1.5q.5-4 0-4.5c-.5-.5-2.5-2.5-2.5-1.5s2.75.724 1.375 2.862-.375 4.638.625 3.638z" mask="url(#o)"/></g></g></g><g transform="translate(0 .365)"><mask id="q" fill="#fff"><use xlink:href="#p"/></mask><g mask="url(#q)"><path fill="#686c89" d="M208 370.135c0-1 4.5-5 7-6s2.5 0 5.5 0 1-1.5 7 0 12 .833 13.5 2.665c1.5 1.834 1.5 4.834 6 5.834q4.5.999 10.5 4.5l8 1v3q1 3.5-2 2.5c-3-1-5-2.5-9-2.5s-1.5-.5-7.5 1-9 1.5-11.5 1.5-5-1-8-2.5-5.5-6-10-3-5.5 3-7.5 3-5-2-6-3-2.5-3.445-2-4.473c.5-1.027 6-2.527 6-3.527z"/><g transform="translate(201 363)"><mask id="s" fill="#fff"><use xlink:href="#r"/></mask><path fill="#474864" d="M5.5 7.635c0 1.5-1 2 1.5 3.5s4 3 7 1.5 7.5-2.19 9-2.19 8.5.69 10 .69 3.5-.5 5-2q1.5-1.5 10.5-1.5 9.5 2.12 14 2.81c4.5.69 10.5 3.19 10.5 6.69s2.5 9.5-12 11-23-.5-28-2.5-10.5-7-19-5-18.5-1.5-20-3.5q-1.5-2.001-1.5-6 13-5 13-3.5" mask="url(#s)"/></g></g></g><g transform="translate(0 .365)"><mask id="u" fill="#fff"><use xlink:href="#t"/></mask><g mask="url(#u)"><path fill="#686c89" d="M259 358.5q0-1 4-4.5 1.5-3 3.5-1.5c2 1.5 3 .25 4 1.5s-1 .5 2.5 2.5 5 2 4.5 3.5 1 1-3 2.5-3.406 1.5-6.203 1.5-1.297 1.5-5.297 0q-4-1.5-5-4 1-.5 1-1.5"/><g transform="translate(258 352)"><mask id="w" fill="#fff"><use xlink:href="#v"/></mask><path fill="#474864" d="M-.5 7.135q5.5 2.25 7 1.5c1.5-.75 3.5-2 5-3s3-1.5 3.5-2.5 3-2 4-1 5.5 3.5 4.5 6.5 0 5.5-5.5 6.5-16 0-18.5-1q-2.5-1 0-7" mask="url(#w)"/></g></g></g><g transform="translate(0 .365)"><mask id="y" fill="#fff"><use xlink:href="#x"/></mask><path fill="#8889ab" d="M152 278.974v-30.09l28 18.56v30.06z" mask="url(#y)"/></g><g transform="translate(0 .365)"><mask id="A" fill="#fff"><use xlink:href="#z"/></mask><g fill-rule="nonzero" mask="url(#A)"><path fill="#000" d="M155 258.534v-2.904a.4.4 0 0 1 .621-.334l1.879 1.246v3.658zm0 1.202 2.5 1.666v3.812l-2.07-1.434a1 1 0 0 1-.43-.822zm5.992 2.793-2.492-1.662v-3.662l2.045 1.355a1 1 0 0 1 .447.834zm0 1.201v3.14a.4.4 0 0 1-.628.33l-1.864-1.293v-3.838z"/><path fill="#f8a863" d="M155 258.534v-2.904a.4.4 0 0 1 .621-.334l1.879 1.246v3.658zm0 1.202 2.5 1.666v3.812l-2.07-1.434a1 1 0 0 1-.43-.822zm5.992 2.793-2.492-1.662v-3.662l2.045 1.355a1 1 0 0 1 .447.834zm0 1.201v3.14a.4.4 0 0 1-.628.33l-1.864-1.293v-3.838z"/></g></g><g transform="translate(0 .365)"><mask id="C" fill="#fff"><use xlink:href="#B"/></mask><path fill="#474864" fill-rule="nonzero" d="M155 271.304V268.4a.4.4 0 0 1 .621-.333l1.879 1.245v3.659zm0 1.202 2.5 1.667v3.812l-2.07-1.435a1 1 0 0 1-.43-.822zm5.992 2.793-2.492-1.662v-3.662l2.045 1.355a1 1 0 0 1 .447.834zm0 1.202v3.14a.4.4 0 0 1-.628.329l-1.864-1.292v-3.839z" mask="url(#C)"/></g><g transform="translate(0 .365)"><mask id="E" fill="#fff"><use xlink:href="#D"/></mask><g fill-rule="nonzero" mask="url(#E)"><path fill="#000" d="M170 268.304V265.4a.4.4 0 0 1 .621-.333l1.879 1.245v3.659zm0 1.202 2.5 1.667v3.812l-2.07-1.435a1 1 0 0 1-.43-.822zm5.992 2.793-2.492-1.662v-3.662l2.045 1.355a1 1 0 0 1 .447.834zm0 1.202v3.14a.4.4 0 0 1-.628.329l-1.864-1.292v-3.839z"/><path fill="#f8a863" d="M170 268.304V265.4a.4.4 0 0 1 .621-.333l1.879 1.245v3.659zm0 1.202 2.5 1.667v3.812l-2.07-1.435a1 1 0 0 1-.43-.822zm5.992 2.793-2.492-1.662v-3.662l2.045 1.355a1 1 0 0 1 .447.834zm0 1.202v3.14a.4.4 0 0 1-.628.329l-1.864-1.292v-3.839z"/></g></g><g transform="translate(0 .365)"><mask id="G" fill="#fff"><use xlink:href="#F"/></mask><path fill="#474864" fill-rule="nonzero" d="M170 281.304V278.4a.4.4 0 0 1 .621-.333l1.879 1.245v3.659zm0 1.202 2.5 1.667v3.812l-2.07-1.435a1 1 0 0 1-.43-.822zm5.992 2.793-2.492-1.662v-3.662l2.045 1.355a1 1 0 0 1 .447.834zm0 1.202v3.14a.4.4 0 0 1-.628.329l-1.864-1.292v-3.839z" mask="url(#G)"/></g><g transform="translate(0 .365)"><mask id="I" fill="#fff"><use xlink:href="#H"/></mask><path fill="#8889ab" d="M197.446 252.202v-7.567l-3.294 1-4.152-3v4.5z" mask="url(#I)"/></g><g transform="translate(0 .365)"><mask id="K" fill="#fff"><use xlink:href="#J"/></mask><path fill="#8889ab" d="m193 241.635 4.446 3-3.294 1-4.152-3z" mask="url(#K)"/></g><g transform="translate(0 .365)"><mask id="M" fill="#fff"><use xlink:href="#L"/></mask><path fill="#5b5c7a" d="m180 267.635 21-13-3.554-2.433v-7.567l-3.294 1v4.312L191 247.79z" mask="url(#M)"/></g><g transform="translate(0 .365)"><mask id="O" fill="#fff"><use xlink:href="#N"/></mask><path fill="#5b5c7a" d="M201 283.974v-29.34l-21 13v29.87z" mask="url(#O)"/></g><g transform="translate(0 .365)"><mask id="Q" fill="#fff"><use xlink:href="#P"/></mask><path fill="#a4a6ca" d="m164.5 230.135-14 21 30 19 12-21.345z" mask="url(#Q)"/></g><g transform="translate(0 .365)"><mask id="S" fill="#fff"><use xlink:href="#R"/></mask><g mask="url(#S)"><path fill="#474864" d="M163.6 286.135v-12.858a.1.1 0 0 1 .154-.085l3.382 2.148a1 1 0 0 1 .464.844v12.65z"/><path stroke="#474864" d="M163.1 286.4v-13.123a.6.6 0 0 1 .922-.507l3.382 2.148a1.5 1.5 0 0 1 .696 1.266v13.591l-5-3.375Z"/></g></g><text fill="#e1ddd2" fill-rule="nonzero" font-family="Merriweather-Italic, Merriweather" font-size="19.8" font-style="italic" transform="rotate(-65 236.137 138.687)">
                    <tspan x="231.637" y="145.687">1</tspan>
                </text><path fill="#e1ddd2" fill-rule="nonzero" d="M259.549 186.22q-.134.674-.405 1.433-.27.76-.717 1.28a3.5 3.5 0 0 1-1.012.82c-.38.2-.792.329-1.218.381q-.654.083-1.344.014a8.1 8.1 0 0 1-2.731-.826q-1.32-.663-2.225-1.37a10.5 10.5 0 0 1-1.625-1.572 9.8 9.8 0 0 1-1.2-1.806 8.5 8.5 0 0 1-.708-1.91q-.46-1.99.16-3.727.586-1.65 1.495-2.9l.212-.285 2.93 2.15-.364 1.021-2.292-.914q-.416.234-.66.738-.246.504-.466 1.124-.222.619-.138 1.433a4.8 4.8 0 0 0 .438 1.568q.356.754.917 1.438 1.542 1.865 3.838 3.018 1.973.991 3.545.958 1.778-.044 2.3-1.51.413-1.16.2-2.173a1.4 1.4 0 0 0-.258-.603l-1.471-1.439.384-1.051 2.703 1.769q-.013.261-.023.698-.01.438-.07 1.004-.06.565-.195 1.24zm4.335-11.763q-.404 1.135-1.5.512-.72-.412-1.533-1.012-.813-.599-1.158-.848a60 60 0 0 1-.752-.558 25 25 0 0 0-.845-.61q-.98-.698-1.57-.994-.588-.296-.881-.35-.292-.055-.48.016-.27.111-.418.526c-.1.286-.14.588-.12.89q.026.477.176 1.016.322 1.159 1.023 2.273l6.094 4.09-.603 1.692-12.056-8.04-.734.845-.656-.505.468-2.501.392-.338 5.785 3.883q-1.1-1.911-1.07-3.583.015-.579.188-1.063.173-.485.434-.78t.659-.395q.825-.223 2.2.467a11 11 0 0 1 1.656 1.059l1.225.913 1.277.91q1.368.964 1.673 1.04.306.075.349-.046.108-.306-.146-1.174l.54-.048q.234.334.367.894.262 1.13.016 1.82zm1.985-9.98q.927 1.803.384 3.33-.504 1.415-1.816 1.65-1.225.218-2.9-.623-1.374-.69-2.595-2.096-2.044-2.344-2.098-4.963a4.8 4.8 0 0 1 .28-1.774q.303-.855.929-1.621l.08-1.185 7.919 5.326q.334.218.52.194.185-.025.251-.213.067-.188-.148-.882l.549-.044q.21.282.34.799.253 1.042.025 1.68-.394 1.108-1.428.589l-.12-.06-.172-.108zm-7.093-4.736q-.427.27-.67.95a3.1 3.1 0 0 0-.185 1.31q.057.631.315 1.235.26.603.68 1.159t.925 1.035q.985.937 1.869 1.381.883.444 1.417.6.534.154.941.142.851-.015 1.087-.678.398-1.117-.234-2.566a6 6 0 0 0-.367-.72zm11.482-4.14q.02.904-.229 1.603-.238.676-.618 1.284l4.186 2.833-.59 1.658-12.188-8.21-.774.732-.62-.496.371-2.51.351-.306.995.684q-.876-1.695-.354-3.161.522-1.467 1.849-1.715 1.24-.231 2.905.605 2.187 1.098 3.663 3.568 1.018 1.695 1.053 3.43zm-1.989 2.107q.47-.3.722-1.01.255-.712.187-1.331a3.9 3.9 0 0 0-.342-1.216 5.8 5.8 0 0 0-.708-1.149 8.7 8.7 0 0 0-.948-1.026 9.5 9.5 0 0 0-2.22-1.557q-1.19-.599-2-.542-.811.055-1.054.736-.357 1.004.243 2.457.16.4.347.72zm4.987-9.563q-.57 1.596-2.098.829l-.094-.047q-.264-.133-1.004-.628l-5.9-3.9-.373 1.047-.681-.547-.019-1.275q-.404-.79-1.858-2.302l.295-.83 2.123 1.417.815-2.286 1.124.77-.805 2.26 5.088 3.41q.981.667 1.344.85t.527.229q.165.046.278.01.213-.057.323-.367t.121-.582a4 4 0 0 0-.015-.564 6 6 0 0 0-.176-1.034l.722.177q.498.95.42 2.526-.027.47-.157.837m1.647-8.556q.57-1.597-.19-3.593l.852-.046q.46.745.632 1.902.225 1.4-.142 2.434-.369 1.034-.93 1.534-1.097.992-2.707.677-.695-.143-1.061-.327a32 32 0 0 1-.794-.414q-.428-.23-1.137-.808-.702-.57-1.288-1.259a9.3 9.3 0 0 1-1.004-1.435c-.276-.485-.495-1-.651-1.536q-.476-1.66.02-3.056.648-1.815 2.117-1.673.45.04 1.004.319.555.279.985.865.43.587.678 1.307.246.72.331 1.515.086.793.06 1.542-.036 1.515-.355 2.466.173.108.327.185t.37.175.57.183q.352.085.705.097c.224.01.447-.02.66-.09q.688-.23.948-.964m-4.504-.102q.394-1.304.127-2.899-.181-1.13-.765-1.866-.296-.385-.851-.664-.555-.28-.967-.125-.412.153-.578.62t-.1.943q.068.476.293.944.226.468.568.923.339.45.732.856c.469.474.985.9 1.541 1.268m-.214-10.478-.824.615-.704-.538.309-2.336.354-.316 1.873 1.157a5.35 5.35 0 0 1-1.181-2.96q-.053-.642.084-1.027.237-.663.388-.72l1.64 1.275q-.207.184-.38.67a3.2 3.2 0 0 0-.196.888q-.023.405.083.87.255 1.065 1.158 2.063l5.838 3.848-.606 1.702z"/><path stroke="#f8a863" stroke-linecap="round" stroke-linejoin="round" stroke-width="3.24" d="M411.21 378.204s1.037-12.551 12.363-18.798"/><path fill="#f8a863" d="M274.5 336.5q-5.933-5.828-3.15-5.3c26.1 4.95 40.65 9.8 55.8 32.4s20.7 25.2 23.85 29.25 2.406 8.765-.45 13.05c-.419.628-4.05 4.95-9.9 6.3-3.93.907-8.26.749-9.9.45-.801-.146.79-.608 0-.45-1.25.177 10.439-1.326 14.4-3.6.838-.481.9-2.307.9-2.7 0-5.03-5.473-6.348-17.55-19.9-6.291-7.06-10.344-18.84-22-30.5-8.997-9-21.97-12.499-43.555-16.32q.555.32 11.555-2.68"/><path fill="#23243b" d="M292 335.5q-2-1-5.5-.5c-3.5.5-3.5 2-3.5 2.5s-1.5 1.5 6 1.5 8-1 8.5-1.5q.5-.5.5-4l-4.5 1.5z"/><path fill="#23243b" d="M295.884 337.251q-1.332.801-4.884 1.98c-3.552 1.181-1.595 2.732-1.5 3.269s4.852 0 10 0 2.574-4.62 3-5.249q.426-.63-.743-3.251l-4.405 2.438z"/><path fill="#b16e35" d="M344.7 408.028q-2.055.248-6.3-.778l-7.65 4.95q13.05.9 14.943-4.172c.144-.388.676-2.261.357-2.128-.45 1.8-.9 1.8-1.35 2.128"/><path fill="#a4a6ca" d="m205 291.5 6-74.5q6.5 4.5 13.5 0l5.5 74.5q-3 5-12.5 5t-12.5-5"/><g transform="translate(205 217)"><mask id="U" fill="#fff"><use xlink:href="#T"/></mask><path fill="#5b5c7a" d="m2.5 43 7 5.5q1 13 5 17 1-59 1.5-65t11-12q10 58.5 10 61T28.5 78l-27 5.5q-12.5-7-11-8.5t12-32" mask="url(#U)"/></g><ellipse cx="217.75" cy="216" fill="#5b5c7a" rx="8.75" ry="4"/><ellipse cx="217.75" cy="214" fill="#a4a6ca" rx="7.5" ry="3.429"/><path fill="#000" d="M217.75 216.429c4.142 0 7.5-1.535 7.5-3.429v-11h-15v11c0 1.894 3.358 3.429 7.5 3.429"/><path fill="#f8a863" d="M217.75 216.429c4.142 0 7.5-1.535 7.5-3.429v-11h-15v11c0 1.894 3.358 3.429 7.5 3.429"/><path fill="url(#V)" d="m216.587 204.5-170-57q-52.088 120.5 48 201l122-132.5q-1.087-3.513-1.087-5.5t1.087-6" opacity=".7"/><path stroke="#5b5c7a" d="M210.134 209.029c-.722.582-1.134 1.254-1.134 1.971 0 2.21 3.918 4 8.75 4s8.75-1.79 8.75-4c0-.746-.447-1.445-1.225-2.043"/><ellipse cx="217.75" cy="202" fill="#5b5c7a" rx="7.5" ry="3.429"/><path stroke="#fff" stroke-linecap="round" stroke-linejoin="round" stroke-width="1.452" d="M211.579 309.082q-.714-2.164.714-3.606c1.428-1.443 3.57.721 3.57 2.164 0 1.442-.715 2.164 0 2.164.713 0 2.855-1.443 3.568-2.164l2.142-2.164c.714-.722 2.856 0 1.428 1.442-.787.795-1.236 2.091-2.142 2.886-.738.648-1.846 1.654-2.855 2.163l-1.428.722q.795 3.844.795 4.328c0 .483 3.488-.722 4.916 1.442s2.855 4.328 3.57 5.05c.713.72-1.428 2.163-2.142 1.442s-2.856-3.607-3.57-4.328-4.283-.721-4.283-.721-.714 2.885-.714 4.328c0 .855.537 1.436.714 2.163.313 1.288.456 2.425 0 2.886-.714.72-2.855 1.442-2.855-.722s-.714-2.164-.714-4.327v-5.77c0-.96-1.428-4.329-1.428-4.329s-1.216 1.21-1.428 2.886c-.111.883.714 2.138.714 2.885 0 2.164-1.428 1.442-2.141.721s-1.428-2.885-.714-5.049 1.427-3.607 2.855-4.328c.556-.28 1.748-.277 2.142-.721q.28-.317-.714-1.443"/><path fill="#5b5c7a" d="M132 337.25v10.012q1.104.59 1.5.488t.5-1v-10.5q-1-.5-1.5 0t-.5 1"/><path fill="#686c89" d="M159.5 323 131 340.5l9 5.5 29.5-17z"/><path fill="#474864" d="m140 348.5-9-5.5v-2.5l9 5.5 29.5-19 .5 2z"/><path fill="#5b5c7a" fill-rule="nonzero" d="M140.9 343v10.012q1.104.59 1.5.488t.5-1V342q-1-.5-1.5 0t-.5 1m7.1-3.75v10.012q1.104.59 1.5.488t.5-1v-10.5q-1-.5-1.5 0t-.5 1m6.6-4v9.012q1.104.59 1.5.488t.5-1v-9.5q-1-.5-1.5 0t-.5 1m6.4-5v7.012q1.104.59 1.5.488t.5-1v-7.5q-1-.5-1.5 0t-.5 1"/><path fill="#474864" d="M154 368q-5.565-.87-6 0c-.434.869 1 6 9.5 10.5s19 6 29 1.5q-12 0-32.5-12"/><path fill="#f8a863" d="M153.5 368.5q-2.275-.748-5-1 5.364-3.918 8.5-5 3.135-1.082 6 0 20.5 12.5 23.5 17.5c-12 0-30.725-10.752-33-11.5"/><path fill="#474864" fill-rule="nonzero" d="M172.354 366.463q-3.5.5-4.5 0-1-.501 4.5 3 .5-.563.5-1.532t-.5-1.468M152 366.5q2.112.625 3 1c9.236 3.91 13.588 6.696 14.5 7 1.5.5 5.5-2 5.5-2.5s-12.5-8.5-14.5-9q-2-.5-8.5 3.5"/><path fill="#fff" d="m176 372-3.5-5.5q1 2-1.5 3c-2.5 1-6.5.5-8 .5q-1.5 0-3 .5 8.5 4.5 11.5 4.5t4.5-3"/><path fill="#e9bf94" d="M262.5 236q-3-6-5.5-7.5c-2.5-1.5-6.5 3-7 3.5s-4 8-2.5 9.5 1.5 2 2.5 3.5 0 1.5 1.5 3 1.5-1.5 3-1 3 1 3 2.5 2.5 1.5 4 0q1.5-1.5 1-5.5z"/><g transform="translate(247 228)"><mask id="X" fill="#fff"><use xlink:href="#W"/></mask><path fill="#bf9870" d="M1.5 17.5Q6.5 13 7 12c.5-1 2 2 3 1s1-3 2-2 2 4 1.5 9 5-1.31 6-2.5-1-13.5-2-14S2.5.5.5 2s-4 11-3.5 11q.5 0 4.5 4.5" mask="url(#X)"/></g><path fill="#5b5c7a" d="M292.5 287.5q-1.616 16.065-2 21.5c-.281 3.975.76 8.39 1 12 .34 5.142 0 9.322 0 14 0 2 9.672 7.188 12-18.5.221-2.44-.28-21.75-4-30q-1.21-2.682-7 1"/><path fill="#ce8342" d="M266 252.5q4.5 1.5 6.5 5c2 3.5 8.5 9 10.5 12.5s2.5 2.5 4 3.5q1.5 1 6-3.5-2.5-5.5-4.5-6.5c-2-1-3.5-4-4.5-4q-1 0-18-7"/><path fill="#ce8342" d="m290.5 265.5-4 29.5 4.5-4.5 1.5-23.5z"/><path fill="#8889ab" d="M313.5 276.5q.999 4.74.5 9.5c-.503 4.801-5.616 20.697-6 23.5-.795 5.809.01 10.742-1 15.5-.989 4.662-2.782 8.8-4.5 13-3 .5-4.5-.5-4.5-1 0-.286.732-2.95.5-12.5-.083-3.434-.79-9.966-1-14.5-.229-4.935 1.394-11.576.5-17.5q13-14.5 15.5-16"/><g transform="translate(297 276)"><mask id="Z" fill="#fff"><use xlink:href="#Y"/></mask><path fill="#6f7091" d="M-.5 21q6.5-4.5 9-6C9 19 5 32.5 6 35s2 12.5 1 17.5q-1 5-4 13 5 2 6.5.5c1.5-1.5 12.5-23 14-33s3.5-30.5 1-31.5-10.814-3-11.907-2.5Q11.5-.5-3.5 23z" mask="url(#Z)"/></g><path fill="#23243b" d="M254 226q5-.5 8 4.5t1 8q-1.5 2-2 1c-.5-1-.7-5.394-2.1-6s-2.4 1-2.4 2q0 1 .5 3-2 .5-2.5-1.5t-4-4.106V229.5q0-.5 3.5-3.5"/><path fill="#f8a863" d="M261.5 226q2.5 8 7 10c2-1 10 0 16.5 3.5q6.5 3.5 14 11 13.5 8.5 16.5 26.5c-3 4.5-12 15-26.5 20 .5-10 3-26.25 1.5-30.5q-1 .5-2.25-1.5-5.75 1.5-16.75-6c-2.068-1.41-2.648-3.067-4-4q-3.444-2.375-4.5-2 2-3 2-4c-2 0-3.5 1-5 4 .459-2.751 2.357-6.806 2.5-13.5q.065-3.038-1-13.5"/><g transform="translate(260 226)"><mask id="ab" fill="#fff"><use xlink:href="#aa"/></mask><path fill="#e79854" d="M1 .5q2 5.5 4 8T5 20q3.5-5.5 9-5.5c5.5 0 9 1.5 9.5 5.5s.5 13.5 5 16.5 7.5-3 9.5.5 6 16.5 4 32q-2 15.5-7 15.5L77.5 73Q66 21 62.5 17.5C59 14 12-7.5 6.5-8.5Q1-9.5 1 .5" mask="url(#ab)"/></g><path fill="#f8a863" d="M278 241c-4 .5-5 3-5 5s1 16 1 18q-1 0-.5 1.5-1.5 0-2 1.5H267l1 10q12-2 14.5-4c2-3.5 3.5-19 3-23s-3.5-9.5-7.5-9"/><g transform="translate(267 240)"><mask id="ad" fill="#fff"><use xlink:href="#ac"/></mask><path fill="#e79854" d="M15.5 3.5q-2.88 2.03-2.64 4.276Q14.668 24.665 13 28q-2 4-14.5 5L-7 45.5q20.5.5 21-1.5c.5-2 9.5-28.5 9.5-29.5q0-1-5-16.5z" mask="url(#ad)"/></g><path fill="#f9d6b8" d="M298 248.5q-1.5 8.5-10 17 1.5 1.5 2.5 1 8-10 9-16.5-1-1.5-1.5-1.5"/><path fill="#ce8342" d="M308 263q-6.5 8-8 9c3.5 5 4 9 7.5 5.5q3.5-3.5.5-14.5"/><path fill="#e9bf94" d="M264 269q-2.5 1-3.5 1c-1 0-6-2.5-9-1.5s-1 3-1 3.5 0 1.5 1 2.5.5 1 1.5 1.5 3.5 1 5.5 0q2-1 6-1z"/><path fill="#f9d6b8" d="m262.5 266.5 4.5-.5q3 4.5 1.5 12-4.5 1-5 1 .5-2.5.5-6t-1.5-6.5"/><path fill="#8889ab" d="M246 242q-7.5-12.5-3.5-16.5c1.5-1.5 2 0 3-1s0-1.5 1-2 7 1 11 2.5c.5 2-4 9-5 10.5q-1 1.5-6.5 6.5"/><g transform="translate(241 222)"><mask id="af" fill="#fff"><use xlink:href="#ae"/></mask><path fill="#5b5c7a" d="M2.5 2c.5.5 0 2.5 1.5 2s2-1 3-1.5 3.5-.5 4 4-2.5 7-3 8.5q-.5 1.5-.5 3 10.5-5 11-5c.5 0 5.5-9.5 5-11S19-4.5 15-4 9-5 7-3 2 1.5 2.5 2" mask="url(#af)"/></g><path fill="#474864" d="M238 247q.203.552.5.5c4.962-.877 9.725-4.467 13.5-9.5 6-8 8.5-15.5 11-18-5.5 4-5.5 5.5-6.5 7s-3 7-12 16q-2 2-6.5 4"/><path fill="#e9bf94" d="M287.5 266.5q-3 1-2 2.5c1 1.5-.5 3 1.5 3s3-.5 3.5-1 0-1.5-.5-2.5q-.5-1-2.5-2"/><path fill="#474864" d="M254.5 270q-9-2.5-9.5-2.5c-.5 0-2 2.5-1 2.5s8.5 2 9.5 2q1 0 1-2"/><path fill="#23243b" fill-rule="nonzero" d="M237.304 270.198c3.35.835 6.207-.093 6.547-1.46.341-1.366-1.745-3.526-5.096-4.362-3.35-.835-6.207.093-6.547 1.46-.341 1.366 1.745 3.526 5.096 4.362m-.242 1.97c-4.287-1.069-7.275-3.89-6.674-6.302s4.564-3.5 8.851-2.43c4.287 1.068 7.275 3.89 6.674 6.301s-4.564 3.5-8.851 2.431"/><path fill="#5b5c7a" fill-rule="nonzero" d="M237.304 269.198c3.35.835 6.207-.093 6.547-1.46.341-1.366-1.745-3.526-5.096-4.362-3.35-.835-6.207.093-6.547 1.46-.341 1.366 1.745 3.526 5.096 4.362m-.242 1.97c-4.287-1.069-7.275-3.89-6.674-6.302s4.564-3.5 8.851-2.43c4.287 1.068 7.275 3.89 6.674 6.301s-4.564 3.5-8.851 2.431"/></g></svg>