<svg xmlns="http://www.w3.org/2000/svg" xmlns:xlink="http://www.w3.org/1999/xlink" width="503" height="532" viewBox="0 0 503 532"><title>romance</title><defs><path id="b" d="M0 1h330.6v234.3c-8.6 4.5-19 10.5-31.8 18.2l-98.7 65.6L.1 185.7V1z"/><path id="e" d="M10.4 5.2C20.7 10.4 86.9 53 97.9 62.7c7.3 6.5 3.5 8.3-11.7 5.2a920 920 0 0 1-44-26.8 136.8 136.8 0 0 1-37.7-34C-1.9-3.2 0 0 10.4 5.3z"/><path id="g" d="M10.4 5.2C20.7 10.4 86.9 53 97.9 62.7c7.3 6.5 3.5 8.3-11.7 5.2a920 920 0 0 1-44-26.8 136.8 136.8 0 0 1-37.7-34C-1.9-3.2 0 0 10.4 5.3z"/><path id="i" d="M10.4 5.2C20.7 10.4 86.9 53 97.9 62.7c7.3 6.5 3.5 8.3-11.7 5.2a920 920 0 0 1-44-26.8 136.8 136.8 0 0 1-37.7-34C-1.9-3.2 0 0 10.4 5.3z"/><path id="k" d="M10.4 5.2C20.7 10.4 86.9 53 97.9 62.7c7.3 6.5 3.5 8.3-11.7 5.2a920 920 0 0 1-44-26.8 136.8 136.8 0 0 1-37.7-34C-1.9-3.2 0 0 10.4 5.3z"/><path id="m" d="M0 1h330.6v234.3c-8.6 4.5-19 10.5-31.8 18.2l-98.7 65.6L.1 185.7V1z"/><path id="o" d="M228.6 131.6 196 153 0 22l10-6v-2.5L28.8.7z"/><path id="q" d="M228.6 131.6 196 153 0 22l10-6v-2.5L28.8.7z"/><path id="s" d="M228.6 131.6 196 153 0 22l10-6v-2.5L28.8.7z"/><path id="u" d="M0 1h330.6v234.3c-8.6 4.5-19 10.5-31.8 18.2l-98.7 65.6L.1 185.7V1z"/><path id="w" d="M0 1h330.6v234.3c-8.6 4.5-19 10.5-31.8 18.2l-98.7 65.6L.1 185.7V1z"/><path id="y" d="M0 1h330.6v234.3c-8.6 4.5-19 10.5-31.8 18.2l-98.7 65.6L.1 185.7V1z"/><path id="A" d="M0 1h330.6v234.3c-8.6 4.5-19 10.5-31.8 18.2l-98.7 65.6L.1 185.7V1z"/><path id="C" d="M0 1h330.6v234.3c-8.6 4.5-19 10.5-31.8 18.2l-98.7 65.6L.1 185.7V1z"/><path id="E" d="M0 1h330.6v234.3c-8.6 4.5-19 10.5-31.8 18.2l-98.7 65.6L.1 185.7V1z"/><path id="G" d="M0 1h330.6v234.3c-8.6 4.5-19 10.5-31.8 18.2l-98.7 65.6L.1 185.7V1z"/><path id="I" d="M0 1h330.6v234.3c-8.6 4.5-19 10.5-31.8 18.2l-98.7 65.6L.1 185.7V1z"/><path id="K" d="M0 1h330.6v234.3c-8.6 4.5-19 10.5-31.8 18.2l-98.7 65.6L.1 185.7V1z"/><path id="M" d="M0 1h330.6v234.3c-8.6 4.5-19 10.5-31.8 18.2l-98.7 65.6L.1 185.7V1z"/><path id="O" d="M2.5 5.5c1-4 4.5-5.7 10.5-5 4.4 1.2 7.3 2.6 8.5 4l.6.7c1.4 1 3 2.6 5.4 4.8 4.5 4 8 8 10 8S51.5 5.5 53 5.5s5 6.5 4.5 7-13.5 11-15 12.5-3 4-7 2a82 82 0 0 1-11-7C24 25.7 23 34 23 40c-.2 9 1.1 15.6-3 17-6 2-21-1-19.5-5.5.6-1.8 1.9-11.7 2-19 .2-10.7-.9-23.4 0-27"/><path id="Q" d="M9 10.5c-4.7 9-7.3 14.8-8 17.5q-1.05 4.05 1.5 1.5l6-8.5q5.25-.45 7.5-1.5c1.5-.7 3.2-2 5-4 .7-1.7.3-2.8-1-3.5-2-1-1.5-4-1.5-5.5l.5-6L13.5 3l-1 3c.3 1.7.3 2.8 0 3.5s-1.5 1-3.5 1"/><path id="S" d="M12.5 21.5c0 1 .5 4 0 4.5q-.45.45-12 33 16.5 11.55 39 0L25 26v-3.5c0-1.5 1.5-2 2-6.5s2-9 1-10.5c-.7-1-2-2-4-3 1 1.7-.3 4-4 7-5.5 2-5.5 2-6-.5s-1.5-6.5-.5-7L16 1c-1.7-.3-2.8.2-3.5 1.5-1 2-4 9.5-2.5 13s2.5 5 2.5 6"/><path id="U" d="M6 8C4 9.5.5 13.5.5 15.5s1 3.5 4 1.5c2-1.3 3.5-4 4.5-8 1.3-.3 2.2-.8 2.5-1.5 0 1 .5 1.8 1.5 2.5 1.5 1 5.5 10 11.5 10S26 2.5 25 1.5s-3-2-4 1 1.5 10 1.5 11-7-4.5-7-4.5.5-4.5-.5-6-.5-3-2-3-3 1.5-3.5 2.5S8 6.5 6 8"/><path id="W" d="M0 1h330.6v234.3c-8.6 4.5-19 10.5-31.8 18.2l-98.7 65.6L.1 185.7V1z"/><path id="Y" d="M0 1h330.6v234.3c-8.6 4.5-19 10.5-31.8 18.2l-98.7 65.6L.1 185.7V1z"/><path id="aa" d="M0 1h330.6v234.3c-8.6 4.5-19 10.5-31.8 18.2l-98.7 65.6L.1 185.7V1z"/><path id="ac" d="M0 1h330.6v234.3c-8.6 4.5-19 10.5-31.8 18.2l-98.7 65.6L.1 185.7V1z"/><path id="ae" d="M0 1h330.6v234.3c-8.6 4.5-19 10.5-31.8 18.2l-98.7 65.6L.1 185.7V1z"/><path id="ag" d="M4 2.5C1.5 4-1 7 1 12s1.5 6.5 4 8 6-1.5 7-2.5 4.5-5.6 4-6c-.5-.5 0-6-1-6.5S11.5.5 8.5 1 6.5 1 4 2.5"/><path id="ai" d="M0 1h330.6v234.3c-8.6 4.5-19 10.5-31.8 18.2l-98.7 65.6L.1 185.7V1z"/><linearGradient id="a" x1="42.5%" x2="52.4%" y1="76.5%" y2="54.7%"><stop offset="0%" stop-color="#faf8f0"/><stop offset="100%" stop-color="#fff"/></linearGradient><linearGradient id="d" x1="48.5%" x2="52.9%" y1="54.4%" y2="49.1%"><stop offset="0%" stop-color="#bcebff" stop-opacity="0"/><stop offset="100%" stop-color="#87bed7"/></linearGradient></defs><g fill="none" fill-rule="evenodd"><path fill="#5e7710" d="M24.6 392.3 226.7 527c8.7 5.8 20 5.8 28.7 0l164.3-110.7c7.4-5 7.4-15.9 0-20.8L210.7 256a12.5 12.5 0 0 0-14 0l-172 115.4c-7.5 5-7.5 16 0 20.9" opacity=".15"/><path fill="#d2b59a" d="M0 347.7v-5l174-114.8a7.2 7.2 0 0 1 8 0L246.4 2.4s8.2-3.3 12.9-.6L487.6 151c12.566 8.304 17.915 24.063 13 38.3L437.9 373a42 42 0 0 1-12 17.4l-9 6-157.6 104.9a31 31 0 0 1-34.3 0L2.9 353.1a6.49 6.49 0 0 1-2.9-5.4"/><path fill="#867054" d="M3.2 348.7a7.2 7.2 0 0 1 0-12l170.1-113.2a7.2 7.2 0 0 1 8 0L239.9 9.6c1.9-7 10.2-10.2 16.3-6.2l227.3 148.7c12.6 8.2 18 23.9 13 38.1l-61 177.3-.2.8c-2.1 6.6-6 12.5-11.1 17.1l-9 6-158.4 105.4c-9.5 6.4-21.9 6.4-31.4 0z"/><path fill="#513b20" d="m496.6 190.2-61 177.3a40.2 40.2 0 0 1-11.4 18l-9 6-136.7 90.9c-9.5 6.4-30.5 11.8-40 5.4C366.4 298.1 443.8 195 470.7 178.6c23-13.9 26.7 9.1 25.9 11.6" opacity=".5"/><path stroke="#be9365" stroke-dasharray="3.604" stroke-linecap="round" stroke-linejoin="round" stroke-width="1.1" d="M186.6 228.6 246 11.4a4.3 4.3 0 0 1 6.6-2.5L480 157.5a26.3 26.3 0 0 1 10.4 30.6l-61 177.4-.3.8a33 33 0 0 1-9 14l-8.5 5.7-158.3 105.4a21.8 21.8 0 0 1-24.3 0L10.6 345.8a3.7 3.7 0 0 1 0-6.2L176.9 229l.4-.2c.1 0 .3 0 .4.2l4.5 3"/><path stroke="#f7931e" stroke-linecap="round" stroke-linejoin="round" stroke-width=".7" d="m183.7 232.8 1.5 1 .4-1.7"/><path fill="#fff" d="m393.3 354.2-144.2 96a14.4 14.4 0 0 1-16 0L16.5 305.6"/><path stroke="#000" stroke-linecap="round" stroke-linejoin="round" stroke-width=".7" d="m393.3 354.2-144.2 96a14.4 14.4 0 0 1-16 0L16.5 305.6"/><path fill="#f4f1ec" stroke="#dcd3c4" stroke-width="1.8" d="M14.1 307.2v27.7c0 2.5 1.3 5 3.4 6.4l216.1 144c4.6 3 10.5 3 15 0l161.8-107.6 1-4a22.8 22.8 0 0 1 11.4-15l57.4-167.1c4-11-.1-23.2-9.9-29.7l-220-146.1a14.7 14.7 0 0 0-8-2.5h-7.4L178 204.8 14 307.2z"/><path fill="#dfdcd3" d="M481.3 174.8a26.3 26.3 0 0 1-.2 17.1l-57.5 167.5a22 22 0 0 0-11.4 14.4l-1 4.4-162.1 108a14.4 14.4 0 0 1-8.4 2.3v-30.9l2.7-9.4 221.4-272.3z" opacity=".6"/><path fill="url(#a)" stroke="#dcd3c4" stroke-width="1.8" d="m178.1 203.7 232.4 155c0-1.2.2-2.6.4-4.2a411 411 0 0 1 22-83c4-9.9 8.5-20 14.6-33l12.6-26.2c4.5-9.5 7.6-16.6 9.9-22.9 3.6-9.7 0-20.6-8.6-26.3L239.1 15a9 9 0 0 0-13.8 5 789 789 0 0 1-34.5 98.1 158.9 158.9 0 0 0-13 48.9 159.4 159.4 0 0 0 .3 36.8z"/><path fill="#dbd3c3" fill-rule="nonzero" d="M392.4 325c4.8-34.8 21.7-81 50.8-139l-.8-.4c-29.1 58-46 104.4-50.9 139.2zm-14.4-9c4.8-34.8 21.7-81 50.8-139l-.8-.4c-29.1 58-46 104.4-50.9 139.2zm-14-10.4c4.8-34.7 21.8-81 50.9-138.9l-.9-.4c-29 58-46 104.3-50.8 139.2z"/><path fill="#fff" stroke="#dcd3c4" stroke-width="1.8" d="M177 205.1c-.6 0-1.7 0-3.4.4-2.6.5-6 1.7-10.4 3.6-12 5.1-29.4 14.8-52.8 30l-93.4 62c-3.9 2.7-3.9 8.4 0 11l216.6 144.5c4.6 3 10.5 3 15 0l100.5-66.8c22-13.4 38.1-22 49.4-26.7a68 68 0 0 1 10.2-3.5z"/><path fill="#eae8e2" stroke="#dcd3c4" d="m40.7 306.3 79.2-52.7c25.7-16.8 43-26 53.3-30h.3l199 132.7-.7.4a611 611 0 0 0-31.7 18.3l-.3.1-98.7 65.6-201-134z"/><path fill="#e1ddd2" fill-rule="nonzero" d="m232.8 138.6-.6 2.4-.9-.2c.3-1 .3-2.1.1-3.5l-.1-1 .5-.6 8.4 5.4 1.1-1.7.7.4-2.5 5.4-.7-.5.6-1.8zm26.7 47.6c0 .5-.2 1-.4 1.5a4 4 0 0 1-.7 1.2 3.5 3.5 0 0 1-2.2 1.2 6 6 0 0 1-1.3 0c-1 0-1.9-.3-2.8-.8-.9-.4-1.6-.9-2.2-1.3a10.5 10.5 0 0 1-2.8-3.4c-.3-.7-.6-1.3-.7-2-.3-1.3-.3-2.5.1-3.7.4-1 1-2 1.5-2.9l.2-.2 3 2.1-.4 1-2.3-.9-.7.7-.4 1.2c-.2.4-.2.9-.2 1.4.1.5.2 1 .5 1.6.2.5.5 1 .9 1.4 1 1.3 2.3 2.3 3.8 3 1.3.7 2.5 1 3.6 1 1.2 0 2-.5 2.3-1.5a4 4 0 0 0 .2-2.2l-.3-.6-1.5-1.4.4-1 2.7 1.7a29 29 0 0 0 0 1.7zm4.4-11.7c-.3.7-.8.9-1.5.5a16.3 16.3 0 0 1-2.7-1.9 53 53 0 0 1-1.6-1.2 13 13 0 0 0-1.6-1l-.9-.3h-.4c-.2 0-.4.3-.5.5v1l.1 1c.2.7.6 1.5 1 2.2l6.1 4.1-.6 1.7-12-8-.8.8-.6-.5.4-2.5.4-.3 5.8 3.8a7 7 0 0 1-1-3.5l.1-1.1.5-.8c.1-.2.4-.3.6-.4.6-.1 1.3 0 2.2.5l1.7 1 1.2 1 1.3.9c.9.6 1.5 1 1.7 1h.3l-.1-1.2h.5l.4.8zm2-10a4 4 0 0 1 .4 3.3c-.4 1-1 1.5-1.9 1.7-.8.1-1.7-.1-2.9-.7-.9-.4-1.7-1.1-2.6-2a7.7 7.7 0 0 1-2-5c0-.6 0-1.2.2-1.8s.5-1.1 1-1.6v-1.2l8 5.3c.2.2.3.2.5.2 0 0 .2 0 .2-.2l-.1-.9h.5l.4.8a3 3 0 0 1 0 1.7c-.3.7-.7.9-1.4.5h-.2zm-7.1-4.8c-.3.2-.5.5-.7 1a3 3 0 0 0-.2 1.3l.3 1.2.7 1.2a8.6 8.6 0 0 0 4.2 3l1 .2c.5 0 .9-.3 1-.7.3-.8.2-1.6-.2-2.6l-.3-.7zm11.5-4.1c0 .6-.1 1.1-.3 1.6-.1.5-.3.9-.6 1.3l4.2 2.8-.6 1.7-12.2-8.2-.8.7-.6-.5.4-2.5.3-.3 1 .7a3.9 3.9 0 0 1-.3-3.2c.3-1 1-1.5 1.8-1.7.9-.2 1.8 0 3 .6a9 9 0 0 1 4.7 7m-2 2.1c.3-.2.5-.5.7-1s.2-1 .2-1.3c0-.4-.2-.9-.4-1.2-.1-.4-.4-.8-.7-1.2l-1-1a9.5 9.5 0 0 0-2.1-1.6 4 4 0 0 0-2-.5c-.6 0-1 .3-1 .7-.3.7-.3 1.5.1 2.5l.4.7 5.8 4zm5-9.6q-.6 1.65-2.1.9h-.1l-1-.7-6-3.9-.3 1-.7-.5v-1.3c-.3-.5-.9-1.3-1.9-2.3l.3-.8 2.1 1.4.9-2.3 1 .8-.7 2.3 5 3.4a15 15 0 0 0 2 1h.2q.3 0 .3-.3l.2-.6v-.6a6 6 0 0 0-.2-1l.7.2a5 5 0 0 1 .3 3.3m1.6-8.5c.4-1 .3-2.3-.2-3.6h.9c.3.4.5 1 .6 1.9s.1 1.7-.1 2.4c-.3.7-.6 1.2-1 1.5a3 3 0 0 1-2.7.7l-1-.3a32 32 0 0 1-2-1.3 9.8 9.8 0 0 1-2.3-2.6c-.3-.5-.5-1-.6-1.6a4.9 4.9 0 0 1 0-3c.4-1.2 1.1-1.8 2.1-1.7a2.8 2.8 0 0 1 2 1.2l.7 1.3.3 1.5a11 11 0 0 1-.3 4 4.2 4.2 0 0 0 2 .6h.7c.4-.2.7-.5.9-1m-4.5-.1c.3-.9.3-1.8.1-3a4 4 0 0 0-.7-1.8c-.2-.2-.5-.5-.9-.6-.4-.2-.7-.3-1-.2a1 1 0 0 0-.5.7 2 2 0 0 0-.1.9l.3 1 .5.9a8.9 8.9 0 0 0 2.3 2zm-.2-10.5-.8.6-.7-.5.3-2.3.3-.4 1.9 1.2c-.7-.9-1-1.8-1.2-3l.1-1 .4-.7 1.6 1.3-.4.6-.2 1 .1.8c.2.7.6 1.4 1.2 2l5.8 3.9-.6 1.7z"/><path stroke="#f25153" stroke-linecap="round" stroke-linejoin="round" stroke-width="3.2" d="M411.2 378.2s1-12.5 12.4-18.8"/><path fill="#8f663b" d="M251 167c-.7-3.7.7-5.5 4-5.5s4 14.4 6 22.5c1 4.2 3.5 6.3 3.5 8 0 3.3-1.8 4.7-5.5 4-3-1.7-4.2-3.2-3.5-4.5 1-2 1-4.5 1-8 0-2.3-.3-4.7-1-7z"/><g transform="translate(41 121)"><mask id="c" fill="#fff"><use xlink:href="#b"/></mask><g mask="url(#c)"><path fill="#bcebff" stroke="#7eafc4" d="m133.9 113 197.6 132.4-.7.3a610 610 0 0 0-31.7 18.2l-99 65.8-201-134 .7-.4q42-23.1 54.9-34.2a166.3 166.3 0 0 1 46-30c5-2.5 8.5-4.4 11-6a1723 1723 0 0 1 24.6-15h.7v.7l-.1.1z"/><path fill="#9ad2eb" d="M126.6 116.5 318.5 242l-17 19-63.5-42.5c-2.3 6.7-10.3 14.8-24 24.5s-32 16.8-55 21.5L104 242l83.5-58-69.5-46.5A157 157 0 0 1 95.5 149c-15.5 6.5-21 16.7-33.5 25.5-4.9 3.4-11.7 7.1-20.5 11l-12-6.7c12-7.1 20.4-12.9 25.5-17.3 11-9.5 22-18 31-22.5 10.7-5.3 20.4-10 26-13.5z"/><path fill="url(#d)" d="M314 259v20.4L114 146v-21z"/><path fill="#9ad2eb" d="M196 236.2c4.8 7.5 8.9 13 12.2 16.7 2.8 3.1 5.8 6.2 9.2 9.2q21 19.35 57 37.5c39.8 20 40.7 11 2.6-26.8-44.5-21.8-67.2-33.3-68-34.6-.9-1.3-5.2-2-13-2"/><path fill="#3a3a3a" d="M196 208.2c1.4 9.1 3.7 17.8 7.1 26 5.1 12.5 38.3 41.2 74.6 58.8 24.2 11.8 35.9 9.6 35-6.5-35.9-24.8-61-41.6-75.2-50.3-21.4-13-31.1-15.7-36.2-24.7-1.5-2.6-2.3-8.7-3.3-9.8-.5-.6-1.2 1.6-2 6.5"/><path fill="#bd3e40" d="M215.4 226.4c10.3 5.2 76.5 47.8 87.5 57.5 7.3 6.5 3.5 8.3-11.7 5.2a920 920 0 0 1-44-26.8 136.8 136.8 0 0 1-37.7-34c-6.4-10.3-4.5-7.1 5.9-1.8z"/><g transform="translate(205 221.2)"><mask id="f" fill="#fff"><use xlink:href="#e"/></mask><path fill="#8f2a2b" d="M14.3 11.8c4 2.4 16 11.4 36.3 26.9 1 .8-10.5 6.6-9.1 7.7.6.4 4.9 2.7 9 2 3.4-.7 6.8-4.5 7.4-4 4 3 11.9 9 23.8 18.3C95 51.4 101.6 45.3 101 44.4c-.4-.9-51.4-25.2-153-73.1 19.5 17 29.2 26 29.2 27.4C-22.7 0-14 6 3.3 17l9.7 1.3c-4.7-7.9-4.3-10 1.3-6.5" mask="url(#f)"/></g><g transform="translate(205 221.2)"><mask id="h" fill="#fff"><use xlink:href="#g"/></mask><path fill="#3a3a3a" d="M18.8 24.2s8.8 9.5 12.3 7.1c1.6-1 2-11-1.3-15C35.7 17.6 3.2-3.3 2-3.3c-1.3 0-3.8-2-4.5 1.3-.6 3.3-1.3 3.6.7 7.9 1.9 4.3 3.8 11 8.4 13.7a60.6 60.6 0 0 0 12.3 4.6z" mask="url(#h)"/></g><g transform="translate(205 221.2)"><mask id="j" fill="#fff"><use xlink:href="#i"/></mask><path fill="#ceb9a5" d="M18.8 24.2s2.6-7.2 11-7.9C35.7 17.6 3.2-3.3 2-3.3c-1.3 0-3.8-2-4.5 1.3-.6 3.3-1.3 3.6.7 7.9 1.9 4.3 3.8 11 8.4 13.7a60.6 60.6 0 0 0 12.3 4.6z" mask="url(#j)"/></g><g transform="translate(205 221.2)"><mask id="l" fill="#fff"><use xlink:href="#k"/></mask><path fill="#ac9986" d="M7.8 17.2s2.6-7.2 11-7.9C24.7 10.6-7.8-10.3-9-10.3c-1.3 0-3.8-2-4.5 1.3-.6 3.3-1.3 3.6.7 7.9 1.9 4.3 3.8 11 8.4 13.7a60.6 60.6 0 0 0 12.3 4.6z" mask="url(#l)"/></g><g fill="#f25153"><path d="M236.2 254.5c-2.2-6.5-1.7-10.4 1.3-11.6 3-1.3 5-.2 5.8 3.2-.4-4.7.9-7.4 4-7.8 3-.4 4.5 1.3 4.5 5.2v7.9c4.7 2.6 7.3 5 7.7 7.1.5 2.2-2.1 4.6-7.7 7.2a297 297 0 0 1-9.8-6.5c-2.1-1.5-4-3-5.8-4.6z"/><path stroke="#fff" stroke-linecap="round" stroke-linejoin="round" stroke-width="1.3" d="M236.2 254.5c-2.2-6.5-1.7-10.4 1.3-11.6 3-1.3 5-.2 5.8 3.2-.4-4.7.9-7.4 4-7.8 3-.4 4.5 1.3 4.5 5.2v7.9c4.7 2.6 7.3 5 7.7 7.1.5 2.2-2.1 4.6-7.7 7.2"/></g><path stroke="#6a5539" stroke-linecap="round" stroke-linejoin="round" stroke-width="2.6" d="m219.3 199.7 7.8 30.6"/><path fill="#ceb9a5" d="M222 227.7c2.5 0 3.8-1.3 3.8-3.9s.7-2.4 2 .7c-.9 2.1-1.3 3.9-1.3 5.2s-1.5.6-4.6-2z"/></g></g><g transform="translate(41 121)"><mask id="n" fill="#fff"><use xlink:href="#m"/></mask><g mask="url(#n)"><path fill="#a39786" d="M228.6 301.6 196 323 0 192l10-6v-2.5l18.8-12.8z"/><g transform="translate(0 170)"><mask id="p" fill="#fff"><use xlink:href="#o"/></mask><path fill="#f6ead9" d="m228.6 131.6-18.8 13.1L10 13.5l19-13z" mask="url(#p)"/></g><g transform="translate(0 170)"><mask id="r" fill="#fff"><use xlink:href="#q"/></mask><path fill="#6a5539" d="M209.8 148.5v-3.8L10 13.5V16z" mask="url(#r)"/></g><g transform="translate(0 170)"><mask id="t" fill="#fff"><use xlink:href="#s"/></mask><path fill="#86745a" d="m9 25 8-5v-2.5l15-9.4L235 141c1-1.4-.5-3.6-4.5-6.5-4-3-68.5-46.1-193.5-129.5l-9-7.5L5.5 11.3l-7 13.7z" mask="url(#t)" opacity=".2"/></g></g></g><g transform="translate(41 121)"><mask id="v" fill="#fff"><use xlink:href="#u"/></mask><path fill="#f6ead9" d="m331.5 237.9-17.4 10.5L114 115l16.8-10z" mask="url(#v)"/></g><g transform="translate(41 121)"><mask id="x" fill="#fff"><use xlink:href="#w"/></mask><path fill="#ddcfbc" fill-rule="nonzero" d="m204.4 159.6 2 .5-3.8.4c-1.1.9-4.8 1.6-10 1.3-3.6-.4-3.6-.4-4-1.1 2.6-1 8.5-.8 12-.8zm-5.6-3.6 2 .6c-1 0-2.3.2-3.9.4-1 .8-4.7 1.5-10 1.3-3.5-.4-3.5-.4-4-1.1 2.6-1 8.6-.9 12-.8zm-6-3.6 2 .6-4 .3c-1 .9-4.7 1.6-9.9 1.3-3.6-.4-3.6-.4-4-1 2.6-1 8.5-.9 12-.8l3.8-.4zm-5.7-3.5 2 .5-3.8.4c-1.1.9-4.8 1.6-10 1.3-3.6-.4-3.6-.4-4-1.1 2.6-1 8.5-.8 12-.8zm-4.8-3.3 2 .5-3.8.4c-1.1.9-4.8 1.6-10 1.3-3.6-.4-3.6-.4-4-1.1 2.6-1 8.5-.8 12-.8zm-4.8-3.3 2.1.5-4 .4c-1 .8-4.7 1.6-9.8 1.3-3.7-.4-3.7-.4-4.2-1.1 2.7-1 8.7-.8 12-.8l4-.3zm-6-3.7 2.1.6-3.9.4c-1 .8-4.7 1.6-10 1.3-3.5-.4-3.5-.4-4-1.1 2.6-1 8.6-.8 12-.8l3.9-.4zm-6-3.9 2 .6-3.8.3c-1.1.9-4.8 1.6-10 1.4-3.6-.4-3.6-.4-4-1.2 2.6-1 8.5-.8 11.9-.7l4-.4zm-6-4 2 .6-4 .4c-1 .9-4.7 1.6-9.8 1.3-3.7-.4-3.7-.4-4.1-1 2.6-1 8.6-.9 12-.8l3.9-.4zm-5.7-3.5 2 .6-3.9.4c-1 .8-4.7 1.5-10 1.3-3.5-.4-3.5-.4-4-1.1 2.6-1 8.6-.8 12-.8zm-6-3.6 2 .6-4 .3c-1 .9-4.7 1.6-9.8 1.4-3.7-.5-3.7-.5-4.1-1.2 2.6-1 8.6-.8 12-.7zm-5.7-3.5 2.1.5-4 .4c-1 .9-4.7 1.6-9.8 1.3-3.7-.4-3.7-.4-4.1-1 2.6-1 8.6-.9 12-.8zm-4.7-3.3 2 .5-4 .4c-1 .9-4.6 1.6-9.8 1.3-3.7-.4-3.7-.4-4.1-1 2.6-1 8.6-.9 12-.8zm-4.8-3.3 2 .5-3.9.4c-1 .9-4.7 1.6-10 1.3-3.5-.4-3.5-.4-4-1 2.6-1 8.6-1 12-.9zm194.8 128.1 2 .5-3.8.4c-1.1.9-4.8 1.6-10 1.3-3.6-.4-3.6-.4-4-1.1 2.6-1 8.5-.8 12-.8zm-5.6-3.6 2 .6c-1 0-2.3.2-3.9.4-1 .8-4.7 1.5-10 1.3-3.5-.4-3.5-.4-4-1.1 2.6-1 8.6-.9 12-.8zm-6-3.6 2 .6-4 .3c-1 .9-4.7 1.6-9.9 1.3-3.6-.4-3.6-.4-4-1 2.6-1 8.5-.9 12-.8l3.8-.4zm-5.7-3.5 2 .5-3.8.4c-1.1.9-4.8 1.6-10 1.3-3.6-.4-3.6-.4-4-1.1 2.6-1 8.5-.8 12-.8zm-4.8-3.3 2 .5-3.8.4c-1.1.9-4.8 1.6-10 1.3-3.6-.4-3.6-.4-4-1.1 2.6-1 8.5-.8 12-.8zm-4.8-3.3 2.1.5-4 .4c-1 .8-4.7 1.6-9.8 1.3-3.7-.4-3.7-.4-4.2-1.1 2.7-1 8.7-.8 12-.8l4-.3zm-6-3.7 2.1.6-3.9.4c-1 .8-4.7 1.6-10 1.3-3.5-.4-3.5-.4-4-1.1 2.6-1 8.6-.8 12-.8l3.9-.4zm-6-3.9 2 .6-3.8.3c-1.1.9-4.8 1.6-10 1.4-3.6-.4-3.6-.4-4-1.2 2.6-1 8.5-.8 11.9-.7l4-.4zm-6-4 2 .6-4 .4c-1 .9-4.7 1.6-9.8 1.3-3.7-.4-3.7-.4-4.1-1 2.6-1 8.6-.9 12-.8l3.9-.4zm-5.7-3.5 2 .6-3.9.4c-1 .8-4.7 1.5-10 1.3-3.5-.4-3.5-.4-4-1.1 2.6-1 8.6-.8 12-.8zm-6-3.6 2 .6-4 .3c-1 .9-4.7 1.6-9.8 1.4-3.7-.5-3.7-.5-4.1-1.2 2.6-1 8.6-.8 12-.7zm-5.7-3.5 2.1.5-4 .4c-1 .9-4.7 1.6-9.8 1.3-3.7-.4-3.7-.4-4.1-1 2.6-1 8.6-.9 12-.8zm-4.7-3.3 2 .5-4 .4c-1 .9-4.6 1.6-9.8 1.3-3.7-.4-3.7-.4-4.1-1 2.6-1 8.6-.9 12-.8zm-4.8-3.3 2 .5-3.9.4c-1 .9-4.7 1.6-10 1.3-3.5-.4-3.5-.4-4-1 2.6-1 8.6-1 12-.9z" mask="url(#x)"/></g><g transform="translate(41 121)"><mask id="z" fill="#fff"><use xlink:href="#y"/></mask><path fill="#917b5d" d="M314 259v-10.6L114 115v10z" mask="url(#z)"/></g><g transform="translate(41 121)"><mask id="B" fill="#fff"><use xlink:href="#A"/></mask><path fill="#6e5e48" d="M314 259v-3.6L114 122v3z" mask="url(#B)"/></g><g transform="translate(41 121)"><mask id="D" fill="#fff"><use xlink:href="#C"/></mask><path fill="#6a5a44" d="m243.8 201.6-28.5-19-1.8 9 28 18.8z" mask="url(#D)" opacity=".4"/></g><g transform="translate(41 121)"><mask id="F" fill="#fff"><use xlink:href="#E"/></mask><g mask="url(#F)"><path fill="#fff" d="m111.6 209-3.6 1-79-51.5 2.8-1.8z"/><path fill="#ceb9a5" d="M108 211.5V210l-79-51.5v1z"/><path fill="#fff" d="m111.6 221-3.6 1-79-51.5 2.8-1.8z"/><path fill="#ceb9a5" d="M108 223.5V222l-79-51.5v1z"/><g fill-rule="nonzero"><path fill="#fff" d="M103 207v2.5c1 2 1.4 5 .4 7-1 1-1 1-2 0-1-3 0-5.5.5-7V207h1.1m-5.5-3.5v2.5c1 2 1.5 5 .5 7-1 1-1 1-2 0-1-3 0-5.5.5-7v-2.5zm-5.6-3.5v2.5c1 2 1.5 5 .5 7-1 1-1 1-2 0-1-3 0-5.5.5-7V200zm-5.4-3.5v2.5c1 2 1.5 5 .5 7-.4.4-.7.7-.9.7H86c-.3 0-.5-.2-1-.7-1-3 0-5.5.5-7v-2.5zm-5-3.5v2.5c1 2 1.5 5 .5 7-1 1-1 1-2 0-1-3 0-5.5.5-7V193zm-5-3.5v2.5c1 2 1.5 5 .5 7-1 1-1 1-2 0-1-3 0-5.5.5-7v-2.5zm-5.6-3.5v2.5c1 2 1.5 5 .5 7-1 1-1 1-2 0-1-3 0-5.5.5-7V186zm-6-4v2.5c1 2 1.5 5 .5 7-1 1-1 1-2 0-1-3 0-5.5.5-7V182zm-6-4v2.5c1 2 1.5 5 .5 7-1 1-1 1-2 0-1-3 0-5.5.5-7V178zm-5.4-3.5v2.5c1 2 1.5 5 .5 7-1 1-1 1-2 0-1-3 0-5.5.5-7v-2.5zm-5.6-3.5v2.5c1 2 1.5 5 .5 7-1 1-1 1-2 0-1-3 0-5.5.5-7V171zm-5.4-3.5v2.5c1 2 1.5 5 .5 7-.4.4-.7.7-.9.7H42c-.3 0-.5-.2-1-.7-1-3 0-5.5.5-7v-2.5zm-5-3.5v2.5c1 2 1.5 5 .5 7-1 1-1 1-2 0-1-3 0-5.5.5-7V164zm-5-3.5v2.5c1 2 1.5 5 .5 7-1 1-1 1-2 0-1-3 0-5.5.5-7v-2.5z"/><path fill="#000" d="M103 207v2.5c1 2 1.4 5 .4 7-1 1-1 1-2 0-1-3 0-5.5.5-7V207h1.1m-5.5-3.5v2.5c1 2 1.5 5 .5 7-1 1-1 1-2 0-1-3 0-5.5.5-7v-2.5zm-5.6-3.5v2.5c1 2 1.5 5 .5 7-1 1-1 1-2 0-1-3 0-5.5.5-7V200zm-5.4-3.5v2.5c1 2 1.5 5 .5 7-.4.4-.7.7-.9.7H86c-.3 0-.5-.2-1-.7-1-3 0-5.5.5-7v-2.5zm-5-3.5v2.5c1 2 1.5 5 .5 7-1 1-1 1-2 0-1-3 0-5.5.5-7V193zm-5-3.5v2.5c1 2 1.5 5 .5 7-1 1-1 1-2 0-1-3 0-5.5.5-7v-2.5zm-5.6-3.5v2.5c1 2 1.5 5 .5 7-1 1-1 1-2 0-1-3 0-5.5.5-7V186zm-6-4v2.5c1 2 1.5 5 .5 7-1 1-1 1-2 0-1-3 0-5.5.5-7V182zm-6-4v2.5c1 2 1.5 5 .5 7-1 1-1 1-2 0-1-3 0-5.5.5-7V178zm-5.4-3.5v2.5c1 2 1.5 5 .5 7-1 1-1 1-2 0-1-3 0-5.5.5-7v-2.5zm-5.6-3.5v2.5c1 2 1.5 5 .5 7-1 1-1 1-2 0-1-3 0-5.5.5-7V171zm-5.4-3.5v2.5c1 2 1.5 5 .5 7-.4.4-.7.7-.9.7H42c-.3 0-.5-.2-1-.7-1-3 0-5.5.5-7v-2.5zm-5-3.5v2.5c1 2 1.5 5 .5 7-1 1-1 1-2 0-1-3 0-5.5.5-7V164zm-5-3.5v2.5c1 2 1.5 5 .5 7-1 1-1 1-2 0-1-3 0-5.5.5-7v-2.5z"/></g></g></g><g transform="translate(41 121)"><mask id="H" fill="#fff"><use xlink:href="#G"/></mask><g mask="url(#H)"><g transform="translate(127 76)"><path stroke="#fff" stroke-linecap="round" stroke-linejoin="round" stroke-width="2" d="M58 84.5V38"/><circle cx="6.5" cy="9.5" r="1.5" fill="#ffd3d3"/><circle cx="12.5" cy="17.5" r="1.5" fill="#f25153"/><circle cx="20.5" cy="25.5" r="1.5" fill="#ffd3d3"/><circle cx="30.5" cy="32.5" r="1.5" fill="#f25153"/><circle cx="39.5" cy="37.5" r="1.5" fill="#ffd3d3"/><circle cx="49.5" cy="39.5" r="1.5" fill="#f25153"/><path stroke="#fff" stroke-linecap="round" stroke-linejoin="round" stroke-width="2" d="M1.5 47V.5"/></g></g></g><g transform="translate(41 121)"><mask id="J" fill="#fff"><use xlink:href="#I"/></mask><g mask="url(#J)"><path fill="#fff" d="m196.6 153-3.6 1-79-51.5 2.8-1.8z"/><path fill="#ceb9a5" d="M193 155.5V154l-79-51.5v1z"/><path fill="#fff" d="m196.6 165-3.6 1-79-51.5 2.8-1.8z"/><path fill="#ceb9a5" d="M193 167.5V166l-79-51.5v1z"/><g fill-rule="nonzero"><path fill="#fff" d="M188 151v2.5c1 2 1.4 5 .4 7-1 1-1 1-2 0-1-3 0-5.5.5-7V151h1.1m-5.5-3.5v2.5c1 2 1.5 5 .5 7-1 1-1 1-2 0-1-3 0-5.5.5-7v-2.5zm-5.6-3.5v2.5c1 2 1.5 5 .5 7-1 1-1 1-2 0-1-3 0-5.5.5-7V144zm-5.4-3.5v2.5c1 2 1.5 5 .5 7-.4.4-.7.7-.9.7h-.1c-.3 0-.5-.2-1-.7-1-3 0-5.5.5-7v-2.5zm-5-3.5v2.5c1 2 1.5 5 .5 7-1 1-1 1-2 0-1-3 0-5.5.5-7V137zm-5-3.5v2.5c1 2 1.5 5 .5 7-1 1-1 1-2 0-1-3 0-5.5.5-7v-2.5zm-5.6-3.5v2.5c1 2 1.5 5 .5 7-1 1-1 1-2 0-1-3 0-5.5.5-7V130zm-6-4v2.5c1 2 1.5 5 .5 7-1 1-1 1-2 0-1-3 0-5.5.5-7V126zm-6-4v2.5c1 2 1.5 5 .5 7-1 1-1 1-2 0-1-3 0-5.5.5-7V122zm-5.4-3.5v2.5c1 2 1.5 5 .5 7-1 1-1 1-2 0-1-3 0-5.5.5-7v-2.5zm-5.6-3.5v2.5c1 2 1.5 5 .5 7-1 1-1 1-2 0-1-3 0-5.5.5-7V115zm-5.4-3.5v2.5c1 2 1.5 5 .5 7-.4.4-.7.7-.9.7h-.1c-.3 0-.5-.2-1-.7-1-3 0-5.5.5-7v-2.5zm-5-3.5v2.5c1 2 1.5 5 .5 7-1 1-1 1-2 0-1-3 0-5.5.5-7V108zm-5-3.5v2.5c1 2 1.5 5 .5 7-1 1-1 1-2 0-1-3 0-5.5.5-7v-2.5z"/><path fill="#000" d="M188 151v2.5c1 2 1.4 5 .4 7-1 1-1 1-2 0-1-3 0-5.5.5-7V151h1.1m-5.5-3.5v2.5c1 2 1.5 5 .5 7-1 1-1 1-2 0-1-3 0-5.5.5-7v-2.5zm-5.6-3.5v2.5c1 2 1.5 5 .5 7-1 1-1 1-2 0-1-3 0-5.5.5-7V144zm-5.4-3.5v2.5c1 2 1.5 5 .5 7-.4.4-.7.7-.9.7h-.1c-.3 0-.5-.2-1-.7-1-3 0-5.5.5-7v-2.5zm-5-3.5v2.5c1 2 1.5 5 .5 7-1 1-1 1-2 0-1-3 0-5.5.5-7V137zm-5-3.5v2.5c1 2 1.5 5 .5 7-1 1-1 1-2 0-1-3 0-5.5.5-7v-2.5zm-5.6-3.5v2.5c1 2 1.5 5 .5 7-1 1-1 1-2 0-1-3 0-5.5.5-7V130zm-6-4v2.5c1 2 1.5 5 .5 7-1 1-1 1-2 0-1-3 0-5.5.5-7V126zm-6-4v2.5c1 2 1.5 5 .5 7-1 1-1 1-2 0-1-3 0-5.5.5-7V122zm-5.4-3.5v2.5c1 2 1.5 5 .5 7-1 1-1 1-2 0-1-3 0-5.5.5-7v-2.5zm-5.6-3.5v2.5c1 2 1.5 5 .5 7-1 1-1 1-2 0-1-3 0-5.5.5-7V115zm-5.4-3.5v2.5c1 2 1.5 5 .5 7-.4.4-.7.7-.9.7h-.1c-.3 0-.5-.2-1-.7-1-3 0-5.5.5-7v-2.5zm-5-3.5v2.5c1 2 1.5 5 .5 7-1 1-1 1-2 0-1-3 0-5.5.5-7V108zm-5-3.5v2.5c1 2 1.5 5 .5 7-1 1-1 1-2 0-1-3 0-5.5.5-7v-2.5z"/></g></g></g><g transform="translate(41 121)"><mask id="L" fill="#fff"><use xlink:href="#K"/></mask><g mask="url(#L)"><g transform="translate(28 130)"><path stroke="#fff" stroke-linecap="round" stroke-linejoin="round" stroke-width="2" d="M58 84.5V38"/><circle cx="6.5" cy="9.5" r="1.5" fill="#ffd3d3"/><circle cx="12.5" cy="17.5" r="1.5" fill="#f25153"/><circle cx="20.5" cy="25.5" r="1.5" fill="#ffd3d3"/><circle cx="30.5" cy="32.5" r="1.5" fill="#f25153"/><circle cx="39.5" cy="37.5" r="1.5" fill="#ffd3d3"/><circle cx="49.5" cy="39.5" r="1.5" fill="#f25153"/><path stroke="#fff" stroke-linecap="round" stroke-linejoin="round" stroke-width="2" d="M1.5 47V.5"/></g></g></g><g transform="translate(41 121)"><mask id="N" fill="#fff"><use xlink:href="#M"/></mask><g mask="url(#N)"><path fill="#6a5539" d="m139.5 257.5 10.1-6.5c14.7-24.3 29.8-41 45.5-50s30.5-11.1 44.5-6.5c4.7-2.6 7-4.1 7-4.5-6.2-4-66.2-24.9-100 0-6.8 5-16.8 17.3-15.5 41 .3 4.8 3 13.6 8.4 26.5"/><path fill="#6a5539" d="m140 257 20.5 1.5-11.5-7z" opacity=".1"/><path fill="#f6ead9" d="M139.5 257.1c32-55.7 67.7-78.1 107-67.1a4339 4339 0 0 1-52.5-35.4c-23.6 1.7-40.8 6.5-51.5 14.4S117 196.7 98 228.5z"/><path fill="#86745a" d="m201.5 171 4.5 1.5a6 6 0 0 1 4 3.5l9.5.5c16.4 7.4 25.3 12.1 26.5 14-1 .5-6.4 3.3-6 4 1 1.5-2.5 2.8-6 1.5-3-1.1-6.1-4.9-5.5-4.5.3.2 11.7 2.9 12 3 4.8 2.4 13.5-.4 16 .5 5.8 2 3.2-.8-8-8.5l-22-14.5c-1.5-1-6.2-2.4-14-4.5z" opacity=".3"/><path fill="#d2b48b" d="M98 212.1c26-44 61.7-66.4 107-67.1l3 2-3 14.5a65.3 65.3 0 0 0-53.5 6.5c-18 10-35.8 29.8-53.5 59.5z"/><path fill="#86745a" d="m101 230.5-5.5 8.5c12.3-4.7 20.7-7.5 25-8.5 6.5-1.5 24.4-.5 32.3-2.5 6.7-1.7 8.2-7.5 3.2-7.5-10.9 0-18-5.5-22-5.5-8.6 0-12 3.9-12-1.5 0-3.8 8-9.3 9.5-11 18.7-22.1 38.5-34 58.7-36.9a70.6 70.6 0 0 1 19.8-.1 41.3 41.3 0 0 1-6.5-6c-22.7-2-36.3-1.5-41 1.5-7 4.5-27.5 19-28.5 19.5-.7.3-7.8 8.2-21.5 23.5L102 223.5z" opacity=".3"/><path fill="#6a5539" d="M101 214.1c26-44 61.7-66.4 107-67.1v16.5a72 72 0 0 0-53.5 8.5c-18 10-35.8 29.5-53.5 58.5z"/><path fill="#efdbc8" d="M101 230.5V214l-3-2v16.5z"/><path fill="#454545" d="M119.5 142c-5 12.7-7.7 19.8-8 21.5-.5 2.5-1 5 2.5 6.5 2.3 1 6.2 2.3 11.5 4l-2.5-22.5z"/><path fill="#e9bf94" d="m137.5 116 1 4.5c.5 2.5 1.7 2.9 2 4.5.4 2-.2 3.6 0 4.5.5 2.5.5 4.5-2 5.5-1.7.7-2.8 1-3.5 1l-1.5 3.5-6.5-2 .5-4c-4-6.7-5.3-11-4-13 2-3 2-5 5.5-5.5s6-1 7.5 0 .5-.5 1 1"/><path fill="#fff" d="m126 137-1.5 3.5 11.5 2-2-3.5a11 11 0 0 0-3.8-1.5c-1.4-.3-2.9-.5-4.2-.5"/><path fill="#212121" d="M149 217.5c-.7 2.3-.3 4 1 5s2.7 1.2 4 .5l2.5-1.5.5-1.5c6.3-1.3 10.7-3.3 13-6 2-3.5-4-3-6.5-2.5-1.7.3-4 .3-7 0z"/><path fill="#1b1b1b" d="M102.5 219.5c-2.7 1.3-3.8 2.8-3.5 4.5.5 2.5 1 6.5 2.5 7s3.5 0 4.5-1 6-7 6-7-4.5-3.5-5-3.5h-4"/><path fill="#414141" d="M138.5 180c9-2.7 14.7-4.2 17-4.5 3.5-.5 8.5 1 8 7s-6.5 25.5-6 27c.3 1 .7 1.5 1 1.5-.3 5-3.7 7.3-10 7-2-5 1.5-17.5 2.5-21s3.5-7.5 2-8.5-17.5 7-19 6.5c-1-.3-4.3-2.3-10-6 6-4.3 9.2-6.5 9.5-6.5s2-.8 5-2.5"/><path fill="#414141" d="M118 192.5c.3 9.7.3 15 0 16-.5 1.5-.9 2-.5 2.5s.3 1.5-.4 1.5c-.4 0-5.3 2.3-14.6 7 4 0 5.2 3.7 3.5 11 9-5.5 9.5-5.5 14-7.5s7.5-2.5 8-9c.3-4.3 1-10.8 2-19.5z"/><path fill="#7f1e1f" d="M179 146h1l8-4-6-3-7.5 3-.5 2z"/><path fill="#f25153" d="m181.5 138 6.5 2.5-7 3-5.5-3z"/><path fill="#f25153" d="m173 141-1-7.5 7.5 3.8.5 7.2z"/><path fill="#d13537" d="M181 143.5v-7l-1.5.8.5 7.2z"/><path fill="#d13537" d="m173 132.5 8 4-1.5.8-7.5-3.8z"/><path fill="#4c1011" d="M188 142v-1.5l-7 3v2z"/><path fill="#e9bf94" d="M170.5 144.5q.45-1.95 1.5-3c.7-.7 2.5-1.7 5.5-3q1.05.45-1.5 3c-2.5 2.5 1.5 3.5 4.5 3.5s4-1.5 4.5-.5-1 2-2 2.5-4.5.5-7.5.5q-3 0-4.5 1.5z"/><path fill="#fff" d="m169 145.5 1.5-1.5c2 2 3.2 4 3.5 6l-2 1.5z"/><path fill="#606060" d="M118.5 144.5c1-4 4.5-5.7 10.5-5 4.4 1.2 7.3 2.6 8.5 4l.6.7c1.4 1 3 2.6 5.4 4.8 4.5 4 8 8 10 8s14-12.5 15.5-12.5 5 6.5 4.5 7-13.5 11-15 12.5-3 4-7 2a82 82 0 0 1-11-7c-.5 5.7-1.5 14-1.5 20-.2 9 1.1 15.6-3 17-6 2-21-1-19.5-5.5.6-1.8 1.9-11.7 2-19 .2-10.7-.9-23.4 0-27"/><g transform="translate(116 139)"><mask id="P" fill="#fff"><use xlink:href="#O"/></mask><path fill="#3b3b3b" d="M25.5 18a13.4 13.4 0 0 0-6.5-2.5c-2.5 0 .5 7.5.5 15.5s-11 23-18 21S-5 56.5-5 57.5s27 18 27.5 16.5 14-22 14-24S60.5 6.5 60 6.5c-.2 0-18.2 21-23 18.2L25.4 18z" mask="url(#P)"/></g><path fill="#464646" d="m101.5 219 .3.2c2 1.5 1.7 4.4-.8 8.8.3.3.5.7.5 1a34 34 0 0 1-8.5 10c7 .5 8.5-3 11-8s2-9 1-10c-.7-.7-1.8-1.3-3.5-2"/><path fill="#959595" d="M102 219.5c-1.5-.5-3-.5-5 6.5.3.3.5.8.5 1.5A79 79 0 0 0 94 231c-1.3 1.4-2.6 2.6-3 4.5-1 5 4.5 3.5 6 1.5s5-6.5 4.5-9c.3-.8 1.7-2.1 2-5.5 0-.7 0-2.5-1.5-3"/><path fill="#6a5539" d="M134.5 124.5c-1 0-2 .5-2 2.5s.5 7.5-5 8.5c-2.5-2-8.5-10.5-6-16s7.5-6 10-6 5.5.5 6.5 1.5-.5 1.5-1 2.5 0 9-.5 9.5-1 0-1-1 0-1.5-1-1.5"/><path fill="#d2b48b" d="M136.5 239.1c26-44 61.7-66.4 107-67.1l3 2-3 14.5A65.3 65.3 0 0 0 190 195c-18 10-35.8 29.8-53.5 59.5z"/><path fill="#6a5539" d="M139.5 241.1c26-44 61.7-66.4 107-67.1v16.5A65.3 65.3 0 0 0 193 197c-18 10-35.8 30.2-53.5 60.5z"/><path fill="#efdbc8" d="M139.6 257.5V241l-3-2v16.5z"/><path stroke="#f8d763" d="M181 139.5c1.3-.3 2 0 2 1s-.7 1.7-2 2"/><path fill="#d8f3fe" d="m181.5 139.8.6-3 1.8-.4 2.1 1.3v1.6l-3 1.6z"/><path fill="#f6d5b4" d="M201 68.5c-4.7 9-7.3 14.8-8 17.5q-1.05 4.05 1.5 1.5l6-8.5q5.25-.45 7.5-1.5c1.5-.7 3.2-2 5-4 .7-1.7.3-2.8-1-3.5-2-1-1.5-4-1.5-5.5l.5-6-5.5 2.5-1 3c.3 1.7.3 2.8 0 3.5s-1.5 1-3.5 1"/><g transform="translate(192 58)"><mask id="R" fill="#fff"><use xlink:href="#Q"/></mask><path fill="#e9bf94" d="M20 6q-5.55 1.05-6 3c-.5 2-2.5 3-3 3.5S9.5 15 10.5 16s4 3 6.5 1.5a24 24 0 0 0 5.5-5l-1-5 3.5 4-1 2a67 67 0 0 1-7.5 8.5C16 22 8 24.5 7 21s-1.5-5.6-1-6.6c.5-.9 1.5-4.4 3-4.9q1.5-.45 3-6c1.5-1.3 2.7-2 3.4-2s3 1 6.6 3z" mask="url(#R)"/></g><path fill="#f25153" d="m203 169.5-2 1.5c3.7.7 6.5.2 8.5-1.5s2.7-3.5 2-5.5l-4 3-3.5 2.5z"/><path fill="#e7be93" d="M213 131c1 10 1.2 16.5.5 19.5l-3.5 16a7.6 7.6 0 0 1-2.5 2.5c-.7.3-2.3.4-5 .5 3-1.7 4.5-3 4.5-4 0-1.5.5-17 0-20-.3-2-.3-5.3 0-10l1.5-2.5 2-2.5z"/><path fill="#f25153" d="m208 173.5-1 1.5c2.7 0 5-1.5 7-4.5.3 2 .2 3.2-.5 3.5l2-1.3c.7-4.1.5-6.7-.5-7.7s-1.7-.8-2 .5z"/><path fill="#f6d5b4" d="M202.5 131a11 11 0 0 0 0 8c1.5 4 8 23.5 7.5 27s-1.5 6.5-2 7.5 5-1 6-8-1-19-2-21.5-4-5.5-2.5-8.5c1-2 1.8-4.7 2.5-8z"/><path fill="#f25153" d="M200.5 88.5c0 1 .5 4 0 4.5q-.45.45-12 33 16.5 11.55 39 0L213 93v-3.5c0-1.5 1.5-2 2-6.5s2-9 1-10.5c-.7-1-2-2-4-3 1 1.7-.3 4-4 7-5.5 2-5.5 2-6-.5s-1.5-6.5-.5-7l2.5-1c-1.7-.3-2.8.2-3.5 1.5-1 2-4 9.5-2.5 13s2.5 5 2.5 6"/><g transform="translate(188 67)"><mask id="T" fill="#fff"><use xlink:href="#S"/></mask><path fill="#cd3a3c" d="M27 3c-3.3 2.7-5 4.7-5 6 0 2 4 3.5 2.5 7S22 18 20 22s-5.5 6 0 13c3.7 4.7 6.5 17.2 8.5 37.5 19.3 0 29.2-.2 29.5-.5.5-.5-5.5-35.5-7.5-41s-2-13.5-8-18c-4-3-9.2-6.3-15.5-10" mask="url(#T)"/></g><path fill="#e9bf94" d="M198 80c-2 1.5-5.5 5.5-5.5 7.5s1 3.5 4 1.5c2-1.3 3.5-4 4.5-8 1.3-.3 2.2-.8 2.5-1.5 0 1 .5 1.8 1.5 2.5 1.5 1 5.5 10 11.5 10s1.5-17.5.5-18.5-3-2-4 1 1.5 10 1.5 11-7-4.5-7-4.5.5-4.5-.5-6-.5-3-2-3-3 1.5-3.5 2.5-1.5 4-3.5 5.5"/><g transform="translate(192 72)"><mask id="V" fill="#fff"><use xlink:href="#U"/></mask><path fill="#f6d5b4" d="M-1 17c5-3.7 8-6.8 9-9.5s2-4 3-4a13 13 0 0 0 3.5 2c1.5.5 4.5-2 2.5-4s-.5-4-2.5-4-.5-1.5-3 .5S8-2.5 5 3C3 6.7 1.2 10.8-.5 15.5z" mask="url(#V)"/></g></g></g><g transform="translate(41 121)"><mask id="X" fill="#fff"><use xlink:href="#W"/></mask><g mask="url(#X)"><path fill="#ceb9a5" d="m238 297.5-.5-1.5-88.5-57.5v1z"/><path fill="#fff" fill-rule="nonzero" d="m240 293.5-2.5 2.5-88.5-57.5 2.8-1.8zm-8.4 7.5-3.6 1-79-51.5 2.8-1.8z"/><path fill="#ceb9a5" d="M228 303.5V302l-79-51.5v1z"/><g fill-rule="nonzero"><path fill="#fff" d="M229 291v2.5c1 2 1.4 5 .4 7-1 1-1 1-2 0-1-3 0-5.5.5-7V291h1.1m-6-4v2.5c1 2 1.4 5 .4 7-1 1-1 1-2 0-1-3 0-5.5.5-7V287h1.1m-5.5-3.5v2.5c1 2 1.5 5 .5 7-1 1-1 1-2 0-1-3 0-5.5.5-7v-2.5zm-5.6-3.5v2.5c1 2 1.5 5 .5 7-1 1-1 1-2 0-1-3 0-5.5.5-7V280zm-5.4-3.5v2.5c1 2 1.5 5 .5 7-.4.4-.7.7-.9.7h-.1c-.3 0-.5-.2-1-.7-1-3 0-5.5.5-7v-2.5zm-5-3.5v2.5c1 2 1.5 5 .5 7-1 1-1 1-2 0-1-3 0-5.5.5-7V273zm-5-3.5v2.5c1 2 1.5 5 .5 7-1 1-1 1-2 0-1-3 0-5.5.5-7v-2.5zm-5.6-3.5v2.5c1 2 1.5 5 .5 7-1 1-1 1-2 0-1-3 0-5.5.5-7V266zm-6-4v2.5c1 2 1.5 5 .5 7-1 1-1 1-2 0-1-3 0-5.5.5-7V262zm-6-4v2.5c1 2 1.5 5 .5 7-1 1-1 1-2 0-1-3 0-5.5.5-7V258zm-5.4-3.5v2.5c1 2 1.5 5 .5 7-1 1-1 1-2 0-1-3 0-5.5.5-7v-2.5zm-5.6-3.5v2.5c1 2 1.5 5 .5 7-1 1-1 1-2 0-1-3 0-5.5.5-7V251zm-5.4-3.5v2.5c1 2 1.5 5 .5 7-.4.4-.7.7-.9.7h-.1c-.3 0-.5-.2-1-.7-1-3 0-5.5.5-7v-2.5zm-5-3.5v2.5c1 2 1.5 5 .5 7-1 1-1 1-2 0-1-3 0-5.5.5-7V244zm-5-3.5v2.5c1 2 1.5 5 .5 7-1 1-1 1-2 0-1-3 0-5.5.5-7v-2.5z"/><path fill="#000" d="M229 291v2.5c1 2 1.4 5 .4 7-1 1-1 1-2 0-1-3 0-5.5.5-7V291h1.1m-6-4v2.5c1 2 1.4 5 .4 7-1 1-1 1-2 0-1-3 0-5.5.5-7V287h1.1m-5.5-3.5v2.5c1 2 1.5 5 .5 7-1 1-1 1-2 0-1-3 0-5.5.5-7v-2.5zm-5.6-3.5v2.5c1 2 1.5 5 .5 7-1 1-1 1-2 0-1-3 0-5.5.5-7V280zm-5.4-3.5v2.5c1 2 1.5 5 .5 7-.4.4-.7.7-.9.7h-.1c-.3 0-.5-.2-1-.7-1-3 0-5.5.5-7v-2.5zm-5-3.5v2.5c1 2 1.5 5 .5 7-1 1-1 1-2 0-1-3 0-5.5.5-7V273zm-5-3.5v2.5c1 2 1.5 5 .5 7-1 1-1 1-2 0-1-3 0-5.5.5-7v-2.5zm-5.6-3.5v2.5c1 2 1.5 5 .5 7-1 1-1 1-2 0-1-3 0-5.5.5-7V266zm-6-4v2.5c1 2 1.5 5 .5 7-1 1-1 1-2 0-1-3 0-5.5.5-7V262zm-6-4v2.5c1 2 1.5 5 .5 7-1 1-1 1-2 0-1-3 0-5.5.5-7V258zm-5.4-3.5v2.5c1 2 1.5 5 .5 7-1 1-1 1-2 0-1-3 0-5.5.5-7v-2.5zm-5.6-3.5v2.5c1 2 1.5 5 .5 7-1 1-1 1-2 0-1-3 0-5.5.5-7V251zm-5.4-3.5v2.5c1 2 1.5 5 .5 7-.4.4-.7.7-.9.7h-.1c-.3 0-.5-.2-1-.7-1-3 0-5.5.5-7v-2.5zm-5-3.5v2.5c1 2 1.5 5 .5 7-1 1-1 1-2 0-1-3 0-5.5.5-7V244zm-5-3.5v2.5c1 2 1.5 5 .5 7-1 1-1 1-2 0-1-3 0-5.5.5-7v-2.5z"/></g></g></g><g transform="translate(41 121)"><mask id="Z" fill="#fff"><use xlink:href="#Y"/></mask><g mask="url(#Z)"><g transform="translate(251 156)"><path stroke="#fff" stroke-linecap="round" stroke-linejoin="round" stroke-width="2" d="M58 84.5V38"/><circle cx="6.5" cy="9.5" r="1.5" fill="#ffd3d3"/><circle cx="12.5" cy="17.5" r="1.5" fill="#f25153"/><circle cx="20.5" cy="25.5" r="1.5" fill="#ffd3d3"/><circle cx="30.5" cy="32.5" r="1.5" fill="#f25153"/><circle cx="39.5" cy="37.5" r="1.5" fill="#ffd3d3"/><circle cx="49.5" cy="39.5" r="1.5" fill="#f25153"/><path stroke="#fff" stroke-linecap="round" stroke-linejoin="round" stroke-width="2" d="M1.5 47V.5"/></g></g></g><g transform="translate(41 121)"><mask id="ab" fill="#fff"><use xlink:href="#aa"/></mask><g mask="url(#ab)"><path fill="#fff" d="m325 237.5-2.5 2.5-88.5-57.5 2.8-1.8z"/><path fill="#ceb9a5" d="m323 241.5-.5-1.5-88.5-57.5v1z"/><path fill="#fff" d="m316.6 245-3.6 1-79-51.5 2.8-1.8z"/><path fill="#ceb9a5" d="M313 247.5V246l-79-51.5v1z"/><g fill-rule="nonzero"><path fill="#fff" d="M314 235v2.5c1 2 1.4 5 .4 7-1 1-1 1-2 0-1-3 0-5.5.5-7V235h1.1m-6-4v2.5c1 2 1.4 5 .4 7-1 1-1 1-2 0-1-3 0-5.5.5-7V231h1.1m-5.5-3.5v2.5c1 2 1.5 5 .5 7-1 1-1 1-2 0-1-3 0-5.5.5-7v-2.5zm-5.6-3.5v2.5c1 2 1.5 5 .5 7-1 1-1 1-2 0-1-3 0-5.5.5-7V224zm-5.4-3.5v2.5c1 2 1.5 5 .5 7-.4.4-.7.7-.9.7h-.1c-.3 0-.5-.2-1-.7-1-3 0-5.5.5-7v-2.5zm-5-3.5v2.5c1 2 1.5 5 .5 7-1 1-1 1-2 0-1-3 0-5.5.5-7V217zm-5-3.5v2.5c1 2 1.5 5 .5 7-1 1-1 1-2 0-1-3 0-5.5.5-7v-2.5zm-5.6-3.5v2.5c1 2 1.5 5 .5 7-1 1-1 1-2 0-1-3 0-5.5.5-7V210zm-6-4v2.5c1 2 1.5 5 .5 7-1 1-1 1-2 0-1-3 0-5.5.5-7V206zm-6-4v2.5c1 2 1.5 5 .5 7-1 1-1 1-2 0-1-3 0-5.5.5-7V202zm-5.4-3.5v2.5c1 2 1.5 5 .5 7-1 1-1 1-2 0-1-3 0-5.5.5-7v-2.5zm-5.6-3.5v2.5c1 2 1.5 5 .5 7-1 1-1 1-2 0-1-3 0-5.5.5-7V195zm-5.4-3.5v2.5c1 2 1.5 5 .5 7-.4.4-.7.7-.9.7h-.1c-.3 0-.5-.2-1-.7-1-3 0-5.5.5-7v-2.5zm-5-3.5v2.5c1 2 1.5 5 .5 7-1 1-1 1-2 0-1-3 0-5.5.5-7V188zm-5-3.5v2.5c1 2 1.5 5 .5 7-1 1-1 1-2 0-1-3 0-5.5.5-7v-2.5z"/><path fill="#000" d="M314 235v2.5c1 2 1.4 5 .4 7-1 1-1 1-2 0-1-3 0-5.5.5-7V235h1.1m-6-4v2.5c1 2 1.4 5 .4 7-1 1-1 1-2 0-1-3 0-5.5.5-7V231h1.1m-5.5-3.5v2.5c1 2 1.5 5 .5 7-1 1-1 1-2 0-1-3 0-5.5.5-7v-2.5zm-5.6-3.5v2.5c1 2 1.5 5 .5 7-1 1-1 1-2 0-1-3 0-5.5.5-7V224zm-5.4-3.5v2.5c1 2 1.5 5 .5 7-.4.4-.7.7-.9.7h-.1c-.3 0-.5-.2-1-.7-1-3 0-5.5.5-7v-2.5zm-5-3.5v2.5c1 2 1.5 5 .5 7-1 1-1 1-2 0-1-3 0-5.5.5-7V217zm-5-3.5v2.5c1 2 1.5 5 .5 7-1 1-1 1-2 0-1-3 0-5.5.5-7v-2.5zm-5.6-3.5v2.5c1 2 1.5 5 .5 7-1 1-1 1-2 0-1-3 0-5.5.5-7V210zm-6-4v2.5c1 2 1.5 5 .5 7-1 1-1 1-2 0-1-3 0-5.5.5-7V206zm-6-4v2.5c1 2 1.5 5 .5 7-1 1-1 1-2 0-1-3 0-5.5.5-7V202zm-5.4-3.5v2.5c1 2 1.5 5 .5 7-1 1-1 1-2 0-1-3 0-5.5.5-7v-2.5zm-5.6-3.5v2.5c1 2 1.5 5 .5 7-1 1-1 1-2 0-1-3 0-5.5.5-7V195zm-5.4-3.5v2.5c1 2 1.5 5 .5 7-.4.4-.7.7-.9.7h-.1c-.3 0-.5-.2-1-.7-1-3 0-5.5.5-7v-2.5zm-5-3.5v2.5c1 2 1.5 5 .5 7-1 1-1 1-2 0-1-3 0-5.5.5-7V188zm-5-3.5v2.5c1 2 1.5 5 .5 7-1 1-1 1-2 0-1-3 0-5.5.5-7v-2.5z"/></g></g></g><g transform="translate(41 121)"><mask id="ad" fill="#fff"><use xlink:href="#ac"/></mask><g mask="url(#ad)"><g transform="translate(158 216)"><path stroke="#fff" stroke-linecap="round" stroke-linejoin="round" stroke-width="2" d="M58 84.5V38"/><circle cx="6.5" cy="9.5" r="1.5" fill="#ffd3d3"/><circle cx="12.5" cy="17.5" r="1.5" fill="#f25153"/><circle cx="20.5" cy="25.5" r="1.5" fill="#ffd3d3"/><circle cx="30.5" cy="32.5" r="1.5" fill="#f25153"/><circle cx="39.5" cy="37.5" r="1.5" fill="#ffd3d3"/><circle cx="49.5" cy="39.5" r="1.5" fill="#f25153"/><path stroke="#fff" stroke-linecap="round" stroke-linejoin="round" stroke-width="2" d="M1.5 47V.5"/></g></g></g><g transform="translate(41 121)"><mask id="af" fill="#fff"><use xlink:href="#ae"/></mask><g mask="url(#af)"><path fill="#f6d5b4" d="M202 47.5c-2.5 1.5-5 4.5-3 9.5s1.5 6.5 4 8 6-1.5 7-2.5 4.5-5.6 4-6c-.5-.5 0-6-1-6.5s-3.5-4.5-6.5-4-2 0-4.5 1.5"/><g transform="translate(198 45)"><mask id="ah" fill="#fff"><use xlink:href="#ag"/></mask><path fill="#e9bf94" d="M0 9.5C.3 7.7 1.2 7.2 2.5 8c2 1.3 3.5 4 7.5 4-2.3-1.7-3.5-3.3-3.5-5 1 0 1.8.5 2.5 1.5 1 1.5 1.5 3.5 2 3s1.5-2 3-1l3 2L6 0C1.7-.7-.7-.5-1 .5c-.5 1.5-2 5-1.5 6 .3.7 1.2 1.7 2.5 3" mask="url(#ah)"/></g></g></g><g transform="translate(41 121)"><mask id="aj" fill="#fff"><use xlink:href="#ai"/></mask><path fill="#ab7a48" d="M198.5 52.5c.3-.7.7-1.2 1-1.5l.2-.2c.8-.3.8 0 1.3.7s.2 1.3 2 3c2 2 5.3 2.5 5.5 2.5.3 0-2.4-1-4-3-1.3-1.6-1.3-3.6-1-3.5.6.3 2.6 0 3.6 1.3.6.7 1.3 2.3 1.9 4.7q1.5-3 3-1.5c1 1 .5 3-1 3-.5 0 0 .9 0 1 0 .2.5.4.5 1l-1 2c.1.4.3.6.5.5.7-.4 1.7-1.7 2-2 3.3-3.5 4.1-7.8 3-12-2-7.5-9.5-6-12-5s-5.5 3-6 5.5c-.3 1.7-.2 2.8.5 3.5" mask="url(#aj)"/></g><path fill="#f25153" d="M99.2 221.5c-17.5-12.4-24.7-21.9-21.4-28.4 5-10 17.1-5 19.6-2 .7-1.2 8.4-12 17.4-4.5 5.8 4.9 1.5 16.4-12.9 34.6a2 2 0 0 1-2.7.3"/><path fill="#fff" d="M86 190q-7.95 3-4.5 12c2-3-.3-4.5 1.7-8a15 15 0 0 1 2.8-4"/><path fill="#f25153" d="M127 159.2c-8.4-12-10.8-19.8-7.2-23.2 5.7-5.3 12.6.9 13.6 3.4.7-.6 8.4-5.8 12.6 1.3 2.7 4.5-2.7 10.9-16.3 19a2 2 0 0 1-2.6-.5z"/><path fill="#fff" d="M126 136c-4 0-6 2.2-5.8 6.7 2-1.5.9-3 3-4.8 1.5-1.2 2.4-1.9 2.9-2z"/><path fill="#f25153" d="M73.8 139.7c-10.6-5.2-15.4-9.7-14.2-13.5 1.8-6 9-4.5 10.6-3 .3-.8 3.5-7.5 9.2-4.3 3.6 2.2 2.5 8.8-3.5 20-.4.8-1.3 1.1-2.1.8"/><path fill="#fff" d="M63.8 123.6c-2.7 1.7-3.2 4-1.3 7.1.8-1.8-.6-2.4.2-4.6.5-1.4.9-2.2 1.1-2.5"/></g></svg>