<svg xmlns="http://www.w3.org/2000/svg" xmlns:xlink="http://www.w3.org/1999/xlink" width="503" height="532" viewBox="0 0 503 532"><title>self-help</title><defs><path id="a" d="M.606 294.63v28.192a8.56 8.56 0 0 0 3.81 7.122L220.533 474.05a14.38 14.38 0 0 0 15.96 0l162.118-107.91 1.036-4.356a21.94 21.94 0 0 1 11.326-14.442l57.485-167.499c4.063-11.381-.15-24.07-10.21-30.752L238.228 2.956A15.57 15.57 0 0 0 229.61.354h-8.014l-56.903 191.83z"/><path id="d" d="m.125 45.178 60.354-40.1A765 765 0 0 1 67.67.444h83.805L291.29 93.671v25.214a804 804 0 0 0-11.203 6.708l-.327.198-98.386 65.416L.125 70.35z"/><path id="f" d="M81.479 24.078a765 765 0 0 1 7.192-4.634Q120.304.568 134.658.568q13.581 0 37.818 18.876l139.815 93.227 12.47 17.397-12.47 7.817a804 804 0 0 0-11.203 6.708l-98.713 65.614L21.125 89.35.26 74.568l20.864-10.39 60.354-40.1z"/><path id="h" d="M.007.83h330.54v162.35c-8.585 4.542-19.024 10.473-31.746 18.225l-98.713 65.614L.007 113.607z"/><path id="j" d="M299.291 118.887 121.658.444c-6.687 2.503-22.212 9.66-53.18 29.85L29.959 55.86 8.124 70.35.26 75.568l190 129.5 119.5-79.5-10.47-6.68z"/><path id="l" d="M299.291 118.887 121.658.444c-6.687 2.503-22.212 9.66-53.18 29.85L29.959 55.86 8.124 70.35.26 75.568l190 129.5 119.5-79.5-10.47-6.68z"/><path id="n" d="M299.291 118.887 121.658.444c-6.687 2.503-22.212 9.66-53.18 29.85L29.959 55.86 8.124 70.35.26 75.568l190 129.5 119.5-79.5-10.47-6.68z"/><path id="p" d="M299.291 118.887 121.658.444c-6.687 2.503-22.212 9.66-53.18 29.85L29.959 55.86 8.124 70.35.26 75.568l190 129.5 119.5-79.5-10.47-6.68z"/><path id="r" d="M299.291 118.887 121.658.444c-6.687 2.503-22.212 9.66-53.18 29.85L29.959 55.86 8.124 70.35.26 75.568l190 129.5 119.5-79.5-10.47-6.68z"/><path id="t" d="M23.187 23.493q-2.402-2.447-.926-3.925c1.5-1.5 5-.5 5 0s.5 5.5 2 7q.237.238.386.46c5.925 3.822 9.75 8.298 10.114 13.04.5 6.5-11 6-17.5 2-6 .5-7 4-11 2s-2-6 1-6 5.5 1 3.5 0c-4.5-2-7.5-4.5-9.5-7-2-1-5 1.5-5.5-1.5s3.628-1.627 3.211-2.329C1.498 23.073.067 17.151 1.762 12.07q4-12 14.5-12-3.5 3-2.5 7c1 4-4 0-8 3.5s6.5 8 16.5 12.5q.466.21.925.424z"/><path id="v" d="M23.187 23.493q-2.402-2.447-.926-3.925c1.5-1.5 5-.5 5 0s.5 5.5 2 7q.237.238.386.46c5.925 3.822 9.75 8.298 10.114 13.04.5 6.5-11 6-17.5 2-6 .5-7 4-11 2s-2-6 1-6 5.5 1 3.5 0c-4.5-2-7.5-4.5-9.5-7-2-1-5 1.5-5.5-1.5s3.628-1.627 3.211-2.329C1.498 23.073.067 17.151 1.762 12.07q4-12 14.5-12-3.5 3-2.5 7c1 4-4 0-8 3.5s6.5 8 16.5 12.5q.466.21.925.424z"/><path id="x" d="M23.187 23.493q-2.402-2.447-.926-3.925c1.5-1.5 5-.5 5 0s.5 5.5 2 7q.237.238.386.46c5.925 3.822 9.75 8.298 10.114 13.04.5 6.5-11 6-17.5 2-6 .5-7 4-11 2s-2-6 1-6 5.5 1 3.5 0c-4.5-2-7.5-4.5-9.5-7-2-1-5 1.5-5.5-1.5s3.628-1.627 3.211-2.329C1.498 23.073.067 17.151 1.762 12.07q4-12 14.5-12-3.5 3-2.5 7c1 4-4 0-8 3.5s6.5 8 16.5 12.5q.466.21.925.424z"/><path id="z" d="M23.187 23.493q-2.402-2.447-.926-3.925c1.5-1.5 5-.5 5 0s.5 5.5 2 7q.237.238.386.46c5.925 3.822 9.75 8.298 10.114 13.04.5 6.5-11 6-17.5 2-6 .5-7 4-11 2s-2-6 1-6 5.5 1 3.5 0c-4.5-2-7.5-4.5-9.5-7-2-1-5 1.5-5.5-1.5s3.628-1.627 3.211-2.329C1.498 23.073.067 17.151 1.762 12.07q4-12 14.5-12-3.5 3-2.5 7c1 4-4 0-8 3.5s6.5 8 16.5 12.5q.466.21.925.424z"/><path id="B" d="M299.291 118.887 121.658.444c-6.687 2.503-22.212 9.66-53.18 29.85L29.959 55.86 8.124 70.35.26 75.568l190 129.5 119.5-79.5-10.47-6.68z"/><path id="D" d="M299.291 118.887 121.658.444c-6.687 2.503-22.212 9.66-53.18 29.85L29.959 55.86 8.124 70.35.26 75.568l190 129.5 119.5-79.5-10.47-6.68z"/><path id="F" d="M299.291 118.887 121.658.444c-6.687 2.503-22.212 9.66-53.18 29.85L29.959 55.86 8.124 70.35.26 75.568l190 129.5 119.5-79.5-10.47-6.68z"/><path id="H" d="M71.605 5.5q6.501 11 4.5 18.5c-3.4 12.753-12.998 20.294-17 21-3.909.69-13.27 1.007-24-1q-4.824-.903-15-4.5-2.5-5 1-9Q24 30 51.605 28l3-4.5q-13 6.5-35-5.5c7 6 6.895 8.4 7.395 11.9-2.5.1-5.813.518-5.895.6q-.08.079-.308.154c-1.3.434-5.951.742-8.192-.154-2.5-1-15.105-14-11-23.5S21 1 26 1s18.605 2.5 19.605 1q1-1.5 1.5-2z"/><path id="J" d="M71.605 5.5q6.501 11 4.5 18.5c-3.4 12.753-12.998 20.294-17 21-3.909.69-13.27 1.007-24-1q-4.824-.903-15-4.5-2.5-5 1-9Q24 30 51.605 28l3-4.5q-13 6.5-35-5.5c7 6 6.895 8.4 7.395 11.9-2.5.1-5.813.518-5.895.6q-.08.079-.308.154c-1.3.434-5.951.742-8.192-.154-2.5-1-15.105-14-11-23.5S21 1 26 1s18.605 2.5 19.605 1q1-1.5 1.5-2z"/><path id="L" d="M29 0q-3.5 2.5-5.5 13C18 17.5 3 26.5 1 32.5q-2 6 13.5 34 5.5-3.5 6-6t.5-9q-12-14-11-17c1-3 13-15.5 17-17.5q4-2 4.5-4.5z"/><path id="N" d="M10 0Q3.679 2 3.179 7.5c-.5 5.5-4 9.5-3 14.5s2.745 5.5 3 7c.5 2 2 5.5 0 18-.5 1.5 12 9 25.5 4.5 0-6 2.5-17.5 5.5-21s1-20.5-.5-21.5q-1.5-1-6.5-4z"/><path id="P" d="M10 0Q3.679 2 3.179 7.5c-.5 5.5-4 9.5-3 14.5s2.745 5.5 3 7c.5 2 2 5.5 0 18-.5 1.5 12 9 25.5 4.5 0-6 2.5-17.5 5.5-21s1-20.5-.5-21.5q-1.5-1-6.5-4z"/><path id="R" d="M19.5.5Q2 0 1 17t15.5 16L15 46q1 1 2.5.5c2.604-.868 3.205-2.457 5-4.5 1.326-1.51 4.003-3.317 5-5 3.942-6.654 5.288-14.713 4.5-22Q29.5 3 19.5.5"/><path id="T" d="M3.5 1C6-.5 12.5-.5 17 8.5c1.5-1.5 3.3-.607 3.5 1 .094.753.156 2.516-.5 3.5-1 1.5-1.5.159-1.5.5 0 2 1 10.5-4.5 21.5-3.5 2-7 1-5.5-3s.5-8.5 0-9c0 0-2.5 1-5-1-.631-1.579-.952-2.585-1.5-4.5C1.68 16.383 0 15 .5 13c.398-1.59.5-3.5.5-6s1-5 2.5-6"/><path id="V" d="M2.5 0Q-3 14 6 25c9 11 20 22 19.5 25.5S16.5 68 16 70s-1.5 19 3.5 16.5c5-8 16-27 14.5-35.5s-6-12-9.5-16S10 22.5 9 20s1-11.5.5-12S8 7.5 7 10Q6 4.5 2.5 0"/><linearGradient id="c" x1="39.606%" x2="53.281%" y1="76.518%" y2="54.668%"><stop offset="0%" stop-color="#faf8f0"/><stop offset="100%" stop-color="#fff"/></linearGradient></defs><g fill="none" fill-rule="evenodd"><path fill="#5e7710" d="m24.287 391.906 202.14 134.785a25.81 25.81 0 0 0 28.703-.045l164.293-110.715c7.393-4.963 7.376-15.853-.033-20.793L210.34 255.745a12.48 12.48 0 0 0-13.851 0L24.287 371.091c-7.422 4.95-7.422 15.866 0 20.815" opacity=".15"/><path fill="#d1b49a" d="M0 347.7v-5.001L173.936 227.92a7.22 7.22 0 0 1 8.01 0L246.454 2.38s8.205-3.317 12.943-.575l228.165 149.18c12.622 8.253 18.027 24.037 13.116 38.305L437.75 373.093c-2.136 6.625-6.801 12.754-11.967 17.415v.002l-9.026 6.018-157.554 104.867a30.94 30.94 0 0 1-34.335 0L2.9 353.128A6.53 6.53 0 0 1 0 347.7"/><path fill="#867054" d="M3.207 348.694c-4.276-2.851-4.276-9.141 0-11.993l170.097-113.23a7.19 7.19 0 0 1 7.98 0L239.853 9.646c1.94-7.085 10.213-10.224 16.358-6.206l227.296 148.61c12.574 8.222 17.958 23.947 13.065 38.16L435.55 367.49l-.252.783a39.4 39.4 0 0 1-11.104 17.165l-8.992 5.996-158.356 105.403a28.35 28.35 0 0 1-31.462 0z"/><path fill="#513b20" d="m496.571 190.211-61.022 177.28c-2.38 7.383-6.21 13.304-11.356 17.948l-8.992 5.996L278.55 482.4c-9.527 6.353-30.523 11.753-40.05 5.4q191.823-284.607 232.2-309.15c22.95-13.95 26.726 9.078 25.871 11.561" opacity=".5"/><path stroke="#be9365" stroke-dasharray="3.603599643611915,3.603599643611915" stroke-linecap="round" stroke-linejoin="round" stroke-width="1.08" d="M186.588 228.63 246.1 11.362c.607-2.216 2.554-3.207 4.214-3.207.837 0 1.63.24 2.355.715l227.295 148.61a26.31 26.31 0 0 1 10.483 30.618L429.384 365.5l-.252.783a33 33 0 0 1-8.943 14.035l-8.58 5.721-158.351 105.4a21.85 21.85 0 0 1-12.144 3.68 21.84 21.84 0 0 1-12.14-3.678L10.582 345.766c-2.183-1.457-2.182-4.667.002-6.122L176.89 228.87a.7.7 0 0 1 .403-.124q.219 0 .4.121l4.47 2.98"/><path stroke="#f7931e" stroke-linecap="round" stroke-linejoin="round" stroke-width=".72" d="m183.662 232.847 1.498.998.476-1.737"/><path fill="#fff" d="m393.26 354.18-144.166 95.94a14.38 14.38 0 0 1-15.96 0L16.537 305.697"/><path stroke="#000" stroke-linecap="round" stroke-linejoin="round" stroke-width=".72" d="m393.26 354.18-144.166 95.94a14.38 14.38 0 0 1-15.96 0L16.537 305.697"/><path fill="#f4f1ec" d="M13.206 306.695v28.192a8.56 8.56 0 0 0 3.81 7.122l216.117 144.106a14.38 14.38 0 0 0 15.96 0l162.118-107.91 1.036-4.356a21.94 21.94 0 0 1 11.326-14.442l57.485-167.499c4.063-11.381-.15-24.07-10.21-30.752L250.828 15.021a15.57 15.57 0 0 0-8.618-2.602h-8.014l-56.903 191.83z"/><path stroke="#dcd3c4" stroke-width="1.8" d="M14.106 307.195v27.692a7.66 7.66 0 0 0 3.409 6.374l216.118 144.104a13.48 13.48 0 0 0 14.962 0l161.822-107.714.955-4.011a22.84 22.84 0 0 1 11.466-14.865l57.372-167.17c3.925-10.993-.144-23.247-9.86-29.7L250.33 15.77a14.67 14.67 0 0 0-8.12-2.452h-7.342L178.06 204.832z"/><g transform="translate(12.6 12.065)"><mask id="b" fill="#fff"><use xlink:href="#a"/></mask><path fill="#dfdcd3" d="M228.15 445.585v39.16l214.2-99.46 54-224.55-44.1 3.15-221.4 272.25z" mask="url(#b)" opacity=".6"/></g><path fill="url(#c)" d="M177.294 203.885s-7.409-41.98 12.719-86.574c14.62-32.392 28.13-76.39 34.428-98.043 1.887-6.489 9.522-9.275 15.141-5.529L461.93 161.997c8.935 5.958 12.623 17.27 8.915 27.355-8.936 24.306-29.048 58.66-40.69 91.914-16.7 47.704-18.943 78.59-18.943 78.59l-233.918-155.97z" transform="translate(0 .365)"/><path stroke="#dcd3c4" stroke-width="1.8" d="m178.12 203.718 232.332 154.916q.175-1.748.478-4.1c.591-4.569 1.444-9.884 2.607-15.89 3.318-17.147 8.447-36.397 15.768-57.31a278 278 0 0 1 3.683-9.888c3.871-9.845 8.387-19.963 14.56-32.934 1.508-3.167 10.278-21.331 12.596-26.256 4.45-9.455 7.557-16.598 9.855-22.85 3.565-9.694.02-20.568-8.57-26.295L239.083 14.853c-5.114-3.41-12.06-.873-13.778 5.032-10.489 36.06-22.485 71.603-34.472 98.161-7.107 15.747-11.274 32.217-13.03 48.809-1.264 11.954-1.18 22.828-.28 32.021.145 1.475.3 2.772.455 3.881q.076.551.141.96z"/><path stroke="#979797" stroke-width=".9" d="M391.95 324.9q7.2-52.2 50.85-139.05M377.55 315.9q7.2-52.2 50.85-139.05m-64.8 128.7q7.2-52.2 50.85-139.05" opacity=".2"/><path fill="#fff" d="M177.294 204.25s-10.099-3.234-67.374 34.117l-93.383 62.078c-4.44 2.962-4.44 9.495 0 12.456l216.596 144.424a14.38 14.38 0 0 0 15.96 0l100.463-66.8c51.69-31.494 61.655-30.303 61.655-30.303z"/><path stroke="#dcd3c4" stroke-width="1.8" d="M176.948 205.1c-.593-.073-1.672.006-3.341.372-2.592.568-6.032 1.72-10.432 3.59-12.067 5.134-29.35 14.79-52.757 30.054l-93.382 62.078c-3.906 2.606-3.906 8.353 0 10.958l216.597 144.424a13.48 13.48 0 0 0 14.962 0l100.493-66.819c21.964-13.383 38.12-21.941 49.364-26.626 4.052-1.688 7.212-2.763 9.592-3.342q.351-.086.666-.153z"/><path fill="#eae8e2" d="m40.953 306.673 79.264-52.664c30.968-20.19 46.493-27.347 53.18-29.85l198.176 132.14c-8.586 4.542-19.024 10.473-31.747 18.226l-98.712 65.613z"/><text fill="#e1ddd2" fill-rule="nonzero" font-family="Merriweather-Italic, Merriweather" font-size="19.8" font-style="italic" transform="rotate(-65 236.137 138.687)">
                    <tspan x="231.637" y="145.687">1</tspan>
                </text><path fill="#e1ddd2" fill-rule="nonzero" d="M259.549 186.22q-.134.674-.405 1.433-.27.76-.717 1.28a3.5 3.5 0 0 1-1.012.82c-.38.2-.792.329-1.218.381q-.654.083-1.344.014a8.1 8.1 0 0 1-2.731-.826q-1.32-.663-2.225-1.37a10.5 10.5 0 0 1-1.625-1.572 9.8 9.8 0 0 1-1.2-1.806 8.5 8.5 0 0 1-.708-1.91q-.46-1.99.16-3.727.586-1.65 1.495-2.9l.212-.285 2.93 2.15-.364 1.021-2.292-.914q-.416.234-.66.738-.246.504-.466 1.124-.222.619-.138 1.433a4.8 4.8 0 0 0 .438 1.568q.356.754.917 1.438 1.542 1.865 3.838 3.018 1.973.991 3.545.958 1.778-.044 2.3-1.51.413-1.16.2-2.173a1.4 1.4 0 0 0-.258-.603l-1.471-1.439.384-1.051 2.703 1.769q-.013.261-.023.698-.01.438-.07 1.004-.06.565-.195 1.24zm4.335-11.763q-.404 1.135-1.5.512-.72-.412-1.533-1.012-.813-.599-1.158-.848a60 60 0 0 1-.752-.558 25 25 0 0 0-.845-.61q-.98-.698-1.57-.994-.588-.296-.881-.35-.292-.055-.48.016-.27.111-.418.526c-.1.286-.14.588-.12.89q.026.477.176 1.016.322 1.159 1.023 2.273l6.094 4.09-.603 1.692-12.056-8.04-.734.845-.656-.505.468-2.501.392-.338 5.785 3.883q-1.1-1.911-1.07-3.583.015-.579.188-1.063.173-.485.434-.78t.659-.395q.825-.223 2.2.467a11 11 0 0 1 1.656 1.059l1.225.913 1.277.91q1.368.964 1.673 1.04.306.075.349-.046.108-.306-.146-1.174l.54-.048q.234.334.367.894.262 1.13.016 1.82zm1.985-9.98q.927 1.803.384 3.33-.504 1.415-1.816 1.65-1.225.218-2.9-.623-1.374-.69-2.595-2.096-2.044-2.344-2.098-4.963a4.8 4.8 0 0 1 .28-1.774q.303-.855.929-1.621l.08-1.185 7.919 5.326q.334.218.52.194.185-.025.251-.213.067-.188-.148-.882l.549-.044q.21.282.34.799.253 1.042.025 1.68-.394 1.108-1.428.589l-.12-.06-.172-.108zm-7.093-4.736q-.427.27-.67.95a3.1 3.1 0 0 0-.185 1.31q.057.631.315 1.235.26.603.68 1.159t.925 1.035q.985.937 1.869 1.381.883.444 1.417.6.534.154.941.142.851-.015 1.087-.678.398-1.117-.234-2.566a6 6 0 0 0-.367-.72zm11.482-4.14q.02.904-.229 1.603-.238.676-.618 1.284l4.186 2.833-.59 1.658-12.188-8.21-.774.732-.62-.496.371-2.51.351-.306.995.684q-.876-1.695-.354-3.161.522-1.467 1.849-1.715 1.24-.231 2.905.605 2.187 1.098 3.663 3.568 1.018 1.695 1.053 3.43zm-1.989 2.107q.47-.3.722-1.01.255-.712.187-1.331a3.9 3.9 0 0 0-.342-1.216 5.8 5.8 0 0 0-.708-1.149 8.7 8.7 0 0 0-.948-1.026 9.5 9.5 0 0 0-2.22-1.557q-1.19-.599-2-.542-.811.055-1.054.736-.357 1.004.243 2.457.16.4.347.72zm4.987-9.563q-.57 1.596-2.098.829l-.094-.047q-.264-.133-1.004-.628l-5.9-3.9-.373 1.047-.681-.547-.019-1.275q-.404-.79-1.858-2.302l.295-.83 2.123 1.417.815-2.286 1.124.77-.805 2.26 5.088 3.41q.981.667 1.344.85t.527.229q.165.046.278.01.213-.057.323-.367t.121-.582a4 4 0 0 0-.015-.564 6 6 0 0 0-.176-1.034l.722.177q.498.95.42 2.526-.027.47-.157.837m1.647-8.556q.57-1.597-.19-3.593l.852-.046q.46.745.632 1.902.225 1.4-.142 2.434-.369 1.034-.93 1.534-1.097.992-2.707.677-.695-.143-1.061-.327a32 32 0 0 1-.794-.414q-.428-.23-1.137-.808-.702-.57-1.288-1.259a9.3 9.3 0 0 1-1.004-1.435c-.276-.485-.495-1-.651-1.536q-.476-1.66.02-3.056.648-1.815 2.117-1.673.45.04 1.004.319.555.279.985.865.43.587.678 1.307.246.72.331 1.515.086.793.06 1.542-.036 1.515-.355 2.466.173.108.327.185t.37.175.57.183q.352.085.705.097c.224.01.447-.02.66-.09q.688-.23.948-.964m-4.504-.102q.394-1.304.127-2.899-.181-1.13-.765-1.866-.296-.385-.851-.664-.555-.28-.967-.125-.412.153-.578.62t-.1.943q.068.476.293.944.226.468.568.923.339.45.732.856c.469.474.985.9 1.541 1.268m-.214-10.478-.824.615-.704-.538.309-2.336.354-.316 1.873 1.157a5.35 5.35 0 0 1-1.181-2.96q-.053-.642.084-1.027.237-.663.388-.72l1.64 1.275q-.207.184-.38.67a3.2 3.2 0 0 0-.196.888q-.023.405.083.87.255 1.065 1.158 2.063l5.838 3.848-.606 1.702z"/><g transform="translate(59.739 248.932)"><mask id="e" fill="#fff"><use xlink:href="#d"/></mask><path fill="#f9e6d7" d="M291.292 118.887 113.658.444c-6.687 2.503-22.212 9.66-53.18 29.85L.126 70.35l181.25 120.857z" mask="url(#e)"/></g><g transform="translate(38.739 229.932)"><mask id="g" fill="#fff"><use xlink:href="#f"/></mask><path fill="#fff" stroke="#42210b" stroke-linecap="round" stroke-linejoin="round" stroke-width=".72" d="M312.292 137.887 134.658 19.444c-6.687 2.503-22.212 9.66-53.18 29.85L21.126 89.35l181.25 120.857z" mask="url(#g)"/></g><g transform="translate(41.025 193.12)"><mask id="i" fill="#fff"><use xlink:href="#h"/></mask><g mask="url(#i)"><path fill="#acdfd4" stroke="#66bda9" stroke-linecap="round" stroke-linejoin="round" d="M310.004 166.699 132.371 48.256c-6.687 2.503-22.212 9.66-53.18 29.85l-38.519 25.566-21.835 14.49-7.864 5.218 190 129.5 119.5-79.5z"/><g transform="translate(10.713 47.812)"><mask id="k" fill="#fff"><use xlink:href="#j"/></mask><path fill="#c8f5eb" stroke="#66bda9" stroke-linecap="round" stroke-linejoin="round" d="M299.291 134.887 121.658 16.444c-6.687 2.503-22.212 9.66-53.18 29.85L29.959 71.86 8.124 86.35.26 91.568l190 129.5 119.5-79.5-10.47-6.68z" mask="url(#k)"/></g><g transform="translate(10.713 47.812)"><mask id="m" fill="#fff"><use xlink:href="#l"/></mask><path fill="#44af99" d="M84.355 93.984 128.185 66c3.52-2.248 8.624-2.582 11.398-.746l92.937 61.504c2.774 1.836 2.169 5.147-1.352 7.395l-43.83 27.984c-3.52 2.248-8.624 2.582-11.398.746l-60.284-39.895c-2.58-1.707-4.398-5.606-7.895-7.92q-3.46-2.29-10.519-6.158c-1.248-.684-.256-2.664-2.48-3.842-.66-.348-.08-1.528-1.5-2-.687-.228-2.307.28-4 0-.886-.146-1.981-1.093-4-1.689q-.587-.172-2.259 0c-2.774-1.836-2.17-5.147 1.352-7.395" mask="url(#m)" opacity=".2"/></g><g transform="translate(10.713 47.812)"><mask id="o" fill="#fff"><use xlink:href="#n"/></mask><path fill="#44af99" d="M.261 105.568c-2 1-29-17-30-18.5s4.5-45.5 8.5-52 132-51 135-52.5 14.5 8.5 30.5 11 174 115 175.5 116q1.5 1 27 57l-46.5-12.5-180.5-121.5q-16.59 8.655-31.5 18.5c-7.473 4.935-31.699 20.58-50.5 33.5-18.705 12.857-36.502 20.502-37.5 21" mask="url(#o)" opacity=".3"/></g><g transform="translate(10.713 47.812)"><mask id="q" fill="#fff"><use xlink:href="#p"/></mask><g mask="url(#q)"><path fill="#000" d="M78.5 48.2c6 1.5 6 5 4 7.5s-8 2.5-8 2q0-.5.5-3l-4 2q-2-1-2-3.785c0-4 6.37-5.497 9.5-4.715"/><path fill="#28d6af" d="M78.5 48.2c6 1.5 6 5 4 7.5s-8 2.5-8 2q0-.5.5-3l-4 2q-2-1-2-3.785c0-4 6.37-5.497 9.5-4.715"/><path stroke="#24c3a0" stroke-width="1.1" d="m71.012 56.08 4.748-2.374-.22 1.102c-.244 1.218-.398 2.082-.46 2.554.115.017.257.03.418.04a12 12 0 0 0 2.174-.121c1.983-.283 3.619-.95 4.399-1.924 2.182-2.729 1.213-5.394-3.704-6.623-3.61-.903-8.817 1.135-8.817 4.181 0 1.543.486 2.572 1.462 3.164z"/></g></g><g transform="translate(10.713 47.812)"><mask id="s" fill="#fff"><use xlink:href="#r"/></mask><g mask="url(#s)"><path fill="#000" d="M91.187 102.493q-2.402-2.447-.926-3.925c1.5-1.5 5-.5 5 0s.5 5.5 2 7q.237.237.386.46c5.925 3.822 9.75 8.298 10.114 13.04.5 6.5-11 6-17.5 2-6 .5-7 4-11 2s-2-6 1-6 5.5 1 3.5 0c-4.5-2-7.5-4.5-9.5-7-2-1-5 1.5-5.5-1.5s3.628-1.627 3.211-2.329c-2.474-4.166-3.905-10.088-2.21-15.169q4-12 14.5-12-3.5 3-2.5 7c1 4-4 0-8 3.5s6.5 8 16.5 12.5q.466.21.925.424z"/><path fill="#f4fffd" d="M91.187 102.493q-2.402-2.447-.926-3.925c1.5-1.5 5-.5 5 0s.5 5.5 2 7q.237.237.386.46c5.925 3.822 9.75 8.298 10.114 13.04.5 6.5-11 6-17.5 2-6 .5-7 4-11 2s-2-6 1-6 5.5 1 3.5 0c-4.5-2-7.5-4.5-9.5-7-2-1-5 1.5-5.5-1.5s3.628-1.627 3.211-2.329c-2.474-4.166-3.905-10.088-2.21-15.169q4-12 14.5-12-3.5 3-2.5 7c1 4-4 0-8 3.5s6.5 8 16.5 12.5q.466.21.925.424z"/><path stroke="#388e7b" stroke-width=".6" d="M90.094 101.664c-.905-1.291-.941-2.411-.045-3.308 1.397-1.396 5.512-.912 5.512.212 0 .415.182 1.864.432 3.064.369 1.773.873 3.116 1.48 3.724q.23.23.388.453c6.234 4.034 9.841 8.578 10.2 13.236.247 3.22-2.27 5.046-6.41 5.26-3.696.192-8.204-.952-11.462-2.93-1.744.156-3.106.554-4.64 1.244-.308.138-1.284.6-1.312.613-.496.23-.863.382-1.227.5-1.284.415-2.435.329-3.883-.395-1.958-.98-2.744-2.552-2.278-4.105.427-1.423 1.828-2.464 3.412-2.464.835 0 1.668.073 2.57.202-3.77-1.795-6.657-4.049-8.76-6.66-.433-.199-.947-.235-1.653-.153-.193.022-.37.048-.69.1-1.094.175-1.498.205-1.99.066-.688-.193-1.111-.743-1.272-1.705-.249-1.496.488-2.206 1.858-2.377a8 8 0 0 1 .939-.054c.142-.003.246-.006.326-.01-2.709-4.687-3.679-10.507-2.112-15.204 2.705-8.115 7.646-12.205 14.783-12.205h.811l-.615.528c-2.25 1.929-3.043 4.147-2.405 6.7.275 1.1.143 1.771-.45 2.1-.424.235-.82.255-2.136.204-1.757-.069-2.722.01-3.837.46a5.8 5.8 0 0 0-1.67 1.034c-1.58 1.382-.686 3.028 2.634 5.186 2.597 1.688 5.434 3.06 12.79 6.365l.71.32z"/><g transform="translate(68 79)"><mask id="u" fill="#fff"><use xlink:href="#t"/></mask><path fill="#3aac92" fill-rule="nonzero" d="M5.261 21.568c-.5-1-1-2-.5-2s4 1.5 3.5 2.5-1 .5-1 1 2.5 1.5 2 2.5-1.68 2.5-2 1.5 0-1.5-1-2-3-1.5-2.5-2.5 2 0 1.5-1m12 6.5c.5-.5 1 0 1 .5s1 .5 2 1 .5 0 .5 1-.5 1-.5 1.5 1 .5 1 1-.5 1-1 1.5.5 1 1.5 1 1 1 1 2-.5 1-1.5 1-1 0-1.5-.5-.5-.5-1-.5-1 .5-1.5 0-.927-.5-.927-.5.427-1.5 0-3c-.428-1.5-1.073-1.5-1.073-2.5s1.5-.5 2-1.5-.5-1.5 0-2m9.5 2c.5 0 1-1 1.5-1.5s0-.5-.5-1-.5 0-1.5-.5-.5-1 0-2 1 0 2 .5 1.5 1 3 1.5 1 .5 1.5 1 0 1 0 1.5.5 1 .5 1.5 0 1-.5 2-.5 0-2.5-.5-.5 0-2 0-1.5 0-2.5-.5 0-.5 0-1.5.5-.5 1-.5m7 5h1.5c.5 0 1 .5 1.5 1s0 .5 0 .5l1 1c.5.5 0 1-1 2s0 1 0 1.5-.5.5-1 .5-.5 0-.5-.5 0-1-.5-1 0 .5-1 .5-1 0-1-.5c0-.337-.208-.447-.663-1.556-.152-.372-2.337 0-.542-1.498.224-.188-.19-.597-.295-.946-1.043-3.5 0-1 1-1z" mask="url(#u)"/></g><g transform="translate(68 79)"><mask id="w" fill="#fff"><use xlink:href="#v"/></mask><path fill="#ffa34b" d="M5.261 27.568c.5 0 1.5 0 1.5-.5s-.5-1 0-1.5 1 0 1.5 0 2.5-.888 3 0c.5.89-1.5 2.5 0 2s2-1 3-1.5 1-.35 1.5 0 1 2 2 1.5.5-1.5 1.5-.5l1.5 1.5c1 1 1 2 1.5 1.5s2-.619.5-1.5c-1.5-.88-1-.5-1.5-1.5s-1-1.5-.5-2 0-1.5 1-1.5 1-1 2.5.5 2 0 2 2-.5 2 .5 2 1-.5 1.5.5-1 2-1.5 2-1-.5-.5.5-.5.5 1 1 .5 0 2 .5 2-1 2 1 1 2-1 2.5-2-.5-2.5.5-.5 1-1.5 1-1-.5-1.5-1l-1-1c-.5-.5-1-.5-1-1.5v-1.5q.5-1-1-.5c-1.5.5-2.75 0-3.375 0s-1.125-2-1.625 0 0 1-.5 2.5-.5 3-1 2.5-2 0-1.5-1.5.5-1 1-2.5 1-2 .5-2.5 0-1-1-.5-1 1-2 1-1.5-.5-2-.5-1-.5-1 0 2 4 .5 3.5-4.5-1.5-4.5-2-.5-4.5 0-4.5" mask="url(#w)"/></g><g transform="translate(68 79)"><mask id="y" fill="#fff"><use xlink:href="#x"/></mask><path fill="#3aac92" d="M29.761 41.568c1 .5 1.5-.333 1.5-.5q0-.166-2-1s-.5 1 .5 1.5" mask="url(#y)"/></g><g transform="translate(68 79)"><mask id="A" fill="#fff"><use xlink:href="#z"/></mask><path fill="#23ad8f" d="M15.761 1.068q-10.5 4-11.5 8.5c-.38 1.71-1.518 4.656-1.5 7 .03 3.825 1.64 7.14 3.5 9 3 3 15 9.5 17 11 .698.523 1.334 1.29 1.995 2.108.314.39-1.495 2.392 1.005 4.892 1.066 1.066 1.544-1.485 3-1 3 1 12 2.5 10.5-6q-1.5-8.5 3 2.5 3 9.501-3.5 10.5c-6.5 1-24 2.5-28 .5s-19-14-19-17.5 0-9 2-14.5 1-9.5 5-12.5 8.5-6.5 12.5-7c1.837-.23 4.27.123 5 1q.33.398-.5 1.5" mask="url(#A)" opacity=".127"/></g><path fill="#f4fffd" d="M73.261 91.568q1.5 0 1.5 1c0 1 0 1.5 1 2s2.5 0 3 1 1 2 3 2 3.5-1 4 .5c.25.747 1.752 2.01 2 3.5q.085.507-1 1.5-5-3-9.5-5t-4-6.5"/><path stroke="#388e7b" stroke-width=".6" d="M73.261 91.268c1.146 0 1.8.436 1.8 1.3 0 1.149.083 1.357.835 1.732.246.124.536.184 1.005.23l.23.02c1.123.096 1.582.251 1.899.884.704 1.41 1.2 1.834 2.731 1.834.464 0 .884-.048 1.53-.159 1.863-.318 2.385-.245 2.755.865.044.132.152.311.34.57.088.121.506.667.617.818.595.809.937 1.456 1.054 2.157.08.476-.297 1.04-1.093 1.77l-.165.152-.192-.115q-4.986-2.991-9.467-4.983c-3.117-1.385-4.525-3.674-4.177-6.808l.03-.267h.268Z"/><path stroke="#388e7b" stroke-linecap="round" stroke-linejoin="round" stroke-width=".6" d="M93.263 117.568q-1 3.5 1 5.5m-21.5-15 2 3m22 9q-.5-.999.5-1.5 1-.5 2 1.5m-21-1q-.501 2.5 3 3.5m7.5-21.5q6 2.5 9.5 5"/></g></g><g transform="translate(10.713 47.812)"><mask id="C" fill="#fff"><use xlink:href="#B"/></mask><path stroke="#5cb8a3" d="M121.761.068v17" mask="url(#C)"/></g><g transform="translate(10.713 47.812)"><mask id="E" fill="#fff"><use xlink:href="#D"/></mask><path fill="#249a81" d="M299.291 118.887q-150.53 75.681-180.03 10.181c-29.5-65.5-76.463-81.73-89.304-73.208L8.125 70.35.26 75.568l190 129.5 119.5-79.5-10.47-6.68z" mask="url(#E)" opacity=".06"/></g><g transform="translate(10.713 47.812)"><mask id="G" fill="#fff"><use xlink:href="#F"/></mask><g mask="url(#G)"><path fill="#000" d="M153.5 135.2c6 1.5 6 5 4 7.5s-8 2.5-8 2q0-.5.5-3l-4 2q-2-1-2-3.785c0-4 6.37-5.497 9.5-4.715"/><path fill="#28d6af" d="M153.5 135.2c6 1.5 6 5 4 7.5s-8 2.5-8 2q0-.5.5-3l-4 2q-2-1-2-3.785c0-4 6.37-5.497 9.5-4.715"/><path stroke="#24c3a0" stroke-width="1.1" d="m146.012 143.08 4.748-2.374-.22 1.102c-.244 1.218-.398 2.082-.46 2.554.115.017.257.03.418.04a12 12 0 0 0 2.174-.121c1.983-.283 3.619-.95 4.399-1.924 2.182-2.729 1.213-5.394-3.704-6.623-3.61-.903-8.817 1.135-8.817 4.181 0 1.543.486 2.572 1.462 3.164z"/></g></g></g></g><path stroke="#ffa34b" stroke-linecap="round" stroke-linejoin="round" stroke-width="3.24" d="M411.21 378.204s1.037-12.551 12.363-18.798"/><path fill="#44af99" d="m144.073 316.617 43.543-27.705c3.498-2.226 8.568-2.556 11.325-.739l92.329 60.89c2.756 1.817 2.155 5.095-1.343 7.32l-43.543 27.705c-3.498 2.226-8.568 2.556-11.325.739l-92.329-60.89c-2.756-1.817-2.155-5.095 1.343-7.32" opacity=".5"/><g stroke="#fff" stroke-linecap="round" stroke-linejoin="round" transform="translate(143 260)"><ellipse cx="13" cy="9.5" rx="13" ry="9.5"/><ellipse cx="13" cy="9.5" rx="8" ry="5.5"/><ellipse cx="13" cy="9.5" rx="2" ry="1.5"/></g><g stroke="#fff" stroke-linecap="round" stroke-linejoin="round" transform="translate(56 319)"><ellipse cx="13" cy="9.5" rx="13" ry="9.5"/><ellipse cx="13" cy="9.5" rx="8" ry="5.5"/><ellipse cx="13" cy="9.5" rx="2" ry="1.5"/></g><g stroke="#fff" stroke-linecap="round" stroke-linejoin="round" transform="translate(254 319)"><ellipse cx="13" cy="9.5" rx="13" ry="9.5"/><ellipse cx="13" cy="9.5" rx="8" ry="5.5"/><ellipse cx="13" cy="9.5" rx="2" ry="1.5"/></g><g stroke="#fff" stroke-linecap="round" stroke-linejoin="round" transform="translate(262 375)"><ellipse cx="13" cy="9.5" rx="13" ry="9.5"/><ellipse cx="13" cy="9.5" rx="8" ry="5.5"/><ellipse cx="13" cy="9.5" rx="2" ry="1.5"/></g><path fill="#000" d="M139.202 306.987 184.564 278c3.644-2.328 8.926-2.674 11.797-.772l96.186 63.706c2.872 1.902 2.245 5.331-1.399 7.66l-45.362 28.987c-3.644 2.328-8.926 2.674-11.797.772l-96.186-63.706c-2.872-1.902-2.246-5.331 1.399-7.66"/><path fill="#ffa34b" d="M139.202 306.987 184.564 278c3.644-2.328 8.926-2.674 11.797-.772l96.186 63.706c2.872 1.902 2.245 5.331-1.399 7.66l-45.362 28.987c-3.644 2.328-8.926 2.674-11.797.772l-96.186-63.706c-2.872-1.902-2.246-5.331 1.399-7.66"/><path stroke="#cf7d2e" stroke-width="1.5" d="M139.605 307.619c-3.235 2.068-3.742 4.843-1.388 6.403l96.186 63.706c2.604 1.725 7.57 1.4 10.98-.78l45.361-28.986c3.236-2.068 3.743-4.843 1.39-6.403l-96.187-63.706c-2.604-1.725-7.57-1.4-10.98.78z"/><g transform="translate(89 303)"><path fill="#000" fill-rule="nonzero" d="M7.48 14.4c-2.462-.242-6.3-1.806-5.714-9.338 11.088.844 11.941 4.22 11.088 7.594-.098.39-.22.71-.356.976q.474-.269 1.243-.588-2.653-7.137 10.141-7.982c0 3.962-.55 6.642-2.24 8.218q3.993.462 6.505 4.439c-2.837 1.203-5.482 1.834-7.66 1.894.79 1.65 1.119 3.946-.87 7.387q-6.926-1.869-8.739-6.497C8.97 21.88 5.517 22.93 0 21.937q1.348-6.662 7.48-7.538zm3.924.272q.697.764 1.044 1.527.996-.26 1.2-.168c.322.145.653.244.985.31q-.262-.786-.008-1.316-2.565-.068-2.859-.532-.179.117-.362.179"/><path fill="#28d6af" fill-rule="nonzero" d="M7.48 14.4c-2.462-.242-6.3-1.806-5.714-9.338 11.088.844 11.941 4.22 11.088 7.594-.098.39-.22.71-.356.976q.474-.269 1.243-.588-2.653-7.137 10.141-7.982c0 3.962-.55 6.642-2.24 8.218q3.993.462 6.505 4.439c-2.837 1.203-5.482 1.834-7.66 1.894.79 1.65 1.119 3.946-.87 7.387q-6.926-1.869-8.739-6.497C8.97 21.88 5.517 22.93 0 21.937q1.348-6.662 7.48-7.538zm3.924.272q.697.764 1.044 1.527.996-.26 1.2-.168c.322.145.653.244.985.31q-.262-.786-.008-1.316-2.565-.068-2.859-.532-.179.117-.362.179"/><path stroke="#24c3a0" stroke-width="1.1" d="m11.49 14.383-3.932.561c-3.679.525-5.956 2.677-6.896 6.548 4.456.706 7.792.082 9.894-1.435l.575-.415.26.66c1.1 2.813 3.736 4.834 7.958 6.052 1.447-2.664 1.516-4.677.642-6.504l-.365-.764.847-.023c1.98-.055 4.34-.6 6.844-1.598-1.531-2.17-3.437-3.372-5.738-3.639l-1.183-.137.87-.812c1.388-1.293 2.005-3.497 2.062-7.223-7.774.617-10.632 2.999-9.072 7.199l.184.496-.488.203q-.608.245-1.184.559l-1.607.907.329-.635Zm.07-.137.45-.867q.181-.351.31-.858c1-3.952-1.25-6.117-10.042-6.865-.288 5.537 1.848 7.863 5.256 8.196l4.026.394Zm.15.898q.185-.078.359-.192l-.303-.46-.348.221.11.316q.08.062.181.115zm-.486-.992q.125-.043.24-.118l.467-.308.3.473c-.011-.018.164.056.497.118q.667.125 1.912.158l.848.022-.367.765c-.1.211-.1.506.034.905l.299.898-.929-.185a5 5 0 0 1-1.103-.347c.057.026.001.025-.1.04q-.372.06-.735.158l-.448.117-.191-.421q-.31-.681-.95-1.384l-.563-.617.789-.274Z"/><path fill="#ffc58d" d="M12.5 3q-2 3.5-1.5 6t2.5 1.5Q15 6.5 14 5t-1.5-2"/><path fill="#e4872e" d="M7.676 7.594Q8.53 2.532 9.382.844q4.265 7.593 5.118 9.281.853 1.687-6.824.844z"/><ellipse cx="12.794" cy="14.344" fill="#fff" rx="1.706" ry="1"/><path fill="#ffa34b" d="M11.941 16.031q-1.706 4.219-5.117 1.688C3.412 15.187 3.647 7.187 4.5 5.5q3.52 1.97 5 4.5 1.01 1.726 2.441 6.031"/><path fill="#e4872e" d="M11.941 7.594q2.56-4.22 4.265-5.907 1.706 3.375 1.706 8.438c0 5.063-3.412 2.531-3.412 2.531l-2.559-4.219z"/><path fill="#ffa34b" d="M14.026 16.031q1.706 4.219 5.118 1.688C22.556 15.187 22.353 7.687 21.5 6q-4.02 1.97-5.5 4.5-1.009 1.725-1.974 5.531"/><path fill="#ffc58d" d="M12.643 7.5q-6.16 5.157-2.749 9.375 2.559 4.22 5.97.844 3.412-3.375-3.22-10.219z"/></g><g transform="matrix(-1 0 0 1 320 353)"><path fill="#000" fill-rule="nonzero" d="M7.48 14.4c-2.462-.242-6.3-1.806-5.714-9.338 11.088.844 11.941 4.22 11.088 7.594-.098.39-.22.71-.356.976q.474-.269 1.243-.588-2.653-7.137 10.141-7.982c0 3.962-.55 6.642-2.24 8.218q3.993.462 6.505 4.439c-2.837 1.203-5.482 1.834-7.66 1.894.79 1.65 1.119 3.946-.87 7.387q-6.926-1.869-8.739-6.497C8.97 21.88 5.517 22.93 0 21.937q1.348-6.662 7.48-7.538zm3.924.272q.697.764 1.044 1.527.996-.26 1.2-.168c.322.145.653.244.985.31q-.262-.786-.008-1.316-2.565-.068-2.859-.532-.179.117-.362.179"/><path fill="#28d6af" fill-rule="nonzero" d="M7.48 14.4c-2.462-.242-6.3-1.806-5.714-9.338 11.088.844 11.941 4.22 11.088 7.594-.098.39-.22.71-.356.976q.474-.269 1.243-.588-2.653-7.137 10.141-7.982c0 3.962-.55 6.642-2.24 8.218q3.993.462 6.505 4.439c-2.837 1.203-5.482 1.834-7.66 1.894.79 1.65 1.119 3.946-.87 7.387q-6.926-1.869-8.739-6.497C8.97 21.88 5.517 22.93 0 21.937q1.348-6.662 7.48-7.538zm3.924.272q.697.764 1.044 1.527.996-.26 1.2-.168c.322.145.653.244.985.31q-.262-.786-.008-1.316-2.565-.068-2.859-.532-.179.117-.362.179"/><path stroke="#24c3a0" stroke-width="1.1" d="m11.49 14.383-3.932.561c-3.679.525-5.956 2.677-6.896 6.548 4.456.706 7.792.082 9.894-1.435l.575-.415.26.66c1.1 2.813 3.736 4.834 7.958 6.052 1.447-2.664 1.516-4.677.642-6.504l-.365-.764.847-.023c1.98-.055 4.34-.6 6.844-1.598-1.531-2.17-3.437-3.372-5.738-3.639l-1.183-.137.87-.812c1.388-1.293 2.005-3.497 2.062-7.223-7.774.617-10.632 2.999-9.072 7.199l.184.496-.488.203q-.608.245-1.184.559l-1.607.907.329-.635Zm.07-.137.45-.867q.181-.351.31-.858c1-3.952-1.25-6.117-10.042-6.865-.288 5.537 1.848 7.863 5.256 8.196l4.026.394Zm.15.898q.185-.078.359-.192l-.303-.46-.348.221.11.316q.08.062.181.115zm-.486-.992q.125-.043.24-.118l.467-.308.3.473c-.011-.018.164.056.497.118q.667.125 1.912.158l.848.022-.367.765c-.1.211-.1.506.034.905l.299.898-.929-.185a5 5 0 0 1-1.103-.347c.057.026.001.025-.1.04q-.372.06-.735.158l-.448.117-.191-.421q-.31-.681-.95-1.384l-.563-.617.789-.274Z"/><path fill="#ffc58d" d="M12.5 3q-2 3.5-1.5 6t2.5 1.5Q15 6.5 14 5t-1.5-2"/><path fill="#e4872e" d="M7.676 7.594Q8.53 2.532 9.382.844q4.265 7.593 5.118 9.281.853 1.687-6.824.844z"/><ellipse cx="12.794" cy="14.344" fill="#fff" rx="1.706" ry="1"/><path fill="#ffa34b" d="M11.941 16.031q-1.706 4.219-5.117 1.688C3.412 15.187 3.647 7.187 4.5 5.5q3.52 1.97 5 4.5 1.01 1.726 2.441 6.031"/><path fill="#e4872e" d="M11.941 7.594q2.56-4.22 4.265-5.907 1.706 3.375 1.706 8.438c0 5.063-3.412 2.531-3.412 2.531l-2.559-4.219z"/><path fill="#ffa34b" d="M14.026 16.031q1.706 4.219 5.118 1.688C22.556 15.187 22.353 7.687 21.5 6q-4.02 1.97-5.5 4.5-1.009 1.725-1.974 5.531"/><path fill="#ffc58d" d="M12.643 7.5q-6.16 5.157-2.749 9.375 2.559 4.22 5.97.844 3.412-3.375-3.22-10.219z"/></g><path fill="#cf7d2e" d="M176 331.5q16.5 7 22 10.5c5.5 3.5 8.724 12.207 11.5 13 3.5 1 6.964-.929 7.5-2 1.5-3-1.173-4.12 0-5 .953-.715 5.341.372 10 .5 5.12.14 10.62-.691 13.5-2 5.5-2.5 15-15 12-24q-3-9-6.5-10.5l-50-1-9 1.5q-4.665 10.666-6 10.5c-4-.5-8.5-2.5-9.5-1q-1 1.5 4.5 9.5"/><path fill="#e9bf94" d="M198.5 328.5q-11 1-14-.5c-3-1.5-10.5-6.5-13-5.5s-2 4-1 5.5c.495.743 3.006 3.446 6 4.5 3.05 1.073 7.855 1.495 9.5 2q3.26 1 13 4z"/><path fill="#e9bf94" d="M189.5 329q10.92 9.715 14 13.5c2.355 2.894 3.211 6.922 3.5 7.5.5.999 1.15 2.977 2 3.5 1.687 1.039 4.64.923 6 0 .7-.475.373-1.363.5-2 .334-1.671-1.255-3.24-3-6-.433-.685-1-3 .5-3.882s-2.751-.074-3-1.257q-1.5-7.14-20.5-11.361"/><path fill="#40f5cf" d="M246.605 303.5q6.501 11 4.5 18.5c-3.4 12.753-12.998 20.294-17 21-3.909.69-13.27 1.007-24-1q-4.824-.903-15-4.5-2.5-5 1-9 2.895-.5 30.5-2.5l3-4.5q-13 6.5-35-5.5c7 6 6.895 8.4 7.395 11.9-2.5.1-5.813.518-5.895.6q-.08.078-.308.154c-1.3.434-5.951.742-8.192-.154-2.5-1-15.105-14-11-23.5S196 299 201 299s18.605 2.5 19.605 1q1-1.5 1.5-2z"/><g transform="translate(175 298)"><mask id="I" fill="#fff"><use xlink:href="#H"/></mask><path fill="#28d6af" d="M46 1q-1 8 16.5 10c17.5 2 5.5 17 4 19.5s-3 7.5-10 9-31.5 0-41-3.5Q6 32.5 18 43l42 6 13.5-11.5 5-20.5L76 4q-8-1-8.5-1T46 1" mask="url(#I)"/></g><g transform="translate(175 298)"><mask id="K" fill="#fff"><use xlink:href="#J"/></mask><path fill="#28d6af" d="M55 15.5q1 6-.5 8C51.5 26 44 28 40 27q-4-1-12.5 2.5l-3 .5q-9-11-12.5-13.5c-1-4.5 7.5-2.5 8.5-2s18.5 7 26 4.5q7.5-2.5 8.5-3.5" mask="url(#K)"/></g><path fill="#e9bf94" d="M235 196q-3.5 2.5-5.5 13c-5.5 4.5-20.5 13.5-22.5 19.5q-2 6 13.5 34 5.5-3.5 6-6t.5-9q-12-14-11-17c1-3 13-15.5 17-17.5q4-2 4.5-4.5z"/><g transform="translate(206 196)"><mask id="M" fill="#fff"><use xlink:href="#L"/></mask><path fill="#bf9870" d="M34-.5q-3.896-.44-5 1c-2.04 2.66-2.284 8.62-2.5 11C26 17 22 18 19.5 20S6 30 6.5 35c.233 2.333 2.533 8.281 7.5 16 .279.433 1.44 4.09 1.5 8 .103 6.758-.933 15.283 0 16.5q1.28 1.67 6.5-14Q34 41 33.5 40T32 10.5z" mask="url(#M)"/></g><path fill="#fff" d="M228 252q-6.321 2-6.821 7.5c-.5 5.5-4 9.5-3 14.5s2.745 5.5 3 7c.5 2 2 5.5 0 18-.5 1.5 12 9 25.5 4.5 0-6 2.5-17.5 5.5-21s1-20.5-.5-21.5q-1.5-1-6.5-4z"/><g transform="translate(218 252)"><mask id="O" fill="#fff"><use xlink:href="#N"/></mask><path fill="#f4f1ec" d="M.5 16q2 8.5 9.5 10.5c7.5 2 13.5 3.5 13.5-5.25q0-8.75 8-15.75l12 4.5Q32.5 29.5 32 30.5t-7 7q-12-5-13-5c-1 0-9.5-3-10-2.5s-7.5-4.5-7-5q.5-.5 1.5-8z" mask="url(#O)"/></g><g transform="translate(218 252)"><mask id="Q" fill="#fff"><use xlink:href="#P"/></mask><path fill="#eae8e2" d="M31 14.5q-4.5 10-5 17c-.5 7-6.5.5-16-1.5-2.119-.446-3.717-1.514-5.5-2Q.954 27.034 0 23l1.5 8q11.017 2.99 14.5 4.5c2.479 1.074 5.807 2.753 6.5 4q2.5 4.5 0 18 7.5-.5 8-1t9-26L35 21z" mask="url(#Q)"/></g><path fill="#574336" d="M240.5 220.5Q223 220 222 237t15.5 16l-1.5 13q1 1 2.5.5c2.604-.868 3.205-2.457 5-4.5 1.326-1.51 4.003-3.317 5-5 3.942-6.654 5.288-14.713 4.5-22q-2.5-12-12.5-14.5"/><g transform="translate(221 220)"><mask id="S" fill="#fff"><use xlink:href="#R"/></mask><path fill="#372920" d="M15.5.5q1 7 3.5 9c2.5 2 5.5 9 5.5 11.5 0 .255-1.052 1.107-2 .5-.806-.516-1.418-2.548-2.5-2-.842.427.812 5.036-1 5.5-6.877 1.76 1.72 2.61 2.5 3 2 1 1.988 3.061 1.5 5.5-1 5-9 12-9.5 13s-2 3.5-1 4S42.5 38 44 30s-.5-42.5-4.5-42.5q-4 0-24 13" mask="url(#S)"/></g><path fill="#e9bf94" d="M225.5 232c2.5-1.5 9-1.5 13.5 7.5 1.5-1.5 3.3-.607 3.5 1 .094.753.156 2.516-.5 3.5-1 1.5-1.5.159-1.5.5 0 2 1 10.5-4.5 21.5-3.5 2-7 1-5.5-3s.5-8.5 0-9c0 0-2.5 1-5-1-.631-1.579-.952-2.585-1.5-4.5-.32-1.117-2-2.5-1.5-4.5.398-1.59.5-3.5.5-6s1-5 2.5-6"/><g transform="translate(222 231)"><mask id="U" fill="#fff"><use xlink:href="#T"/></mask><path fill="#bf9870" d="M1 6.5s1.5-4.5 4-5 7.5 0 11 7c.26.519.477 1.098.655 1.719.136.475 1.254-5.235 1.345-4.719.238 1.354 3.183 1.261 3 3.5-.203 2.491-1 5-3 4.5-.5 4.5-1.5 6-3.5 7.5s-6 2-6.5 2-.804.852.5 1c1.848.21 5.914-.466 6.5 1q.723 1.808-3.5 11.5L20 35l4.5-29q-9-7-9.5-7.5C14.5-2 2.5-3 2.5-2.5s0 1.5-1 3-.5 6-.5 6" mask="url(#U)"/></g><path fill="#e9bf94" d="M235.5 196q-5.5 14 3.5 25c9 11 20 22 19.5 25.5s-9 17.5-9.5 19.5-1.5 19 3.5 16.5c5-8 16-27 14.5-35.5s-6-12-9.5-16-14.5-12.5-15.5-15 1-11.5.5-12-1.5-.5-2.5 2q-1-5.5-4.5-10"/><g transform="translate(233 196)"><mask id="W" fill="#fff"><use xlink:href="#V"/></mask><path fill="#bf9870" d="M9.5 7.5q-2 5-2 10c0 5 1 4.5 5.5 9s17.5 14.5 18 23Q31.5 58 13 84q3.5 7.5 4.5 7.5c1 0 3.5 3.5 10.5-2s17-12.5 17-24 4-17.5-8.5-31Q24 21 9.5 7.5" mask="url(#W)"/></g><path fill="#000" d="M256.253 405.22c0-5.5-5.5-12.5-19-9.5s-6 20 5 20.5c3.298.15 7.5-.5 9.5-2 .371-.278-2.205-2.265-4.5-4.5q-1.41-1.375-2.253-2.5.476-.959 2.253 0c3.092 1.667 7.376 4.2 7.583 3.84 1.024-1.791 1.417-3.848 1.417-5.84"/><path fill="#28d6af" d="M256.253 405.22c0-5.5-5.5-12.5-19-9.5s-6 20 5 20.5c3.298.15 7.5-.5 9.5-2 .371-.278-2.205-2.265-4.5-4.5q-1.41-1.375-2.253-2.5.476-.959 2.253 0c3.092 1.667 7.376 4.2 7.583 3.84 1.024-1.791 1.417-3.848 1.417-5.84"/><path stroke="#24c3a0" stroke-width="1.1" d="M251.067 414.021a12 12 0 0 0-.716-.708c-.22-.206-2.218-2.001-2.87-2.615q-.319-.3-.611-.584-1.44-1.402-2.31-2.564l-.203-.272.15-.303c.5-1.006 1.586-1.006 3.007-.24q1.138.617 2.268 1.248c2.038 1.132 2.748 1.52 3.554 1.932q.584.307 1.194.557c.791-1.522 1.173-3.315 1.173-5.252 0-6.772-6.994-11.482-18.33-8.963-5.84 1.298-7.953 5.474-6.285 10.476 1.608 4.825 6.24 8.713 11.19 8.937 3.3.15 6.92-.5 8.79-1.649z"/><path fill="#000" d="M260 395.575q.111-4.575 5.5-5.075c5.388-.5 8 2.651 8.5 5.075s-3 6.5-8.5 5.5a10 10 0 0 1-1.479-.384c-.897-.315 2.576-3.554 1.979-4.116-.49-.46-3.298 3.324-4 2.973q-2-1-2-3.973"/><path fill="#28d6af" d="M260 395.575q.111-4.575 5.5-5.075c5.388-.5 8 2.651 8.5 5.075s-3 6.5-8.5 5.5a10 10 0 0 1-1.479-.384c-.897-.315 2.576-3.554 1.979-4.116-.49-.46-3.298 3.324-4 2.973q-2-1-2-3.973"/><path stroke="#24c3a0" stroke-width="1.1" d="M260.55 395.582c.001 1.725.532 2.834 1.584 3.415.08-.04.192-.115.326-.22.275-.217.59-.512 1.11-1.026l.088-.088c.748-.741.94-.926 1.243-1.18.628-.523 1.039-.72 1.476-.308.607.57.386.96-.947 2.757l-.017.023c-.523.705-.72.984-.874 1.266q-.015.027-.028.052.51.156 1.087.261c4.493.817 8.39-2.292 7.863-4.847-.591-2.869-3.531-5.046-7.91-4.64-3.328.31-4.931 1.787-5.001 4.535Z"/><path stroke="#fff" stroke-linecap="round" stroke-linejoin="round" d="M126 301q6 1 10-3m-28 24q2 2 0 6m127.5 89c4.225 3.169 11.025 2.737 15.5.5m56.5-56q-4 3.5-3.5 7.5"/><g stroke="#fff" stroke-linecap="round" stroke-linejoin="round" transform="translate(167 362)"><ellipse cx="13" cy="9.5" rx="13" ry="9.5"/><ellipse cx="13" cy="9.5" rx="8" ry="5.5"/><ellipse cx="13" cy="9.5" rx="2" ry="1.5"/></g><g stroke="#fff" stroke-linecap="round" stroke-linejoin="round" transform="translate(189 401)"><ellipse cx="13" cy="9.5" rx="13" ry="9.5"/><ellipse cx="13" cy="9.5" rx="8" ry="5.5"/><ellipse cx="13" cy="9.5" rx="2" ry="1.5"/></g><path stroke="#fff" stroke-linecap="round" stroke-linejoin="round" d="M99 319q-2-3 2.5-7.5m-2 14.5q.5 3.5 8 6.5m139 72.5 7.5 4m53.5-36q-.5 4-6.5 6"/></g></svg>