<svg height="130" viewBox="0 0 130 130" width="130" xmlns="http://www.w3.org/2000/svg"><g fill="none" fill-rule="evenodd" transform="translate(24.8823 22.8823)"><path d="m59.3043965-0c11.5598519 0 20.9309635 6.94872759 20.9309635 15.5204175 0 5.0248132-3.2203128 9.4919075-8.2140725 12.3284244-.5544644.3149427-.8945479 1.3943352-1.1614482 2.7612234l-.1524877.8508167-.210625 1.3555178-.2092293 1.3819878c-.3602604 2.2824453-.8100144 4.3532377-1.8258043 4.6026561-.7027002.172542-1.7182487-.6659203-2.8432779-1.8490042l-.4882653-.5261924-1.0025182-1.1323532-1.1604596-1.3274592-.5206469-.5779937-.5107459-.5436752c-1.0089102-1.0442479-1.9342888-1.8035308-2.6313827-1.8035308-11.5598519 0-20.9309635-6.9487276-20.9309635-15.5204175 0-8.57168991 9.3711116-15.5204175 20.9309635-15.5204175z" fill="#abaeae" fill-rule="nonzero"/><path d="m20.9309635 41.4117987c-11.55985195 0-20.9309635 6.9487276-20.9309635 15.5204175 0 5.0248132 3.22031277 9.4919075 8.21407246 12.3284244.55446448.3149427.89454799 1.3943352 1.16144824 2.7612234l.15248774.8508167.21062492 1.3555178.20922934 1.3819878.1316427.7941594c.3422766 1.9503218.7978764 3.5884216 1.6941616 3.8084967.7027002.172542 1.7182487-.6659203 2.8432779-1.8490042l.4882653-.5261924 1.0025182-1.1323532 1.1604596-1.3274592.5206469-.5779937.5107459-.5436752c1.0089102-1.0442479 1.9342888-1.8035308 2.6313827-1.8035308 11.5598519 0 20.9309635-6.9487276 20.9309635-15.5204175s-9.3711116-15.5204175-20.9309635-15.5204175z" fill="#edac01"/><g fill-rule="nonzero"><path d="m59.9948243 38.8643325.2008195.0775084.0367681.0194787c.1076216.0592894.2052128.1362228.2872856.228617l3.7030534 3.6627887c.419182.4146321.419182 1.0868835 0 1.5015156-.3869373.3827373-.9957933.4121786-1.4168719.0883239l-.1011206-.0883239-1.9262116-1.9060472.001751 10.7108759c0 3.4383092-2.7538438 6.2404051-6.1988516 6.3659971l-.2414449.0043939h-9.6604446c-.592813 0-1.0733828-.4753535-1.0733828-1.0617318 0-.5444941.4143689-.9932577.9482037-1.0545888l.1251791-.007143h9.6604446c2.2993956 0 4.176617-1.787923 4.2882765-4.0349629l.0052545-.2119645v-10.7086273l-1.9244606 1.9037986c-.3869373.3827373-.9957933.4121786-1.4168719.0883239l-.1011206-.0883239c-.3869372-.3827373-.4167016-.9849846-.0892932-1.4014927l.0892932-.1000229 3.7568396-3.7160614c.0467129-.0462059.0957165-.086959.1464713-.1224805l-.1464713.1224805c.0557645-.0551592.1161382-.1029805.1798948-.1434639.1036326-.0679175.2138791-.114175.3263446-.141018l.2015187-.0252894c.1152014-.0070816.2296496.0068416.3391474.0374399z" fill="#abaeae"/><path d="m20.2405357 37.0572984-.0940628-.0305771-.1435248-.0664099c-.1076216-.0592894-.2052128-.1362228-.2872856-.2286171l-3.7030534-3.6627886c-.419182-.4146321-.419182-1.0868835 0-1.5015156.3869373-.3827373.9957933-.4121786 1.4168719-.088324l.1011206.088324 1.9262116 1.9060472-.001751-10.7108759c0-3.4383092 2.7538438-6.2404051 6.1988516-6.3659971l.2414449-.004394h9.6604446c.592813 0 1.0733828.4753536 1.0733828 1.0617319 0 .5444941-.4143689.9932577-.9482037 1.0545888l-.1251791.007143h-9.6604446c-2.2993956 0-4.176617 1.7879229-4.2882765 4.0349628l-.0052545.2119646v10.7086273l1.9244606-1.9037986c.3869373-.3827373.9957933-.4121786 1.4168719-.088324l.1011206.088324c.3869372.3827373.4167016.9849846.0892932 1.4014926l-.0892932.100023-3.7568396 3.7160614c-.0467129.0462058-.0957165.086959-.1464713.1224804l.1464713-.1224804c-.0557645.0551592-.1161382.1029805-.1798948.1434638-.1554489.1018764-.325779.1550176-.4961577.1670023l-.0317056-.0006949c-.1152014.0070817-.2296496-.0068415-.3391474-.0374399z" fill="#abaeae"/><g fill="#fff"><path d="m14.6913571 62.7622358h2.3221057c.415336 0 .5663672-.2454258.623004-.3964571l.7173985-1.9256486h5.0406685l.7362774 1.9256486c.0566367.1510313.207668.3964571.6041251.3964571h2.3221057c.2265469 0 .4153359-.1887891.4153359-.3964571 0-.0377578-.0188789-.1132735-.0377578-.1699102l-4.4176645-12.1202591c-.0755156-.2643047-.3020625-.5286094-.7362774-.5286094h-2.7940784c-.4342149 0-.6607618.2643047-.7362775.5286094l-4.4365434 12.1202591c-.0188789.0566367-.0188789.1321524-.0188789.1699102 0 .207668.1887891.3964571.3964571.3964571zm4.4365434-5.0406685 1.7557385-4.9840318 1.7557384 4.9840318z"/><path d="m52.3430518 9.83671668v1.61981032h2.3674151c.6541542 2.2583894 1.8222866 4.236427 3.5043973 5.9496879-1.6198103 1.3706088-3.6757234 2.3674151-6.1521642 3.0059942l.8722056 1.4329091c2.5387412-.7164545 4.6881049-1.8534368 6.432516-3.3953716 1.6509605 1.3706087 3.7224487 2.5231661 6.2144646 3.457672l.9033557-1.3861838c-2.367415-.8722056-4.3610278-1.9313123-5.965263-3.2084705 1.4329092-1.573085 2.5231661-3.5199724 3.2707709-5.8562373h2.35184v-1.61981032h-5.8873876c-.4672529-1.01238145-.9812312-1.88458701-1.5419348-2.61661668l-1.6353854.59185377c.5607036.63857907 1.0435316 1.30830834 1.4329091 2.02476291zm3.924925 1.61981032h5.8406622c-.6074288 1.884587-1.5263597 3.5043973-2.7412174 4.8438559-1.4329092-1.401759-2.4608657-3.0059942-3.0994448-4.8438559z"/></g></g></g></svg>