<svg height="130" viewBox="0 0 130 130" width="130" xmlns="http://www.w3.org/2000/svg"><g fill="none" fill-rule="evenodd" transform="translate(4 23)"><path d="m11.9999999 6.676c0-1.77101323.7032862-3.46953737 1.9557692-4.72164528s2.9512178-1.9551507 4.7222309-1.9543554h84.644c1.771013-.0007953 3.469748.70224749 4.722231 1.9543554s1.955769 2.95063205 1.955769 4.72164528v59.3239993h-98.0000001z" fill="#fff" fill-rule="nonzero"/><path d="m13.6199999 64.38h94.7600001v-57.704c0-1.34136256-.532608-2.62783342-1.481282-3.57613243-.948674-.948299-2.235356-1.48066366-3.576718-1.47986846h-84.644c-1.3413623-.0007952-2.6280439.53156946-3.576718 1.47986846-.9486741.94829901-1.4812821 2.23476987-1.4812821 3.57613243z" stroke="#63300e" stroke-width="3.24"/><path d="m7 74h108c3.865993 0 7-3.1340068 7-7v-1h-122v1c0 3.8659932 3.13400675 7 7 7z" fill="#edac01"/><g transform="translate(19 7)"><path d="m0 0h84v52h-84z" fill="#facc58"/><path d="m0 34h84v17c0 .5522847-.4477153 1-1 1h-82c-.55228475 0-1-.4477153-1-1z" fill="#e3e6e6"/><g fill="#fff" fill-rule="nonzero"><rect height="31" rx="2" width="19" x="12" y="14"/><rect height="3" rx="1.5" width="5" x="78" y="1"/><rect height="3" rx="1.5" width="11" x="1" y="1"/><rect height="4" rx="2" width="30" x="34" y="19"/><rect height="4" rx="2" width="19" x="34" y="25"/></g><path d="m34 37h35v3h-35z" fill="#bdc1c1"/><path d="m34 42h35v3h-35z" fill="#bdc1c1"/><rect fill="#fff" fill-rule="nonzero" height="3" rx="1.5" width="6" x="15" y="1"/></g><g fill="#bdc1c1"><path d="m34 30h13v3h-13z"/><path d="m36 46h9v1h-9z"/><path d="m38 48h5v1h-5z"/><path d="m38 24h5v1h-5z"/></g></g></svg>